<?xml version="1.0" encoding="utf-8" standalone="no"?>
<!DOCTYPE svg PUBLIC "-//W3C//DTD SVG 1.1//EN"
  "http://www.w3.org/Graphics/SVG/1.1/DTD/svg11.dtd">
<!-- Created with matplotlib (https://matplotlib.org/) -->
<svg height="345.6pt" version="1.1" viewBox="0 0 460.8 345.6" width="460.8pt" xmlns="http://www.w3.org/2000/svg" xmlns:xlink="http://www.w3.org/1999/xlink">
 <defs>
  <style type="text/css">
*{stroke-linecap:butt;stroke-linejoin:round;}
  </style>
 </defs>
 <g id="figure_1">
  <g id="patch_1">
   <path d="M 0 345.6 
L 460.8 345.6 
L 460.8 0 
L 0 0 
z
" style="fill:#ffffff;"/>
  </g>
  <g id="axes_1">
   <g id="patch_2">
    <path d="M 57.6 307.584 
L 414.72 307.584 
L 414.72 41.472 
L 57.6 41.472 
z
" style="fill:#ffffff;"/>
   </g>
   <g id="matplotlib.axis_1">
    <g id="xtick_1">
     <g id="line2d_1">
      <defs>
       <path d="M 0 0 
L 0 3.5 
" id="m440fb80a88" style="stroke:#000000;stroke-width:0.8;"/>
      </defs>
      <g>
       <use style="stroke:#000000;stroke-width:0.8;" x="73.968" xlink:href="#m440fb80a88" y="307.584"/>
      </g>
     </g>
     <g id="text_1">
      <!-- −100 -->
      <defs>
       <path d="M 10.59375 35.5 
L 73.1875 35.5 
L 73.1875 27.203125 
L 10.59375 27.203125 
z
" id="DejaVuSans-8722"/>
       <path d="M 12.40625 8.296875 
L 28.515625 8.296875 
L 28.515625 63.921875 
L 10.984375 60.40625 
L 10.984375 69.390625 
L 28.421875 72.90625 
L 38.28125 72.90625 
L 38.28125 8.296875 
L 54.390625 8.296875 
L 54.390625 0 
L 12.40625 0 
z
" id="DejaVuSans-49"/>
       <path d="M 31.78125 66.40625 
Q 24.171875 66.40625 20.328125 58.90625 
Q 16.5 51.421875 16.5 36.375 
Q 16.5 21.390625 20.328125 13.890625 
Q 24.171875 6.390625 31.78125 6.390625 
Q 39.453125 6.390625 43.28125 13.890625 
Q 47.125 21.390625 47.125 36.375 
Q 47.125 51.421875 43.28125 58.90625 
Q 39.453125 66.40625 31.78125 66.40625 
z
M 31.78125 74.21875 
Q 44.046875 74.21875 50.515625 64.515625 
Q 56.984375 54.828125 56.984375 36.375 
Q 56.984375 17.96875 50.515625 8.265625 
Q 44.046875 -1.421875 31.78125 -1.421875 
Q 19.53125 -1.421875 13.0625 8.265625 
Q 6.59375 17.96875 6.59375 36.375 
Q 6.59375 54.828125 13.0625 64.515625 
Q 19.53125 74.21875 31.78125 74.21875 
z
" id="DejaVuSans-48"/>
      </defs>
      <g transform="translate(60.234406 322.182437)scale(0.1 -0.1)">
       <use xlink:href="#DejaVuSans-8722"/>
       <use x="83.789062" xlink:href="#DejaVuSans-49"/>
       <use x="147.412109" xlink:href="#DejaVuSans-48"/>
       <use x="211.035156" xlink:href="#DejaVuSans-48"/>
      </g>
     </g>
    </g>
    <g id="xtick_2">
     <g id="line2d_2">
      <g>
       <use style="stroke:#000000;stroke-width:0.8;" x="123.568" xlink:href="#m440fb80a88" y="307.584"/>
      </g>
     </g>
     <g id="text_2">
      <!-- 0 -->
      <g transform="translate(120.38675 322.182437)scale(0.1 -0.1)">
       <use xlink:href="#DejaVuSans-48"/>
      </g>
     </g>
    </g>
    <g id="xtick_3">
     <g id="line2d_3">
      <g>
       <use style="stroke:#000000;stroke-width:0.8;" x="173.168" xlink:href="#m440fb80a88" y="307.584"/>
      </g>
     </g>
     <g id="text_3">
      <!-- 100 -->
      <g transform="translate(163.62425 322.182437)scale(0.1 -0.1)">
       <use xlink:href="#DejaVuSans-49"/>
       <use x="63.623047" xlink:href="#DejaVuSans-48"/>
       <use x="127.246094" xlink:href="#DejaVuSans-48"/>
      </g>
     </g>
    </g>
    <g id="xtick_4">
     <g id="line2d_4">
      <g>
       <use style="stroke:#000000;stroke-width:0.8;" x="222.768" xlink:href="#m440fb80a88" y="307.584"/>
      </g>
     </g>
     <g id="text_4">
      <!-- 200 -->
      <defs>
       <path d="M 19.1875 8.296875 
L 53.609375 8.296875 
L 53.609375 0 
L 7.328125 0 
L 7.328125 8.296875 
Q 12.9375 14.109375 22.625 23.890625 
Q 32.328125 33.6875 34.8125 36.53125 
Q 39.546875 41.84375 41.421875 45.53125 
Q 43.3125 49.21875 43.3125 52.78125 
Q 43.3125 58.59375 39.234375 62.25 
Q 35.15625 65.921875 28.609375 65.921875 
Q 23.96875 65.921875 18.8125 64.3125 
Q 13.671875 62.703125 7.8125 59.421875 
L 7.8125 69.390625 
Q 13.765625 71.78125 18.9375 73 
Q 24.125 74.21875 28.421875 74.21875 
Q 39.75 74.21875 46.484375 68.546875 
Q 53.21875 62.890625 53.21875 53.421875 
Q 53.21875 48.921875 51.53125 44.890625 
Q 49.859375 40.875 45.40625 35.40625 
Q 44.1875 33.984375 37.640625 27.21875 
Q 31.109375 20.453125 19.1875 8.296875 
z
" id="DejaVuSans-50"/>
      </defs>
      <g transform="translate(213.22425 322.182437)scale(0.1 -0.1)">
       <use xlink:href="#DejaVuSans-50"/>
       <use x="63.623047" xlink:href="#DejaVuSans-48"/>
       <use x="127.246094" xlink:href="#DejaVuSans-48"/>
      </g>
     </g>
    </g>
    <g id="xtick_5">
     <g id="line2d_5">
      <g>
       <use style="stroke:#000000;stroke-width:0.8;" x="272.368" xlink:href="#m440fb80a88" y="307.584"/>
      </g>
     </g>
     <g id="text_5">
      <!-- 300 -->
      <defs>
       <path d="M 40.578125 39.3125 
Q 47.65625 37.796875 51.625 33 
Q 55.609375 28.21875 55.609375 21.1875 
Q 55.609375 10.40625 48.1875 4.484375 
Q 40.765625 -1.421875 27.09375 -1.421875 
Q 22.515625 -1.421875 17.65625 -0.515625 
Q 12.796875 0.390625 7.625 2.203125 
L 7.625 11.71875 
Q 11.71875 9.328125 16.59375 8.109375 
Q 21.484375 6.890625 26.8125 6.890625 
Q 36.078125 6.890625 40.9375 10.546875 
Q 45.796875 14.203125 45.796875 21.1875 
Q 45.796875 27.640625 41.28125 31.265625 
Q 36.765625 34.90625 28.71875 34.90625 
L 20.21875 34.90625 
L 20.21875 43.015625 
L 29.109375 43.015625 
Q 36.375 43.015625 40.234375 45.921875 
Q 44.09375 48.828125 44.09375 54.296875 
Q 44.09375 59.90625 40.109375 62.90625 
Q 36.140625 65.921875 28.71875 65.921875 
Q 24.65625 65.921875 20.015625 65.03125 
Q 15.375 64.15625 9.8125 62.3125 
L 9.8125 71.09375 
Q 15.4375 72.65625 20.34375 73.4375 
Q 25.25 74.21875 29.59375 74.21875 
Q 40.828125 74.21875 47.359375 69.109375 
Q 53.90625 64.015625 53.90625 55.328125 
Q 53.90625 49.265625 50.4375 45.09375 
Q 46.96875 40.921875 40.578125 39.3125 
z
" id="DejaVuSans-51"/>
      </defs>
      <g transform="translate(262.82425 322.182437)scale(0.1 -0.1)">
       <use xlink:href="#DejaVuSans-51"/>
       <use x="63.623047" xlink:href="#DejaVuSans-48"/>
       <use x="127.246094" xlink:href="#DejaVuSans-48"/>
      </g>
     </g>
    </g>
    <g id="xtick_6">
     <g id="line2d_6">
      <g>
       <use style="stroke:#000000;stroke-width:0.8;" x="321.968" xlink:href="#m440fb80a88" y="307.584"/>
      </g>
     </g>
     <g id="text_6">
      <!-- 400 -->
      <defs>
       <path d="M 37.796875 64.3125 
L 12.890625 25.390625 
L 37.796875 25.390625 
z
M 35.203125 72.90625 
L 47.609375 72.90625 
L 47.609375 25.390625 
L 58.015625 25.390625 
L 58.015625 17.1875 
L 47.609375 17.1875 
L 47.609375 0 
L 37.796875 0 
L 37.796875 17.1875 
L 4.890625 17.1875 
L 4.890625 26.703125 
z
" id="DejaVuSans-52"/>
      </defs>
      <g transform="translate(312.42425 322.182437)scale(0.1 -0.1)">
       <use xlink:href="#DejaVuSans-52"/>
       <use x="63.623047" xlink:href="#DejaVuSans-48"/>
       <use x="127.246094" xlink:href="#DejaVuSans-48"/>
      </g>
     </g>
    </g>
    <g id="xtick_7">
     <g id="line2d_7">
      <g>
       <use style="stroke:#000000;stroke-width:0.8;" x="371.568" xlink:href="#m440fb80a88" y="307.584"/>
      </g>
     </g>
     <g id="text_7">
      <!-- 500 -->
      <defs>
       <path d="M 10.796875 72.90625 
L 49.515625 72.90625 
L 49.515625 64.59375 
L 19.828125 64.59375 
L 19.828125 46.734375 
Q 21.96875 47.46875 24.109375 47.828125 
Q 26.265625 48.1875 28.421875 48.1875 
Q 40.625 48.1875 47.75 41.5 
Q 54.890625 34.8125 54.890625 23.390625 
Q 54.890625 11.625 47.5625 5.09375 
Q 40.234375 -1.421875 26.90625 -1.421875 
Q 22.3125 -1.421875 17.546875 -0.640625 
Q 12.796875 0.140625 7.71875 1.703125 
L 7.71875 11.625 
Q 12.109375 9.234375 16.796875 8.0625 
Q 21.484375 6.890625 26.703125 6.890625 
Q 35.15625 6.890625 40.078125 11.328125 
Q 45.015625 15.765625 45.015625 23.390625 
Q 45.015625 31 40.078125 35.4375 
Q 35.15625 39.890625 26.703125 39.890625 
Q 22.75 39.890625 18.8125 39.015625 
Q 14.890625 38.140625 10.796875 36.28125 
z
" id="DejaVuSans-53"/>
      </defs>
      <g transform="translate(362.02425 322.182437)scale(0.1 -0.1)">
       <use xlink:href="#DejaVuSans-53"/>
       <use x="63.623047" xlink:href="#DejaVuSans-48"/>
       <use x="127.246094" xlink:href="#DejaVuSans-48"/>
      </g>
     </g>
    </g>
   </g>
   <g id="matplotlib.axis_2">
    <g id="ytick_1">
     <g id="line2d_8">
      <defs>
       <path d="M 0 0 
L -3.5 0 
" id="m2ff4e18223" style="stroke:#000000;stroke-width:0.8;"/>
      </defs>
      <g>
       <use style="stroke:#000000;stroke-width:0.8;" x="57.6" xlink:href="#m2ff4e18223" y="284.4"/>
      </g>
     </g>
     <g id="text_8">
      <!-- 0 -->
      <g transform="translate(44.2375 288.199219)scale(0.1 -0.1)">
       <use xlink:href="#DejaVuSans-48"/>
      </g>
     </g>
    </g>
    <g id="ytick_2">
     <g id="line2d_9">
      <g>
       <use style="stroke:#000000;stroke-width:0.8;" x="57.6" xlink:href="#m2ff4e18223" y="234"/>
      </g>
     </g>
     <g id="text_9">
      <!-- 100 -->
      <g transform="translate(31.5125 237.799219)scale(0.1 -0.1)">
       <use xlink:href="#DejaVuSans-49"/>
       <use x="63.623047" xlink:href="#DejaVuSans-48"/>
       <use x="127.246094" xlink:href="#DejaVuSans-48"/>
      </g>
     </g>
    </g>
    <g id="ytick_3">
     <g id="line2d_10">
      <g>
       <use style="stroke:#000000;stroke-width:0.8;" x="57.6" xlink:href="#m2ff4e18223" y="183.6"/>
      </g>
     </g>
     <g id="text_10">
      <!-- 200 -->
      <g transform="translate(31.5125 187.399219)scale(0.1 -0.1)">
       <use xlink:href="#DejaVuSans-50"/>
       <use x="63.623047" xlink:href="#DejaVuSans-48"/>
       <use x="127.246094" xlink:href="#DejaVuSans-48"/>
      </g>
     </g>
    </g>
    <g id="ytick_4">
     <g id="line2d_11">
      <g>
       <use style="stroke:#000000;stroke-width:0.8;" x="57.6" xlink:href="#m2ff4e18223" y="133.2"/>
      </g>
     </g>
     <g id="text_11">
      <!-- 300 -->
      <g transform="translate(31.5125 136.999219)scale(0.1 -0.1)">
       <use xlink:href="#DejaVuSans-51"/>
       <use x="63.623047" xlink:href="#DejaVuSans-48"/>
       <use x="127.246094" xlink:href="#DejaVuSans-48"/>
      </g>
     </g>
    </g>
    <g id="ytick_5">
     <g id="line2d_12">
      <g>
       <use style="stroke:#000000;stroke-width:0.8;" x="57.6" xlink:href="#m2ff4e18223" y="82.8"/>
      </g>
     </g>
     <g id="text_12">
      <!-- 400 -->
      <g transform="translate(31.5125 86.599219)scale(0.1 -0.1)">
       <use xlink:href="#DejaVuSans-52"/>
       <use x="63.623047" xlink:href="#DejaVuSans-48"/>
       <use x="127.246094" xlink:href="#DejaVuSans-48"/>
      </g>
     </g>
    </g>
   </g>
   <g id="line2d_13">
    <path clip-path="url(#p279fb558f7)" d="M 123.568 284.4 
L 123.734967 284.17726 
L 124.006992 284.347688 
L 124.362552 284.492841 
L 124.573315 284.452838 
L 124.564711 284.435184 
L 124.670293 284.406378 
L 124.961511 284.304473 
L 125.169556 284.146005 
L 125.168719 284.158857 
L 125.332546 284.29821 
L 125.411066 284.408329 
L 125.456304 284.369095 
L 125.824164 284.384964 
L 126.115242 284.431582 
L 126.585464 284.15141 
L 126.593562 284.208163 
L 126.696895 284.288578 
L 126.695445 284.273936 
L 126.989291 284.408412 
L 127.099313 284.497274 
L 127.282852 284.544949 
L 127.742393 284.358493 
L 127.839527 284.383255 
L 127.827404 284.362195 
L 128.070633 284.353628 
L 128.068256 284.384039 
L 128.271488 284.534323 
L 128.463373 284.582772 
L 128.793478 284.70096 
L 128.781745 284.671647 
L 128.893099 284.67242 
L 129.150525 284.617841 
L 129.134069 284.616854 
L 129.382744 284.455745 
L 129.38795 284.590372 
L 129.609854 284.721464 
L 129.710598 284.845425 
L 130.511195 284.936065 
L 130.501018 284.96216 
L 130.8571 284.84615 
L 130.853784 284.877153 
L 131.024428 285.193222 
L 131.534194 285.342616 
L 131.698876 285.414417 
L 131.946362 285.285775 
L 131.947645 285.335298 
L 132.054652 285.225977 
L 132.64115 285.737485 
L 132.620558 285.747085 
L 132.850098 285.863541 
L 132.854867 285.822467 
L 133.515984 285.860762 
L 133.626787 285.71907 
L 133.637376 285.77943 
L 133.751411 285.962213 
L 133.842917 286.12798 
L 133.849223 286.124921 
L 134.127902 286.367025 
L 135.161881 286.531434 
L 135.152348 286.551773 
L 135.184345 286.672538 
L 135.779744 287.172674 
L 135.796337 287.141868 
L 135.944623 287.175193 
L 136.296779 287.248276 
L 136.44909 287.145544 
L 136.433159 287.19961 
L 136.641077 287.296299 
L 136.592959 287.331094 
L 136.680072 287.618872 
L 136.703346 287.612352 
L 137.322965 288.090506 
L 137.478603 288.109404 
L 137.675205 288.046731 
L 137.806245 287.986009 
L 137.972681 288.065648 
L 137.935467 288.052768 
L 138.18753 288.43288 
L 138.632789 289.050641 
L 138.669978 289.016982 
L 138.895397 288.998498 
L 139.127436 289.080589 
L 139.135326 289.051571 
L 139.230703 289.086495 
L 139.241706 289.158027 
L 139.328771 289.140708 
L 139.452467 289.089303 
L 139.423682 289.076595 
L 139.492828 289.041146 
L 139.461754 289.11741 
L 139.514421 289.130522 
L 139.692919 289.646386 
L 139.701602 289.617467 
L 139.778219 289.822019 
L 139.966507 289.951931 
L 140.292545 290.167843 
L 140.753859 290.280022 
L 140.992448 290.22813 
L 140.968963 290.231044 
L 141.004408 290.433414 
L 140.914423 290.409325 
L 141.074258 290.56534 
L 141.250366 291.175099 
L 141.560171 291.340483 
L 141.743177 291.476076 
L 141.869799 291.539472 
L 142.618523 291.775124 
L 142.544131 291.900607 
L 142.456968 292.205343 
L 142.504009 292.194748 
L 143.274086 293.148404 
L 143.243443 293.125877 
L 143.8525 293.234839 
L 143.817335 293.276714 
L 143.940905 293.283486 
L 144.033862 293.328604 
L 144.080626 293.318933 
L 144.115312 293.779075 
L 144.183026 293.852696 
L 144.299768 294.488741 
L 144.545417 294.689501 
L 144.541915 294.720555 
L 144.573987 294.716824 
L 144.674115 294.70555 
L 144.674268 294.759051 
L 144.764723 294.828902 
L 145.031558 294.935954 
L 145.027396 294.943651 
L 145.278019 295.126795 
L 145.313771 295.113216 
L 145.338775 295.166195 
L 145.609233 295.191542 
L 145.596928 295.075844 
L 145.820319 296.419695 
L 146.329416 296.921409 
L 146.318984 297.022984 
L 146.4281 297.004047 
L 146.585436 297.119448 
L 146.580233 297.047945 
L 147.201544 297.295835 
L 147.19778 297.288043 
L 147.154587 297.304467 
L 147.299613 297.360295 
L 147.125992 297.463157 
L 147.115981 297.42365 
L 147.163488 297.533288 
L 147.201624 297.493472 
L 147.276693 297.594808 
L 147.234986 297.614067 
L 147.283955 297.736294 
L 147.27551 297.86588 
L 147.183343 297.944617 
L 147.247484 298.123112 
L 147.360764 298.71468 
L 147.525059 298.856756 
L 147.499914 298.847446 
L 147.565626 299.005227 
L 147.782779 299.115153 
L 148.235284 299.537768 
L 148.389521 299.643146 
L 148.312656 299.704781 
L 148.408697 299.708789 
L 148.536625 299.83269 
L 148.579023 299.760648 
L 148.623452 299.854613 
L 148.641472 299.726628 
L 148.724658 299.662175 
L 148.676754 299.831109 
L 148.764021 299.768833 
L 148.778454 299.729635 
L 148.804281 299.897457 
L 148.933929 299.878812 
L 148.904871 299.936072 
L 149.065891 300.184295 
L 148.941539 300.146585 
L 148.728981 300.656788 
L 148.77285 300.673127 
L 148.811149 300.878288 
L 148.779137 300.952676 
L 148.844771 300.939194 
L 149.05542 301.225586 
L 148.989831 301.315024 
L 149.066979 301.37118 
L 149.179159 301.481297 
L 149.075259 301.635198 
L 149.105896 301.625603 
L 149.273602 301.859987 
L 149.303326 302.203451 
L 149.399994 302.151329 
L 149.472326 302.340403 
L 149.434451 302.352244 
L 149.473208 302.461143 
L 150.050347 302.617387 
L 150.062428 302.559759 
L 150.126763 302.604632 
L 150.363567 302.659754 
L 150.424603 302.605871 
L 150.395418 302.698176 
L 150.682383 303.074606 
L 150.62304 303.023837 
L 150.510844 303.271426 
L 150.528341 303.287952 
L 150.487539 303.304784 
L 150.649854 303.785678 
L 150.737883 303.778058 
L 150.62997 304.388872 
L 150.625908 304.656383 
L 150.560911 304.846369 
L 150.697467 304.915634 
L 150.691316 305.072673 
L 150.75145 305.056368 
L 151.092942 305.630856 
L 151.09773 305.601736 
L 151.354782 305.718032 
L 151.651065 306.140191 
L 151.95417 306.397797 
L 152.047049 306.544562 
L 152.08444 306.511304 
L 152.48393 306.66069 
L 152.584432 306.618726 
L 152.51477 306.464463 
L 152.66478 306.705705 
L 152.462551 306.653442 
L 152.578455 306.754229 
L 152.512128 306.883858 
L 152.466793 306.858025 
L 152.374424 306.767958 
L 152.417032 306.869317 
L 152.505141 307.092502 
L 152.174271 307.328794 
L 152.209406 307.287676 
L 152.31498 307.74895 
L 152.228648 307.718081 
L 152.301411 307.743999 
L 152.275535 307.887963 
L 152.130722 308.067296 
L 152.393568 308.620264 
L 152.322262 308.626652 
L 152.33135 308.839505 
L 152.444871 308.904511 
L 152.512715 309.594843 
L 152.705583 309.628432 
L 152.870485 309.913258 
L 152.804955 309.924714 
L 152.896502 309.951103 
L 152.914229 310.156821 
L 153.100174 310.126747 
L 153.050611 310.213893 
L 153.084435 310.373981 
L 153.130771 310.473074 
L 153.491324 310.699344 
L 153.455409 310.804647 
L 153.54823 310.771138 
L 153.753739 310.670781 
L 154.127541 311.271601 
L 154.20376 311.199297 
L 154.434568 311.021044 
L 154.486977 311.110067 
L 154.331943 311.274306 
L 154.385928 311.250419 
L 154.495071 311.343671 
L 154.469788 311.332983 
L 154.375752 311.441756 
L 154.219265 311.40466 
L 154.363388 311.581575 
L 154.273389 311.556957 
L 154.20982 311.641915 
L 154.26078 311.653982 
L 154.391651 312.017274 
L 154.052162 312.452792 
L 154.199236 312.580321 
L 154.160105 312.781251 
L 154.055363 312.809708 
L 154.123081 312.818787 
L 153.8805 313.504643 
L 154.090237 313.82641 
L 154.006109 314.173272 
L 154.116602 314.243307 
L 153.988815 314.315694 
L 154.208418 314.28714 
L 154.11618 314.663605 
L 154.537281 314.968854 
L 154.555835 314.880751 
L 154.415992 314.997491 
L 154.541984 315.043486 
L 154.614363 315.432908 
L 154.587787 315.383875 
L 154.981448 315.553961 
L 154.904939 315.677625 
L 155.026205 315.917345 
L 155.372734 316.780022 
L 155.514053 316.775417 
L 155.923049 316.849129 
L 155.958469 317.101945 
L 155.731647 316.960122 
L 155.887351 316.9733 
L 155.901109 317.295516 
L 156.036598 317.134547 
L 156.385808 317.29399 
L 156.289321 317.275717 
L 156.428596 317.149039 
L 156.378561 317.212314 
L 156.341647 317.128269 
L 156.427904 317.383589 
L 156.380715 317.379443 
L 156.672693 317.395018 
L 156.818935 317.592676 
L 156.601642 317.755577 
L 156.831644 317.743561 
L 157.027582 317.568421 
L 157.000694 317.92591 
L 156.840074 318.185315 
L 156.477097 318.282872 
L 156.364196 318.561953 
L 156.48566 318.505419 
L 156.25089 318.491367 
L 155.731388 319.183343 
L 155.726014 319.472641 
L 155.581301 319.342659 
L 155.925277 319.531774 
L 155.964473 320.091318 
L 155.981865 320.239909 
L 155.768594 320.393004 
L 156.160615 321.382025 
L 156.016744 321.434816 
L 156.338716 321.491657 
L 156.325565 321.721002 
L 156.124005 321.858549 
L 156.383338 322.105372 
L 156.293558 322.367201 
L 156.340399 322.769922 
L 156.191502 322.584007 
L 156.459642 322.756579 
L 156.463532 323.533297 
L 156.318743 323.572043 
L 156.418769 323.85205 
L 156.644186 323.853317 
L 156.647523 324.127611 
L 156.485049 324.442145 
L 156.833431 324.462793 
L 157.011945 324.961101 
L 157.22203 324.792709 
L 157.491514 325.19253 
L 157.731003 325.564101 
L 158.059366 325.442961 
L 158.108598 325.554174 
L 158.413719 325.512326 
L 158.301413 325.718572 
L 158.562483 325.84476 
L 158.569478 325.781327 
L 158.727752 325.713893 
L 158.768584 326.387373 
L 159.074487 326.889984 
L 159.197081 326.53072 
L 159.036556 326.665609 
L 159.227849 326.842677 
L 159.346206 327.626445 
L 159.225775 327.449028 
L 159.661014 327.547254 
L 159.557374 327.809613 
L 159.222941 327.389436 
L 159.550526 327.276681 
L 159.3999 327.09819 
L 159.188949 327.466801 
L 159.258224 327.369336 
L 159.542467 327.760075 
L 159.211808 327.995464 
L 158.896659 327.364036 
L 158.951691 327.939674 
L 158.68274 328.25251 
L 158.993823 328.271601 
L 158.822604 328.567016 
L 158.472119 328.539323 
L 158.826076 328.559617 
L 158.129023 330.245758 
L 158.244259 330.889731 
L 158.05719 330.901848 
L 158.61598 331.152307 
L 158.643134 331.359655 
L 157.779382 331.663182 
L 157.465612 332.301198 
L 157.602187 333.041341 
L 157.606533 333.415413 
L 157.349629 333.686063 
L 157.548653 334.017095 
L 157.418911 334.34583 
L 157.712256 335.100202 
L 157.224359 335.867451 
L 157.400133 336.155982 
L 158.559964 336.908852 
L 158.487659 337.368872 
L 158.318829 337.192134 
L 158.575823 337.784618 
L 159.110574 338.221692 
L 159.337033 339.002095 
L 159.71264 339.11894 
L 160.076072 338.898419 
L 160.260014 339.024444 
L 160.305146 339.541142 
L 160.163366 339.732768 
L 160.691187 340.179037 
L 160.658581 340.781805 
L 160.219591 340.596283 
L 160.18763 340.856596 
L 160.770854 341.187608 
L 160.798439 341.67091 
L 160.921671 341.784137 
L 161.622248 341.651378 
L 161.684954 341.431072 
L 161.503793 342.357224 
L 160.959884 342.025402 
L 160.962828 342.483815 
L 161.402867 342.82902 
L 161.310088 343.627589 
L 161.029301 343.210816 
L 161.629195 342.789252 
L 162.219998 343.138087 
L 162.534463 343.028881 
L 162.798675 343.313446 
L 163.243226 343.466556 
L 163.13936 343.455037 
L 162.650626 343.520942 
L 162.71676 343.76424 
L 162.915684 343.675993 
L 162.980894 343.472719 
L 164.180174 343.732195 
L 163.473439 343.843892 
L 163.247777 344.46307 
L 162.591927 343.961747 
L 163.176586 344.634666 
L 162.588715 345.778514 
L 162.310441 345.507867 
L 161.138266 346.255073 
L 161.286312 346.6 
M 285.131391 346.6 
L 285.108083 304.611665 
L 285.631173 307.665075 
L 282.736403 319.671816 
L 280.732934 324.115253 
L 280.239105 322.73575 
L 282.730327 327.257727 
L 285.931307 331.178401 
L 284.666605 329.204673 
L 285.142142 321.035429 
L 282.620584 318.811644 
L 277.004469 319.549533 
L 278.962917 317.609014 
L 279.910047 320.638096 
L 280.544379 321.84214 
L 282.673568 318.042188 
L 284.582284 320.775109 
L 284.595927 321.329033 
L 283.144606 319.606166 
L 282.548548 319.489177 
L 283.805349 319.596077 
L 285.620507 317.523841 
L 286.321459 317.589404 
L 286.109116 316.477366 
L 286.62775 317.935177 
L 286.334201 318.696878 
L 285.712387 317.80554 
L 286.912235 315.134977 
L 287.050172 315.58215 
L 286.060807 314.795532 
L 286.065436 316.21168 
L 286.342899 315.468706 
L 286.866261 314.602866 
L 287.227891 314.447419 
L 287.602267 313.786283 
L 286.70725 312.801923 
L 286.542003 312.392904 
L 286.796069 312.150584 
L 288.105109 310.403541 
L 288.626448 310.917798 
L 288.434273 310.463091 
L 289.202842 309.016806 
L 290.582864 309.145443 
L 289.785841 307.288919 
L 290.990683 306.245448 
L 291.924253 304.907694 
L 291.554837 304.840511 
L 291.166613 303.966463 
L 291.376555 303.16929 
L 291.908425 302.410085 
L 292.757842 302.226042 
L 292.265383 301.181818 
L 292.923756 299.640166 
L 292.676932 300.002437 
L 292.038363 299.392162 
L 291.7968 298.366037 
L 292.322312 298.157542 
L 292.771419 297.382148 
L 291.238958 297.253913 
L 291.707506 296.629499 
L 291.430992 296.411573 
L 291.141593 294.907866 
L 291.442055 293.320811 
L 291.220287 293.683361 
L 290.020512 293.415618 
L 290.196247 292.496564 
L 290.097776 292.397695 
L 290.177108 291.093994 
L 289.766656 290.032681 
L 289.579209 289.990351 
L 289.490429 289.380035 
L 289.033059 288.124217 
L 288.98087 287.525264 
L 288.253747 287.359243 
L 288.194733 287.587783 
L 287.979002 287.348775 
L 287.685303 286.857489 
L 287.615387 286.493602 
L 287.822227 285.721087 
L 287.25525 286.599291 
L 287.217012 286.769446 
L 287.104369 286.564284 
L 286.918611 286.550297 
L 286.811781 285.931509 
L 286.559273 286.098997 
L 286.468145 285.722778 
L 286.263364 285.864255 
L 286.422972 285.585498 
L 286.750599 285.5276 
L 286.655208 285.690771 
L 286.335828 284.498095 
L 286.309922 284.16133 
L 286.398551 284.343621 
L 285.893069 284.38451 
L 286.026536 284.42496 
L 286.244064 284.096193 
L 286.537619 284.37307 
L 286.2869 283.831514 
L 286.541721 283.64742 
L 287.048739 283.625066 
L 287.009232 283.485888 
L 287.454661 282.993017 
L 287.342146 283.062436 
L 287.947327 283.109348 
L 288.228358 282.459538 
L 288.252665 282.054604 
L 288.376114 281.904849 
L 288.624118 282.313186 
L 288.521809 281.890698 
L 289.213522 281.489244 
L 288.81349 280.74593 
L 288.770231 279.981662 
L 288.682872 279.562793 
L 289.116134 279.035682 
L 289.222017 278.752835 
L 289.131409 278.213231 
L 288.713888 277.739839 
L 289.101635 277.566428 
L 288.982242 277.448881 
L 289.565558 276.838384 
L 289.417765 276.763542 
L 289.418829 276.197195 
L 289.477495 275.681076 
L 289.143881 275.262859 
L 289.13122 274.997727 
L 289.288239 274.706248 
L 289.235068 274.846339 
L 289.029009 274.552063 
L 288.823023 274.442494 
L 288.25962 273.903488 
L 288.231143 274.041948 
L 288.100308 273.778747 
L 288.157418 273.475784 
L 287.635686 273.452642 
L 287.557081 273.210478 
L 287.776888 273.284141 
L 287.383291 272.941268 
L 287.7395 272.524692 
L 287.237072 272.250869 
L 287.515521 272.42695 
L 287.579774 272.13366 
L 287.723991 272.009749 
L 287.644273 272.160387 
L 287.652105 272.286518 
L 287.38512 272.188509 
L 287.712262 272.115806 
L 287.683217 272.274171 
L 287.533659 272.279294 
L 287.826782 272.167838 
L 287.976583 272.428132 
L 288.109034 272.328126 
L 288.05408 272.164259 
L 288.269793 271.889085 
L 288.121467 271.965207 
L 288.152202 271.716965 
L 288.424167 271.706921 
L 288.689435 271.021647 
L 288.757168 271.090533 
L 288.768499 271.00497 
L 288.902802 270.044779 
L 289.108754 269.803494 
L 289.245526 269.972759 
L 289.233068 269.783066 
L 289.228834 269.405399 
L 289.396907 269.448223 
L 289.462206 269.336792 
L 289.569481 269.418252 
L 289.762622 269.045208 
L 289.687732 268.775572 
L 289.823135 268.000773 
L 289.63241 267.954271 
L 289.518629 267.781463 
L 289.741673 267.392904 
L 289.174339 266.361844 
L 289.33071 266.315128 
L 289.143579 266.304947 
L 288.93612 265.944587 
L 289.034252 265.836657 
L 288.994762 265.870773 
L 289.039316 265.576004 
L 289.216153 265.448639 
L 289.108166 265.505108 
L 288.85591 265.358314 
L 289.103437 265.177636 
L 288.939254 265.190405 
L 288.73913 264.89264 
L 288.685407 264.93983 
L 288.830722 264.736859 
L 288.672315 264.780781 
L 288.265347 264.593689 
L 288.178367 264.685373 
L 288.437141 264.557979 
L 288.473414 264.551732 
L 288.443065 264.284232 
L 288.478463 264.337995 
L 288.913402 264.141031 
L 288.820803 263.94895 
L 289.109534 263.756609 
L 289.176669 263.685531 
L 289.251254 263.770462 
L 289.169698 263.543938 
L 289.590877 263.534854 
L 289.536941 263.509297 
L 289.420177 263.296348 
L 289.529078 263.304928 
L 289.605934 263.125073 
L 289.802943 262.861001 
L 289.787318 262.870494 
L 289.668195 262.618384 
L 289.885288 262.508985 
L 290.093906 261.364247 
L 290.189356 261.271954 
L 289.912305 261.129561 
L 290.005455 260.915848 
L 289.971135 260.656063 
L 290.150305 260.501109 
L 290.111605 260.591665 
L 289.930152 259.897483 
L 290.012708 259.817809 
L 289.903206 259.786397 
L 289.600128 259.325938 
L 289.651147 259.22035 
L 289.331817 258.864816 
L 289.401687 258.857114 
L 289.496999 258.763514 
L 289.408191 258.904326 
L 289.591646 258.919338 
L 289.57225 258.762279 
L 289.887961 258.357025 
L 289.87095 258.375688 
L 289.938961 258.295361 
L 290.053749 258.223031 
L 290.014788 258.167063 
L 290.064699 258.025021 
L 290.217125 258.047459 
L 290.203462 258.015789 
L 290.793625 257.419989 
L 290.767092 257.302867 
L 290.957924 256.626464 
L 290.816938 255.986771 
L 290.909602 255.982814 
L 290.895712 255.506662 
L 290.85108 255.312928 
L 290.859961 255.103286 
L 290.759777 254.685649 
L 290.713887 254.735115 
L 290.636451 254.793904 
L 290.653844 254.727364 
L 290.521214 254.555577 
L 290.602982 254.000383 
L 290.649812 254.256001 
L 290.74498 254.047129 
L 290.998684 254.009927 
L 291.125773 254.00822 
L 291.074796 253.930084 
L 291.130966 253.792162 
L 291.408639 253.717498 
L 291.531919 253.489553 
L 291.530225 252.94475 
L 291.698008 252.906189 
L 291.664069 252.72334 
L 291.963398 252.318133 
L 291.850405 252.114145 
L 292.000365 252.067923 
L 291.989593 251.557776 
L 291.75043 251.389113 
L 291.634174 250.887718 
L 291.721976 250.524736 
L 291.733865 250.570502 
L 291.642982 250.546553 
L 292.07974 250.55467 
L 292.088778 250.245213 
L 292.904931 249.492306 
L 292.892835 249.45964 
L 292.98812 249.100999 
L 292.876171 248.168375 
L 292.878756 248.169856 
L 292.983818 248.172301 
L 292.903357 248.105226 
L 292.936441 247.754299 
L 292.853381 247.752499 
L 292.761135 247.66649 
L 292.748459 247.596204 
L 292.859932 247.597742 
L 293.012613 247.55619 
L 293.275722 247.339121 
L 293.351819 247.341564 
L 293.324328 247.294781 
L 293.98588 246.43155 
L 293.995342 246.253946 
L 294.062009 246.256288 
L 294.036653 246.182551 
L 294.134444 245.788869 
L 294.11924 245.6125 
L 294.100079 245.590734 
L 294.122729 245.518022 
L 294.000866 245.01023 
L 294.108069 245.062621 
L 294.082521 244.991534 
L 294.118695 245.063957 
L 294.883232 244.502754 
L 295.001465 244.220601 
L 295.085827 244.160391 
L 295.097164 243.970092 
L 295.21305 243.677568 
L 295.196598 243.673032 
L 295.208101 243.476306 
L 295.314766 243.323678 
L 295.318792 243.186893 
L 295.150713 242.775374 
L 295.163274 242.782311 
L 295.241451 242.753089 
L 295.179313 242.685165 
L 295.31743 242.590462 
L 295.507563 242.576216 
L 295.586097 242.660809 
L 295.596904 242.622823 
L 295.963533 242.246346 
L 296.064961 242.029738 
L 296.209917 241.849784 
L 296.411116 241.563569 
L 296.481894 240.672148 
L 296.476189 240.715446 
L 296.468586 240.759568 
L 297.234836 240.215841 
L 297.289171 240.249863 
L 297.325274 240.172881 
L 297.39981 240.030518 
L 297.458908 240.00932 
L 297.402372 239.9426 
L 297.48875 239.6338 
L 297.568121 239.354335 
L 297.731583 239.191941 
L 297.677607 238.992813 
L 297.658154 239.008492 
L 297.618879 239.045185 
L 297.646652 238.920561 
L 297.636712 238.946512 
L 297.562603 238.887555 
L 297.653092 238.860113 
L 298.328733 238.655551 
L 298.498315 238.444485 
L 298.621401 238.278579 
L 298.848169 237.831424 
L 298.837145 237.55729 
L 299.044773 237.343781 
L 299.069846 237.246998 
L 299.156692 237.341095 
L 299.17961 237.267834 
L 299.264783 237.303091 
L 299.533988 237.1905 
L 299.677443 237.109871 
L 299.837686 236.876134 
L 299.934465 236.701486 
L 300.171146 236.189161 
L 300.131342 236.186307 
L 300.090848 236.056377 
L 300.256737 235.901279 
L 300.142049 236.107212 
L 300.278353 235.941554 
L 300.279558 235.962195 
L 300.287621 235.923527 
L 300.385677 235.940853 
L 300.476347 236.000779 
L 300.491759 235.973144 
L 300.732197 235.855819 
L 300.852731 235.75025 
L 300.976663 235.620184 
L 301.31928 235.144708 
L 301.293564 235.157001 
L 301.457329 234.725581 
L 301.550591 234.795649 
L 301.701659 234.728358 
L 301.687145 234.70908 
L 301.782697 234.701617 
L 302.042659 234.583323 
L 302.054081 234.649883 
L 302.125946 234.587949 
L 302.316933 234.503683 
L 302.308092 234.496233 
L 302.444592 234.31242 
L 302.500492 234.128453 
L 302.731856 233.720422 
L 302.732903 233.725724 
L 302.622051 233.687671 
L 302.980563 233.665168 
L 302.96059 233.677571 
L 303.030478 233.618265 
L 303.077023 233.652485 
L 303.175509 233.658641 
L 303.182306 233.633317 
L 303.544674 233.452897 
L 303.84901 233.149271 
L 303.835448 233.159687 
L 303.9487 232.889572 
L 303.936016 232.743897 
L 303.942349 232.675839 
L 303.994953 232.767842 
L 304.011524 232.738746 
L 304.175459 232.737109 
L 304.154281 232.689555 
L 304.891461 232.490938 
L 304.861274 232.505995 
L 305.251284 232.079918 
L 305.29227 232.108245 
L 305.269799 231.98183 
L 305.222489 231.959689 
L 305.566636 231.908784 
L 305.658066 231.95002 
L 306.131244 231.708696 
L 306.326968 231.654461 
L 306.425345 231.473061 
L 306.665884 231.088824 
L 306.711279 231.179006 
L 307.018324 231.15299 
L 307.007507 231.132767 
L 307.432309 231.100628 
L 307.901215 230.598224 
L 307.890061 230.433844 
L 307.922618 230.459489 
L 308.210677 230.562168 
L 308.208024 230.539897 
L 308.33767 230.550902 
L 308.329827 230.552262 
L 308.797292 230.410359 
L 309.012601 230.274514 
L 309.088741 230.135152 
L 309.445235 229.957199 
L 310.131145 229.963149 
L 310.132619 229.931436 
L 310.289881 229.83542 
L 310.528845 229.669853 
L 310.565561 229.522223 
L 310.637649 229.526672 
L 310.701759 229.49209 
L 310.633957 229.463933 
L 310.710419 229.481624 
L 310.856359 229.621536 
L 310.856964 229.616564 
L 310.991413 229.645162 
L 311.134139 229.61153 
L 311.70417 229.511984 
L 311.964657 229.180805 
L 312.716007 229.367331 
L 312.821502 229.318449 
L 312.940494 229.259094 
L 313.219436 229.06908 
L 313.314357 228.988577 
L 313.291239 228.977891 
L 313.376203 228.889762 
L 313.413365 228.957237 
L 313.804262 229.116004 
L 314.348766 229.045316 
L 314.528342 228.968942 
L 314.528 228.96 
" style="fill:none;stroke:#0000ff;stroke-linecap:square;stroke-opacity:0.5;stroke-width:1.5;"/>
   </g>
   <g id="line2d_14">
    <path clip-path="url(#p279fb558f7)" d="M 183.584 241.056 
L 183.584 240.552 
L 183.088 240.048 
L 183.088 238.536 
L 183.584 238.032 
L 183.584 237.528 
L 184.08 237.024 
L 184.08 236.52 
L 185.072 236.52 
L 185.568 236.016 
L 189.04 236.016 
L 191.024 234 
L 191.024 233.496 
L 191.52 232.992 
L 191.52 231.984 
L 192.016 231.48 
L 192.016 229.968 
L 192.512 229.464 
L 192.512 226.944 
L 193.008 226.44 
L 193.008 221.4 
L 192.512 220.896 
L 192.512 217.368 
L 193.008 216.864 
L 193.008 214.848 
L 192.512 214.344 
L 192.512 212.328 
L 192.016 211.824 
L 192.016 209.808 
L 191.52 209.304 
L 191.52 207.288 
L 191.024 206.784 
L 191.024 204.768 
L 190.528 204.264 
L 190.528 202.248 
L 190.032 201.744 
L 190.032 199.728 
L 189.536 199.224 
L 189.536 197.208 
L 189.04 196.704 
L 189.04 194.688 
L 188.544 194.184 
L 188.544 192.672 
L 188.048 192.168 
L 188.048 190.152 
L 187.552 189.648 
L 187.552 187.632 
L 188.048 187.128 
L 188.048 186.624 
L 187.056 187.128 
L 187.056 186.624 
L 192.016 216.864 
L 192.016 216.36 
L 192.016 215.352 
L 191.52 214.848 
L 191.52 212.832 
L 191.024 212.328 
L 191.024 210.312 
L 190.528 209.808 
L 190.528 207.792 
L 190.032 207.288 
L 190.032 205.272 
L 189.536 204.768 
L 189.536 202.752 
L 189.04 202.248 
L 189.04 200.232 
L 188.544 199.728 
L 188.544 197.712 
L 188.048 197.208 
L 188.048 195.192 
L 187.552 194.688 
L 187.552 192.672 
L 187.056 192.168 
L 187.056 190.152 
L 186.56 189.648 
L 186.56 188.136 
L 186.064 187.632 
L 186.064 185.616 
L 185.568 185.112 
L 185.568 183.096 
L 185.072 182.592 
L 185.072 180.576 
L 185.568 180.072 
L 185.568 179.064 
L 185.072 178.56 
L 185.072 177.552 
L 184.576 177.048 
L 184.576 176.04 
L 184.08 175.536 
L 184.08 174.528 
L 183.584 174.024 
L 183.584 172.512 
L 183.088 172.008 
L 183.088 170.496 
L 182.592 169.992 
L 182.592 168.48 
L 182.096 167.976 
L 182.096 166.464 
L 181.6 165.96 
L 181.6 163.44 
L 181.104 162.936 
L 181.104 160.92 
L 180.608 160.416 
L 180.608 157.392 
L 180.112 156.888 
L 180.112 154.368 
L 179.616 153.864 
L 179.616 151.344 
L 179.12 150.84 
L 179.12 149.328 
L 178.624 148.824 
L 178.624 147.816 
L 178.128 147.312 
L 178.128 145.8 
L 177.632 145.296 
L 177.632 144.792 
L 177.136 144.288 
L 177.136 143.28 
L 176.64 142.776 
L 176.64 142.272 
L 178.128 141.768 
L 178.128 141.264 
L 178.624 140.76 
L 178.624 140.256 
L 179.12 140.76 
L 179.616 140.76 
L 185.568 137.232 
L 183.584 136.224 
L 183.584 135.72 
L 183.088 135.216 
L 183.088 134.712 
L 182.592 134.712 
L 182.592 133.2 
L 183.088 132.696 
L 183.088 128.16 
L 183.584 127.656 
L 183.584 125.64 
L 184.08 125.136 
L 184.08 123.624 
L 184.576 123.12 
L 184.576 121.608 
L 185.072 121.104 
L 185.072 119.592 
L 185.568 119.088 
L 185.568 116.568 
L 185.072 116.064 
L 185.072 114.552 
L 184.576 114.048 
L 184.576 112.536 
L 185.072 112.536 
L 185.568 112.032 
L 190.528 112.032 
L 191.024 111.528 
L 191.52 111.528 
L 184.08 121.104 
L 184.08 119.088 
L 184.576 118.584 
L 184.576 117.072 
L 184.08 116.568 
L 184.08 114.552 
L 183.584 114.048 
L 183.584 113.544 
L 183.088 113.04 
L 183.088 112.032 
L 183.584 112.032 
L 183.584 111.528 
L 184.576 111.528 
L 185.072 111.024 
L 186.56 111.024 
L 186.56 109.512 
L 187.056 109.512 
L 187.056 108.504 
L 189.04 108.504 
L 187.552 109.512 
L 188.544 109.512 
L 187.056 111.024 
L 189.04 111.024 
L 189.04 110.016 
L 189.536 110.016 
L 189.536 109.008 
L 190.032 109.008 
L 190.032 110.016 
L 190.528 109.512 
L 191.52 109.512 
L 189.536 111.024 
L 190.032 111.024 
L 190.528 110.52 
L 191.024 110.52 
L 182.096 132.696 
L 182.096 127.656 
L 182.592 127.152 
L 182.592 125.136 
L 183.088 124.632 
L 183.088 123.12 
L 175.152 119.592 
L 175.152 119.088 
L 171.68 119.088 
L 171.68 118.08 
L 172.176 118.08 
L 172.176 117.576 
L 173.168 117.576 
L 173.664 117.072 
L 174.16 117.072 
L 172.176 119.088 
L 174.656 119.088 
L 175.648 119.592 
L 176.64 119.592 
L 176.64 118.584 
L 176.144 118.584 
L 176.144 118.08 
L 175.648 118.08 
L 175.648 117.576 
L 174.656 117.576 
L 175.152 117.576 
L 183.584 122.616 
L 183.584 121.608 
L 184.08 136.224 
L 185.072 136.728 
L 185.072 135.216 
L 184.576 135.216 
L 184.576 134.712 
L 184.08 134.712 
L 184.08 134.208 
L 183.584 133.704 
L 183.584 133.2 
L 185.568 135.72 
L 186.064 137.232 
L 186.064 136.224 
L 187.552 136.224 
L 188.048 135.72 
L 189.536 135.72 
L 190.032 135.216 
L 190.528 135.216 
L 190.528 134.712 
L 191.52 134.712 
L 191.52 134.208 
L 192.016 134.208 
L 192.512 133.704 
L 193.008 133.704 
L 193.008 133.2 
L 193.504 133.2 
L 194 132.696 
L 194.496 132.696 
L 194.496 132.192 
L 194.992 132.192 
L 195.984 131.184 
L 196.48 131.184 
L 196.48 130.68 
L 196.976 130.68 
L 196.976 130.176 
L 197.472 130.176 
L 197.472 129.672 
L 197.968 129.672 
L 197.968 129.168 
L 198.464 129.168 
L 198.464 128.664 
L 198.96 128.664 
L 198.96 128.16 
L 199.456 128.16 
L 199.456 127.656 
L 199.952 127.152 
L 200.448 127.152 
L 200.448 126.648 
L 200.944 126.648 
L 200.944 125.64 
L 201.44 125.64 
L 201.44 125.136 
L 201.936 124.632 
L 201.936 124.128 
L 202.432 123.624 
L 202.432 121.608 
L 201.936 121.104 
L 201.936 120.6 
L 201.44 120.096 
L 201.44 119.592 
L 200.944 119.592 
L 200.944 119.088 
L 200.448 118.584 
L 200.448 118.08 
L 199.952 118.08 
L 199.952 117.576 
L 199.456 117.576 
L 199.456 115.56 
L 198.96 115.56 
L 198.96 115.056 
L 198.464 115.056 
L 197.968 114.552 
L 199.952 116.064 
L 198.96 117.072 
L 197.968 116.064 
L 196.976 115.56 
L 196.976 113.544 
L 196.48 113.544 
L 197.472 114.048 
L 196.48 115.056 
L 195.488 114.552 
L 195.488 112.536 
L 194.992 112.536 
L 194.992 112.032 
L 194.496 112.032 
L 194.496 111.528 
L 194 111.528 
L 194 111.024 
L 193.008 111.024 
L 193.008 110.52 
L 192.512 110.52 
L 192.512 110.016 
L 192.016 110.016 
L 193.504 111.024 
L 195.984 113.04 
L 194.496 114.048 
L 194.496 113.544 
L 194 113.544 
L 191.024 112.536 
L 192.016 112.536 
L 193.008 113.04 
L 193.504 113.04 
L 194.992 114.048 
L 195.984 114.552 
L 197.472 115.56 
L 186.56 137.232 
L 188.048 137.232 
L 188.544 136.728 
L 189.536 136.728 
L 190.032 136.224 
L 191.024 136.224 
L 191.52 135.72 
L 192.016 135.72 
L 192.512 135.216 
L 193.008 135.216 
L 193.008 134.712 
L 193.504 134.712 
L 194 134.208 
L 194.496 134.208 
L 194.496 133.704 
L 194.992 133.704 
L 195.488 133.2 
L 195.984 133.2 
L 195.984 132.696 
L 196.48 132.696 
L 196.48 132.192 
L 196.976 132.192 
L 200.448 128.664 
L 200.448 128.16 
L 201.44 128.16 
L 178.624 141.768 
L 179.616 141.768 
L 179.616 141.264 
L 176.144 141.768 
L 176.144 141.264 
L 176.64 140.76 
L 176.64 139.248 
L 175.648 139.248 
L 176.144 139.248 
L 177.136 139.752 
L 177.632 139.752 
L 177.136 140.76 
L 177.632 140.256 
L 178.128 140.256 
L 177.136 141.264 
L 177.632 141.264 
L 184.576 180.072 
L 184.576 179.568 
L 184.08 179.064 
L 184.08 178.056 
L 183.584 177.552 
L 183.584 176.544 
L 183.088 176.04 
L 183.088 175.032 
L 182.592 174.528 
L 182.592 173.016 
L 182.096 172.512 
L 182.096 171 
L 181.6 170.496 
L 181.6 168.984 
L 181.104 168.48 
L 181.104 166.968 
L 180.608 166.464 
L 180.608 163.944 
L 180.112 163.44 
L 180.112 160.92 
L 179.616 160.416 
L 179.616 157.392 
L 179.12 156.888 
L 179.12 154.368 
L 178.624 153.864 
L 178.624 151.848 
L 178.128 151.344 
L 178.128 149.832 
L 177.632 149.328 
L 177.632 147.816 
L 177.136 147.312 
L 177.136 146.304 
L 176.64 145.8 
L 176.64 144.792 
L 176.144 144.288 
L 176.144 143.784 
L 175.648 143.28 
L 175.648 142.776 
L 175.152 142.272 
L 175.152 141.768 
L 174.656 141.264 
L 174.656 140.256 
L 174.16 140.256 
L 174.16 138.744 
L 175.152 138.744 
L 173.664 139.752 
L 171.68 139.248 
L 172.176 139.248 
L 172.176 138.24 
L 173.664 138.24 
L 172.672 139.248 
L 173.168 139.248 
L 156.304 139.248 
L 154.816 138.744 
L 153.824 138.24 
L 153.824 137.736 
L 153.328 137.736 
L 153.328 137.232 
L 152.336 136.728 
L 152.336 136.224 
L 151.84 136.224 
L 151.84 135.72 
L 151.344 135.72 
L 151.344 135.216 
L 150.848 135.216 
L 150.848 134.712 
L 150.352 134.712 
L 150.352 134.208 
L 149.856 133.704 
L 149.856 133.2 
L 149.36 133.2 
L 149.36 132.192 
L 149.856 131.688 
L 149.856 130.68 
L 149.36 130.176 
L 149.36 128.664 
L 149.856 128.664 
L 149.856 128.16 
L 150.352 128.16 
L 150.352 127.656 
L 150.848 127.656 
L 150.848 127.152 
L 151.344 127.152 
L 151.344 126.648 
L 151.84 126.648 
L 151.84 126.144 
L 152.336 126.144 
L 152.336 123.624 
L 151.84 123.12 
L 152.336 122.616 
L 152.832 122.616 
L 152.832 122.112 
L 153.328 122.112 
L 153.824 121.608 
L 155.312 121.608 
L 155.808 121.104 
L 159.28 121.104 
L 159.776 120.6 
L 160.768 120.6 
L 161.264 120.096 
L 162.256 120.096 
L 162.752 119.592 
L 163.744 119.592 
L 163.744 119.088 
L 164.736 119.088 
L 164.736 118.584 
L 165.232 118.584 
L 165.232 118.08 
L 165.728 118.08 
L 165.728 117.576 
L 166.72 116.568 
L 166.72 116.064 
L 167.216 116.064 
L 167.216 115.56 
L 167.712 115.056 
L 167.712 114.552 
L 168.208 114.552 
L 168.208 114.048 
L 168.704 114.048 
L 168.704 113.544 
L 169.2 113.544 
L 169.696 113.04 
L 170.192 113.04 
L 171.184 112.032 
L 172.176 112.032 
L 172.672 111.528 
L 173.168 111.528 
L 173.664 111.024 
L 174.656 111.024 
L 175.152 110.52 
L 176.64 110.52 
L 177.136 110.016 
L 179.12 110.016 
L 179.616 109.512 
L 182.096 109.512 
L 182.592 109.008 
L 186.064 109.008 
L 148.864 132.192 
L 148.864 130.68 
L 148.368 130.176 
L 148.368 129.168 
L 147.872 129.168 
L 147.872 128.664 
L 147.376 128.664 
L 147.376 128.16 
L 146.88 127.656 
L 146.88 124.632 
L 147.376 124.632 
L 147.376 123.624 
L 147.872 123.624 
L 147.872 123.12 
L 148.368 123.12 
L 148.368 122.616 
L 149.36 122.616 
L 149.856 122.112 
L 151.344 122.112 
L 151.344 121.608 
L 151.84 121.608 
L 152.336 121.104 
L 152.832 121.104 
L 153.328 120.6 
L 154.816 120.6 
L 155.312 120.096 
L 158.784 120.096 
L 159.28 119.592 
L 160.768 119.592 
L 161.264 119.088 
L 162.256 119.088 
L 163.248 118.08 
L 163.744 118.08 
L 164.736 117.072 
L 164.736 116.568 
L 165.232 116.568 
L 165.232 116.064 
L 165.728 116.064 
L 165.728 115.56 
L 166.224 115.056 
L 166.224 114.552 
L 166.72 114.552 
L 166.72 114.048 
L 168.208 112.536 
L 168.704 112.536 
L 168.704 112.032 
L 169.696 112.032 
L 169.696 111.528 
L 170.688 111.528 
L 170.688 111.024 
L 171.68 111.024 
L 172.176 110.52 
L 173.168 110.52 
L 173.664 110.016 
L 174.656 110.016 
L 175.152 109.512 
L 176.144 109.512 
L 176.64 109.008 
L 178.624 109.008 
L 179.12 108.504 
L 181.6 108.504 
L 182.096 108 
L 186.56 108 
L 152.832 136.728 
L 154.32 138.24 
L 155.312 138.744 
L 155.312 137.232 
L 154.816 137.232 
L 154.32 136.728 
L 154.32 136.224 
L 153.824 136.224 
L 153.824 135.72 
L 153.328 135.72 
L 150.848 133.2 
L 150.848 132.696 
L 150.352 132.192 
L 155.808 137.736 
L 156.304 137.736 
L 155.808 138.744 
L 156.8 139.248 
L 156.8 138.24 
L 161.76 138.24 
L 162.256 137.736 
L 171.68 137.736 
L 157.296 139.248 
L 158.288 139.248 
L 162.256 139.248 
L 162.752 138.744 
L 171.184 138.744 
L 184.08 241.056 
L 184.576 241.056 
L 184.576 240.048 
L 184.08 239.544 
L 184.08 239.04 
L 184.576 238.536 
L 184.576 238.032 
L 185.072 238.032 
L 185.072 237.528 
L 185.568 237.528 
L 185.568 237.024 
L 189.536 237.024 
L 190.032 236.52 
L 190.528 236.52 
L 190.528 236.016 
L 191.024 236.016 
L 191.024 235.512 
L 191.52 235.512 
L 191.52 235.008 
L 192.016 235.008 
L 192.016 234 
L 192.512 233.496 
L 192.512 232.488 
L 193.008 231.984 
L 193.008 230.472 
L 193.504 229.968 
L 193.504 227.448 
L 194 226.944 
L 194 220.896 
L 193.504 220.392 
L 193.504 217.368 
L 185.072 240.048 
L 195.984 240.048 
L 195.984 238.536 
L 196.48 238.032 
L 196.48 237.024 
L 196.976 236.52 
L 196.976 236.016 
L 197.472 235.512 
L 197.472 234.504 
L 197.968 234 
L 197.968 233.496 
L 198.464 232.992 
L 198.464 231.984 
L 198.96 231.48 
L 198.96 229.968 
L 199.456 229.464 
L 199.456 227.952 
L 199.952 227.448 
L 199.952 225.432 
L 200.448 224.928 
L 200.448 222.408 
L 200.944 221.904 
L 200.944 218.376 
L 201.44 217.872 
L 201.44 214.344 
L 201.936 213.84 
L 201.936 210.816 
L 202.432 210.312 
L 202.432 204.768 
L 202.928 204.264 
L 202.928 199.728 
L 201.936 199.728 
L 201.936 198.216 
L 202.928 198.216 
L 202.928 195.696 
L 202.432 195.192 
L 202.432 192.672 
L 200.944 199.224 
L 200.944 197.712 
L 201.44 197.712 
L 199.952 198.72 
L 199.952 197.208 
L 200.448 197.208 
L 198.96 198.216 
L 198.96 196.2 
L 198.464 196.2 
L 199.456 196.704 
L 198.464 197.712 
L 197.472 197.208 
L 197.472 195.192 
L 196.976 195.192 
L 196.976 194.688 
L 196.48 194.688 
L 195.984 194.184 
L 197.968 195.696 
L 196.976 196.704 
L 196.48 196.2 
L 195.488 195.696 
L 195.488 195.192 
L 194.992 195.192 
L 194.992 193.176 
L 194.496 193.176 
L 194.496 192.672 
L 194 192.672 
L 194 192.168 
L 193.504 192.168 
L 193.504 191.664 
L 193.008 191.664 
L 193.008 191.16 
L 192.512 191.16 
L 192.512 190.656 
L 192.016 190.656 
L 192.016 190.152 
L 191.024 189.144 
L 191.024 188.64 
L 190.528 188.64 
L 190.528 188.136 
L 190.032 188.136 
L 190.032 187.632 
L 189.536 187.128 
L 189.536 186.624 
L 189.04 186.624 
L 189.04 186.12 
L 188.544 185.616 
L 188.544 185.112 
L 188.048 185.112 
L 188.048 184.104 
L 187.552 184.104 
L 187.552 183.6 
L 187.056 183.6 
L 187.056 182.592 
L 186.56 182.592 
L 186.56 181.584 
L 186.064 181.08 
L 186.064 180.576 
L 195.488 193.68 
L 194.496 194.688 
L 191.024 191.16 
L 191.024 190.656 
L 190.528 190.656 
L 190.528 190.152 
L 190.032 190.152 
L 190.032 189.648 
L 189.04 188.64 
L 189.04 188.136 
L 188.544 188.136 
L 188.544 187.632 
L 195.984 195.696 
L 199.456 198.216 
L 202.432 199.728 
L 185.072 241.056 
L 196.48 241.056 
L 196.976 240.552 
L 196.976 239.04 
L 197.968 240.048 
L 197.968 238.536 
L 198.464 238.032 
L 198.464 237.528 
L 199.456 236.52 
L 199.952 236.52 
L 200.448 236.016 
L 203.424 236.016 
L 203.92 235.512 
L 204.416 235.512 
L 204.416 235.008 
L 204.912 235.008 
L 205.904 234 
L 205.904 232.992 
L 206.4 232.488 
L 206.4 231.48 
L 206.896 230.976 
L 206.896 229.464 
L 207.392 228.96 
L 207.392 225.432 
L 207.888 224.928 
L 207.888 222.912 
L 207.392 222.408 
L 207.392 217.872 
L 207.888 217.368 
L 207.888 215.352 
L 207.392 214.848 
L 207.392 212.832 
L 206.896 212.328 
L 206.896 210.312 
L 206.4 209.808 
L 206.4 207.792 
L 205.904 207.288 
L 205.904 205.272 
L 205.408 204.768 
L 205.408 202.752 
L 204.912 202.248 
L 204.912 200.232 
L 204.416 199.728 
L 204.416 197.712 
L 203.92 197.208 
L 203.92 195.192 
L 203.424 194.688 
L 203.424 193.176 
L 206.896 217.368 
L 206.896 216.864 
L 206.896 215.352 
L 206.4 214.848 
L 206.4 213.336 
L 205.904 212.832 
L 205.904 210.816 
L 205.408 210.312 
L 205.408 208.296 
L 204.912 207.792 
L 204.912 205.272 
L 204.416 204.768 
L 204.416 203.256 
L 197.968 237.024 
L 197.968 236.52 
L 198.464 236.016 
L 198.464 235.008 
L 198.96 234.504 
L 198.96 234 
L 199.456 233.496 
L 199.456 231.984 
L 199.952 231.48 
L 199.952 230.472 
L 200.448 229.968 
L 200.448 228.456 
L 200.944 227.952 
L 200.944 225.936 
L 201.44 225.432 
L 201.44 222.912 
L 201.936 222.408 
L 201.936 218.376 
L 202.432 217.872 
L 202.432 214.848 
L 202.928 214.344 
L 202.928 210.816 
L 203.424 210.312 
L 203.424 205.776 
L 197.472 238.032 
L 197.472 237.528 
L 198.96 240.048 
L 198.96 238.536 
L 199.456 238.536 
L 199.456 238.032 
L 199.952 238.032 
L 199.952 237.528 
L 200.448 237.528 
L 200.448 237.024 
L 204.416 237.024 
L 204.416 236.52 
L 205.408 236.52 
L 205.408 236.016 
L 205.904 236.016 
L 205.904 235.512 
L 206.4 235.512 
L 206.4 235.008 
L 206.896 234.504 
L 206.896 233.496 
L 207.392 232.992 
L 207.392 231.984 
L 207.888 231.48 
L 207.888 229.968 
L 208.384 229.464 
L 208.384 226.44 
L 208.88 225.936 
L 208.88 221.904 
L 208.384 221.4 
L 208.384 217.872 
L 199.456 240.048 
L 210.368 240.048 
L 210.864 239.544 
L 210.864 238.032 
L 211.36 237.528 
L 211.36 237.024 
L 211.856 236.52 
L 211.856 235.512 
L 212.352 235.008 
L 212.352 234.504 
L 212.848 234 
L 212.848 232.992 
L 213.344 232.488 
L 213.344 231.48 
L 213.84 230.976 
L 213.84 229.968 
L 214.336 229.464 
L 214.336 227.448 
L 214.832 226.944 
L 214.832 224.928 
L 215.328 224.424 
L 215.328 221.904 
L 215.824 221.4 
L 215.824 217.368 
L 216.32 216.864 
L 216.32 213.84 
L 216.816 213.336 
L 216.816 209.808 
L 217.312 209.304 
L 217.312 204.264 
L 217.808 203.76 
L 217.808 195.192 
L 218.8 195.192 
L 218.8 199.224 
L 218.8 195.696 
L 219.296 199.224 
L 228.224 199.224 
L 228.72 198.72 
L 233.184 198.72 
L 233.68 198.216 
L 236.656 198.216 
L 237.152 197.712 
L 239.632 197.712 
L 240.128 197.208 
L 242.608 197.208 
L 243.104 196.704 
L 244.592 196.704 
L 245.088 196.2 
L 246.576 196.2 
L 247.072 195.696 
L 263.44 195.696 
L 198.464 241.056 
L 211.36 241.056 
L 211.36 240.552 
L 211.856 240.552 
L 211.856 238.536 
L 212.352 238.032 
L 212.352 237.528 
L 212.848 237.024 
L 212.848 236.016 
L 213.344 235.512 
L 213.344 235.008 
L 213.84 234.504 
L 213.84 233.496 
L 214.336 232.992 
L 214.336 231.984 
L 214.832 231.48 
L 214.832 229.968 
L 215.328 229.464 
L 215.328 227.952 
L 215.824 227.448 
L 215.824 225.432 
L 216.32 224.928 
L 216.32 222.408 
L 216.816 221.904 
L 216.816 217.872 
L 217.312 217.368 
L 217.312 214.344 
L 217.808 213.84 
L 217.808 210.312 
L 218.304 209.808 
L 218.304 205.272 
L 218.8 204.768 
L 218.8 200.736 
L 220.784 200.736 
L 221.28 200.232 
L 228.72 200.232 
L 229.216 199.728 
L 233.68 199.728 
L 234.176 199.224 
L 237.152 199.224 
L 237.648 198.72 
L 240.128 198.72 
L 240.624 198.216 
L 242.608 198.216 
L 243.104 197.712 
L 245.088 197.712 
L 245.584 197.208 
L 247.072 197.208 
L 247.568 196.704 
L 258.976 196.704 
L 279.808 241.056 
L 279.808 237.528 
L 280.304 237.528 
L 280.304 237.024 
L 280.8 236.52 
L 281.296 236.52 
L 281.296 236.016 
L 285.264 236.016 
L 286.752 234.504 
L 286.752 230.976 
L 287.248 230.472 
L 287.248 228.96 
L 286.752 228.456 
L 286.752 224.928 
L 286.256 224.424 
L 286.256 222.912 
L 285.76 222.408 
L 285.76 221.4 
L 285.264 220.896 
L 285.264 219.888 
L 284.768 219.384 
L 284.768 218.88 
L 284.272 218.88 
L 284.272 216.864 
L 283.776 216.864 
L 284.768 217.368 
L 283.776 218.376 
L 282.784 217.872 
L 282.784 215.856 
L 282.288 215.856 
L 283.28 216.36 
L 282.288 217.368 
L 281.296 216.864 
L 281.296 214.848 
L 280.8 214.848 
L 280.8 214.344 
L 280.304 214.344 
L 279.808 213.84 
L 281.792 215.352 
L 280.8 216.36 
L 280.304 215.856 
L 279.312 215.352 
L 279.312 214.848 
L 278.816 214.848 
L 278.816 212.832 
L 278.32 212.832 
L 278.32 212.328 
L 277.824 212.328 
L 277.328 211.824 
L 279.312 213.336 
L 278.32 214.344 
L 277.824 213.84 
L 276.832 213.336 
L 276.832 212.832 
L 276.336 212.832 
L 276.336 210.816 
L 275.84 210.816 
L 275.84 210.312 
L 275.344 210.312 
L 275.344 209.808 
L 274.848 209.808 
L 269.888 204.768 
L 269.888 204.264 
L 269.392 204.264 
L 269.392 203.76 
L 268.896 203.76 
L 268.896 203.256 
L 268.4 203.256 
L 268.4 202.752 
L 267.408 201.744 
L 267.408 201.24 
L 266.912 201.24 
L 266.912 200.736 
L 266.416 200.232 
L 266.416 199.728 
L 265.92 199.728 
L 265.92 199.224 
L 265.424 198.72 
L 265.424 198.216 
L 264.928 198.216 
L 264.928 197.208 
L 265.424 197.208 
L 265.424 196.2 
L 265.92 196.2 
L 266.416 195.696 
L 275.84 195.696 
L 276.336 195.192 
L 276.336 193.176 
L 276.832 192.672 
L 276.832 190.656 
L 275.84 192.672 
L 275.84 190.656 
L 276.336 190.656 
L 265.92 197.208 
L 269.392 197.208 
L 269.888 196.704 
L 275.84 196.704 
L 276.336 196.2 
L 276.832 196.2 
L 276.832 211.32 
L 275.84 212.328 
L 274.848 211.32 
L 273.856 210.816 
L 273.856 210.312 
L 273.36 210.312 
L 273.36 209.808 
L 272.864 209.808 
L 272.864 209.304 
L 272.368 209.304 
L 272.368 208.8 
L 271.872 208.8 
L 271.872 208.296 
L 271.376 208.296 
L 271.376 207.792 
L 270.88 207.792 
L 270.88 207.288 
L 270.384 207.288 
L 270.384 206.784 
L 269.888 206.784 
L 269.888 206.28 
L 269.392 206.28 
L 269.392 205.776 
L 268.896 205.776 
L 268.896 205.272 
L 267.408 203.76 
L 267.408 203.256 
L 266.912 203.256 
L 266.912 202.752 
L 266.416 202.752 
L 266.416 202.248 
L 265.92 201.744 
L 265.92 201.24 
L 265.424 201.24 
L 265.424 200.736 
L 264.928 200.232 
L 264.928 199.728 
L 264.432 199.728 
L 264.432 199.224 
L 263.936 198.72 
L 263.936 197.712 
L 263.44 197.712 
L 263.44 197.208 
L 263.936 196.2 
L 264.432 195.696 
L 264.928 195.696 
L 259.472 197.208 
L 262.944 197.208 
L 274.352 210.816 
L 279.808 215.352 
L 283.28 217.872 
L 280.8 240.048 
L 280.8 239.544 
L 280.8 238.536 
L 281.296 238.032 
L 281.296 237.528 
L 281.792 237.528 
L 282.288 237.024 
L 286.256 237.024 
L 286.256 236.52 
L 286.752 236.52 
L 286.752 236.016 
L 287.248 236.016 
L 287.248 235.512 
L 287.744 235.512 
L 287.744 232.488 
L 288.24 231.984 
L 288.24 227.952 
L 287.744 227.448 
L 287.744 224.424 
L 287.248 223.92 
L 287.248 222.408 
L 286.752 221.904 
L 286.752 220.896 
L 286.256 220.392 
L 286.256 219.384 
L 285.76 218.88 
L 285.76 217.872 
L 285.264 217.872 
L 281.296 240.048 
L 292.208 240.048 
L 292.208 239.544 
L 292.704 239.544 
L 292.704 236.016 
L 293.2 235.512 
L 293.2 232.992 
L 293.696 232.488 
L 293.696 215.856 
L 293.2 215.856 
L 293.2 215.352 
L 292.704 215.352 
L 292.704 213.336 
L 292.208 213.336 
L 293.2 213.84 
L 292.208 214.848 
L 291.216 214.344 
L 291.216 212.328 
L 290.72 212.328 
L 290.72 211.824 
L 290.224 211.824 
L 289.728 211.32 
L 291.712 212.832 
L 290.72 213.84 
L 290.224 213.336 
L 289.232 212.832 
L 289.232 212.328 
L 288.736 212.328 
L 288.736 210.312 
L 288.24 210.312 
L 288.24 209.808 
L 287.744 209.808 
L 287.744 209.304 
L 287.248 209.304 
L 284.272 206.28 
L 284.272 205.776 
L 283.776 205.776 
L 283.776 205.272 
L 283.28 205.272 
L 283.28 204.768 
L 282.784 204.768 
L 282.784 204.264 
L 282.288 204.264 
L 282.288 203.76 
L 281.792 203.256 
L 281.792 202.752 
L 281.296 202.752 
L 281.296 202.248 
L 280.8 202.248 
L 280.8 201.744 
L 280.304 201.24 
L 280.304 200.736 
L 279.808 200.232 
L 279.808 199.728 
L 279.312 199.728 
L 279.312 198.72 
L 278.816 198.72 
L 278.816 198.216 
L 278.32 197.712 
L 278.32 196.704 
L 277.824 196.2 
L 277.824 195.192 
L 277.328 194.688 
L 277.328 193.176 
L 289.232 210.816 
L 288.24 211.824 
L 287.744 211.32 
L 286.752 210.816 
L 286.752 210.312 
L 286.256 210.312 
L 286.256 209.808 
L 285.76 209.808 
L 285.76 209.304 
L 285.264 209.304 
L 285.264 208.8 
L 284.768 208.8 
L 284.768 208.296 
L 284.272 208.296 
L 284.272 207.792 
L 283.776 207.792 
L 283.776 207.288 
L 283.28 207.288 
L 283.28 206.784 
L 282.784 206.784 
L 282.784 206.28 
L 281.296 204.768 
L 281.296 204.264 
L 280.8 204.264 
L 280.8 203.76 
L 279.808 202.752 
L 279.808 202.248 
L 279.312 202.248 
L 279.312 201.24 
L 278.816 201.24 
L 278.816 200.736 
L 278.32 200.232 
L 278.32 199.728 
L 277.824 199.224 
L 277.824 198.72 
L 277.328 198.216 
L 277.328 197.208 
L 276.832 196.704 
L 287.248 210.816 
L 291.712 214.344 
L 280.304 241.056 
L 293.2 241.056 
L 293.2 240.048 
L 293.696 239.544 
L 293.696 236.52 
L 294.192 236.016 
L 294.192 233.496 
L 294.688 232.992 
L 294.688 227.448 
L 295.184 226.944 
L 295.184 223.416 
L 294.688 222.912 
L 294.688 216.864 
L 295.184 216.864 
L 295.184 215.352 
L 294.688 215.352 
L 294.688 214.848 
L 294.192 214.848 
L 293.696 214.344 
L 295.68 215.856 
L 296.176 215.856 
L 295.68 217.368 
L 296.176 217.368 
L 296.176 216.36 
L 296.672 216.36 
L 301.632 241.056 
L 301.632 240.552 
L 301.136 240.048 
L 301.136 239.04 
L 301.632 238.536 
L 301.632 237.528 
L 302.624 236.52 
L 303.12 236.52 
L 303.12 236.016 
L 307.088 236.016 
L 307.088 235.512 
L 307.584 235.512 
L 307.584 233.496 
L 308.08 232.992 
L 308.08 230.976 
L 307.584 230.472 
L 307.584 228.96 
L 307.088 228.456 
L 307.088 227.448 
L 306.592 226.944 
L 306.592 226.44 
L 306.096 225.936 
L 306.096 225.432 
L 305.6 224.928 
L 305.6 224.424 
L 305.104 223.92 
L 305.104 223.416 
L 304.608 222.912 
L 304.608 222.408 
L 304.112 222.408 
L 304.112 221.904 
L 303.616 221.4 
L 303.616 220.896 
L 302.624 219.888 
L 307.088 232.992 
L 307.088 230.976 
L 306.592 230.472 
L 306.592 229.464 
L 306.096 228.96 
L 306.096 227.952 
L 305.6 227.448 
L 305.6 226.944 
L 305.104 226.44 
L 305.104 225.936 
L 304.608 225.432 
L 304.608 224.928 
L 304.112 224.424 
L 304.112 223.92 
L 303.616 223.92 
L 303.616 223.416 
L 303.12 222.912 
L 303.12 222.408 
L 302.624 221.904 
L 302.624 221.4 
L 302.128 221.4 
L 302.128 220.896 
L 301.632 220.896 
L 301.632 219.384 
L 302.128 219.384 
L 300.64 220.392 
L 300.64 218.88 
L 301.136 218.88 
L 299.648 219.888 
L 299.648 217.872 
L 300.144 218.376 
L 299.152 219.384 
L 297.168 218.376 
L 297.168 216.864 
L 297.664 216.864 
L 296.672 217.872 
L 298.656 218.88 
L 298.656 217.368 
L 298.16 217.368 
L 299.152 217.872 
L 300.144 219.888 
L 301.136 220.392 
L 302.128 241.056 
L 302.624 241.056 
L 302.624 238.032 
L 303.12 238.032 
L 303.12 237.528 
L 303.616 237.528 
L 304.112 237.024 
L 307.584 237.024 
L 308.08 236.52 
L 308.576 236.52 
L 308.576 233.496 
L 303.12 240.048 
L 314.032 240.048 
L 314.032 239.04 
L 314.528 238.536 
L 314.032 238.032 
L 314.032 232.488 
L 313.536 231.984 
L 313.536 228.96 
L 314.032 228.456 
L 314.032 226.44 
L 313.536 225.936 
L 313.536 224.424 
L 313.04 223.92 
L 313.04 222.912 
L 312.544 222.408 
L 312.544 221.4 
L 312.048 220.896 
L 312.048 219.888 
L 311.552 219.384 
L 311.552 217.872 
L 311.056 217.872 
L 311.056 216.864 
L 310.56 216.864 
L 310.56 215.856 
L 310.064 215.856 
L 310.064 215.352 
L 309.568 214.848 
L 309.568 214.344 
L 309.072 214.344 
L 309.072 213.84 
L 306.592 211.32 
L 306.592 210.816 
L 306.096 210.816 
L 306.096 210.312 
L 305.6 210.312 
L 305.6 209.808 
L 304.608 208.8 
L 304.608 208.296 
L 304.112 208.296 
L 304.112 207.288 
L 303.616 207.288 
L 303.616 206.784 
L 303.12 206.28 
L 303.12 205.776 
L 302.624 205.272 
L 302.624 204.768 
L 302.128 204.264 
L 302.128 203.76 
L 301.632 203.256 
L 301.632 202.248 
L 301.136 201.744 
L 301.136 200.736 
L 300.64 200.232 
L 300.64 198.72 
L 300.144 198.216 
L 300.144 196.2 
L 299.648 195.696 
L 299.648 192.168 
L 299.152 191.664 
L 299.152 186.624 
L 299.648 186.12 
L 299.648 182.088 
L 320.976 181.08 
L 309.568 179.064 
L 308.08 178.56 
L 307.088 178.056 
L 305.6 177.552 
L 305.6 177.048 
L 306.096 176.544 
L 306.096 176.04 
L 306.592 176.544 
L 307.088 176.544 
L 304.608 177.048 
L 303.616 176.544 
L 303.616 174.528 
L 303.12 174.528 
L 303.12 174.024 
L 302.624 174.024 
L 301.632 173.016 
L 304.112 175.032 
L 303.12 176.04 
L 302.128 175.536 
L 302.128 175.032 
L 301.632 175.032 
L 301.632 174.528 
L 301.136 174.528 
L 301.136 174.024 
L 300.64 174.024 
L 300.64 172.008 
L 300.144 172.008 
L 300.144 171.504 
L 299.648 171.504 
L 301.136 172.512 
L 300.144 173.52 
L 299.152 172.512 
L 302.624 175.536 
L 304.112 176.544 
L 305.104 177.048 
L 305.104 175.536 
L 304.608 175.536 
L 305.6 176.04 
L 306.096 177.552 
L 306.592 177.552 
L 307.088 177.048 
L 308.08 177.048 
L 307.584 178.056 
L 308.576 178.56 
L 308.576 177.552 
L 309.568 177.552 
L 309.072 178.56 
L 310.064 179.064 
L 310.064 178.056 
L 311.552 178.056 
L 310.56 179.064 
L 311.056 179.064 
L 312.048 179.568 
L 312.048 178.56 
L 314.528 178.56 
L 312.544 179.568 
L 314.032 179.568 
L 315.024 180.072 
L 315.024 179.064 
L 318 179.064 
L 315.52 180.072 
L 317.504 180.072 
L 318.496 180.576 
L 318.496 179.568 
L 320.976 179.568 
L 318.992 180.576 
L 320.48 180.576 
L 321.472 181.08 
L 321.472 180.072 
L 323.952 180.072 
L 323.952 179.568 
L 324.448 179.568 
L 324.448 178.056 
L 323.952 177.552 
L 323.952 177.048 
L 323.456 177.048 
L 323.456 176.544 
L 322.96 176.544 
L 322.96 176.04 
L 322.464 176.04 
L 322.464 175.536 
L 321.968 175.536 
L 321.968 173.52 
L 321.472 173.52 
L 322.464 174.024 
L 321.472 175.032 
L 320.48 174.528 
L 320.48 172.512 
L 320.976 173.016 
L 319.984 174.024 
L 318.992 173.52 
L 317.504 173.016 
L 316.512 172.512 
L 315.024 172.008 
L 315.024 171.504 
L 314.528 171.504 
L 313.04 171 
L 313.04 169.488 
L 313.536 169.488 
L 312.048 170.496 
L 312.048 168.984 
L 312.544 168.984 
L 311.056 169.992 
L 311.056 168.48 
L 311.552 168.48 
L 310.064 169.488 
L 310.064 167.472 
L 310.56 167.976 
L 309.568 168.984 
L 307.584 167.976 
L 307.584 165.96 
L 308.08 166.464 
L 307.088 167.472 
L 305.104 166.464 
L 305.104 164.448 
L 304.608 164.448 
L 304.112 163.944 
L 305.6 164.952 
L 304.608 165.96 
L 303.616 165.456 
L 303.616 164.952 
L 303.12 164.952 
L 303.12 162.936 
L 302.624 162.936 
L 303.616 163.44 
L 302.624 164.448 
L 301.632 163.944 
L 301.632 161.928 
L 301.136 161.928 
L 300.64 161.424 
L 302.128 162.432 
L 301.136 163.44 
L 300.64 162.936 
L 299.648 162.432 
L 299.648 160.416 
L 299.152 160.416 
L 299.152 159.912 
L 298.656 159.912 
L 298.16 159.408 
L 300.144 160.92 
L 299.152 161.928 
L 298.656 161.424 
L 297.664 160.92 
L 297.664 160.416 
L 297.168 160.416 
L 297.168 158.4 
L 296.672 158.4 
L 297.664 158.904 
L 296.672 159.912 
L 295.68 159.408 
L 295.68 157.896 
L 296.176 157.896 
L 295.184 158.904 
L 293.2 157.896 
L 293.696 157.896 
L 293.696 156.888 
L 294.688 156.888 
L 294.688 158.4 
L 294.688 157.392 
L 295.184 157.392 
L 296.176 159.408 
L 305.6 166.464 
L 306.592 166.968 
L 306.592 165.456 
L 306.096 165.456 
L 307.088 165.96 
L 308.08 167.976 
L 309.072 168.48 
L 309.072 166.968 
L 308.576 166.968 
L 309.568 167.472 
L 310.56 169.488 
L 313.536 171 
L 314.032 171 
L 314.528 170.496 
L 314.528 169.992 
L 314.032 169.992 
L 315.024 170.496 
L 315.52 170.496 
L 315.52 172.008 
L 316.016 172.008 
L 316.016 171 
L 316.512 171 
L 317.008 172.512 
L 317.008 171.504 
L 317.504 171.504 
L 318 173.016 
L 318 172.008 
L 318.992 172.008 
L 318.496 173.016 
L 319.488 173.52 
L 319.488 172.512 
L 319.984 172.512 
L 320.976 174.528 
L 321.968 181.08 
L 324.448 181.08 
L 325.44 180.072 
L 325.44 177.048 
L 324.944 177.048 
L 324.944 176.544 
L 323.952 175.536 
L 323.952 175.032 
L 323.456 175.032 
L 323.456 174.528 
L 322.96 174.528 
L 299.152 181.584 
L 299.152 176.544 
L 298.656 176.04 
L 298.656 173.52 
L 298.16 173.016 
L 298.16 172.008 
L 298.656 172.008 
L 298.656 170.496 
L 298.16 170.496 
L 298.16 169.992 
L 297.664 169.992 
L 297.168 169.488 
L 297.168 168.48 
L 296.672 167.976 
L 296.672 166.464 
L 296.176 166.464 
L 296.176 165.456 
L 295.68 165.456 
L 295.68 164.952 
L 295.184 164.448 
L 295.184 163.44 
L 294.688 163.44 
L 294.688 162.432 
L 294.192 162.432 
L 294.192 161.928 
L 293.696 161.424 
L 293.696 160.92 
L 293.2 160.92 
L 293.2 160.416 
L 292.704 160.416 
L 292.704 159.912 
L 291.712 158.904 
L 291.712 157.392 
L 292.208 157.392 
L 292.208 156.384 
L 293.2 156.384 
L 292.704 157.392 
L 291.216 158.4 
L 290.72 157.896 
L 290.72 156.888 
L 290.224 155.88 
L 291.712 155.88 
L 291.216 156.888 
L 299.152 171 
L 313.04 228.456 
L 313.04 226.944 
L 312.544 226.44 
L 312.544 224.928 
L 312.048 224.424 
L 312.048 223.416 
L 311.552 222.912 
L 311.552 221.4 
L 311.056 220.896 
L 311.056 219.888 
L 310.56 219.384 
L 310.56 218.88 
L 310.064 218.376 
L 310.064 217.872 
L 309.568 217.368 
L 309.568 216.864 
L 309.072 216.36 
L 309.072 215.856 
L 308.576 215.856 
L 308.576 215.352 
L 308.08 214.848 
L 308.08 214.344 
L 307.584 214.344 
L 307.584 213.84 
L 307.088 213.84 
L 307.088 213.336 
L 306.592 213.336 
L 306.592 212.832 
L 306.096 212.832 
L 306.096 212.328 
L 305.6 212.328 
L 305.6 211.824 
L 305.104 211.824 
L 305.104 211.32 
L 304.608 210.816 
L 304.608 210.312 
L 304.112 210.312 
L 304.112 209.808 
L 303.12 208.8 
L 303.12 208.296 
L 302.624 207.792 
L 302.624 207.288 
L 302.128 207.288 
L 302.128 206.28 
L 301.632 205.776 
L 301.632 205.272 
L 301.136 204.768 
L 301.136 203.76 
L 300.64 203.256 
L 300.64 202.752 
L 300.144 202.248 
L 300.144 200.736 
L 299.648 200.232 
L 299.648 199.224 
L 299.152 198.72 
L 299.152 196.704 
L 298.656 196.2 
L 298.656 192.672 
L 298.16 192.168 
L 298.16 177.048 
L 297.664 176.544 
L 297.664 174.024 
L 297.168 173.52 
L 297.168 172.008 
L 296.672 171.504 
L 296.672 169.992 
L 296.176 169.488 
L 296.176 168.48 
L 295.68 167.976 
L 295.68 167.472 
L 295.184 166.968 
L 295.184 165.96 
L 294.688 165.456 
L 294.688 164.952 
L 294.192 164.952 
L 294.192 164.448 
L 293.696 163.944 
L 293.696 163.44 
L 293.2 162.936 
L 293.2 162.432 
L 292.704 162.432 
L 292.704 161.928 
L 291.712 160.92 
L 291.712 160.416 
L 291.216 160.416 
L 291.216 159.912 
L 290.72 159.912 
L 290.72 159.408 
L 290.224 159.408 
L 290.224 158.904 
L 289.728 158.904 
L 289.728 158.4 
L 289.232 158.4 
L 289.232 157.896 
L 288.736 157.896 
L 288.736 157.392 
L 288.24 157.392 
L 288.24 156.888 
L 287.248 156.888 
L 287.248 154.872 
L 286.752 154.872 
L 287.744 155.376 
L 289.728 155.376 
L 286.752 156.384 
L 285.76 155.88 
L 285.76 155.376 
L 284.768 155.376 
L 284.768 154.872 
L 285.264 154.368 
L 285.264 153.864 
L 285.76 154.368 
L 286.256 154.368 
L 283.776 154.872 
L 282.784 154.368 
L 279.808 153.36 
L 277.824 152.856 
L 272.368 151.848 
L 267.408 151.344 
L 268.4 151.344 
L 268.4 150.336 
L 271.872 150.336 
L 268.896 151.344 
L 271.872 151.344 
L 272.368 150.84 
L 275.344 150.84 
L 233.184 151.344 
L 228.72 150.336 
L 226.736 149.832 
L 222.272 148.32 
L 221.28 147.816 
L 218.304 146.808 
L 218.304 146.304 
L 217.312 146.304 
L 217.312 145.8 
L 217.808 145.296 
L 217.808 144.792 
L 218.304 145.296 
L 218.8 145.296 
L 216.32 145.8 
L 212.352 143.784 
L 212.352 141.768 
L 211.856 141.768 
L 212.848 142.272 
L 211.856 143.28 
L 210.864 142.776 
L 210.864 140.76 
L 210.368 140.76 
L 210.368 140.256 
L 209.872 140.256 
L 209.872 139.752 
L 209.376 139.752 
L 209.376 139.248 
L 208.88 139.248 
L 208.88 138.744 
L 208.384 138.744 
L 208.384 138.24 
L 207.888 138.24 
L 207.888 137.736 
L 207.392 137.232 
L 207.392 136.728 
L 206.896 136.728 
L 206.896 136.224 
L 206.4 135.72 
L 206.4 135.216 
L 205.904 135.216 
L 205.904 134.208 
L 205.408 134.208 
L 205.408 133.704 
L 204.912 133.2 
L 204.912 132.696 
L 204.416 132.192 
L 204.416 131.688 
L 203.92 131.184 
L 203.92 130.176 
L 203.424 130.176 
L 203.424 129.672 
L 202.928 129.168 
L 202.928 128.16 
L 202.432 127.656 
L 202.432 125.64 
L 202.928 125.64 
L 202.928 124.632 
L 203.424 124.128 
L 203.424 121.104 
L 202.928 120.6 
L 202.928 119.592 
L 202.432 119.592 
L 202.432 119.088 
L 201.936 118.584 
L 201.936 118.08 
L 201.44 118.08 
L 201.44 117.576 
L 200.448 116.568 
L 211.36 141.264 
L 210.368 142.272 
L 209.872 141.768 
L 208.88 141.264 
L 208.88 140.76 
L 208.384 140.76 
L 208.384 140.256 
L 206.896 138.744 
L 206.896 138.24 
L 206.4 138.24 
L 206.4 137.736 
L 205.904 137.232 
L 205.904 136.728 
L 205.408 136.728 
L 205.408 136.224 
L 204.912 135.72 
L 204.912 135.216 
L 204.416 134.712 
L 204.416 134.208 
L 203.92 133.704 
L 203.92 133.2 
L 203.424 133.2 
L 203.424 132.192 
L 202.928 132.192 
L 202.928 131.184 
L 202.432 130.68 
L 202.432 129.672 
L 201.936 129.168 
L 201.936 128.664 
L 209.376 141.264 
L 212.848 143.784 
L 213.84 144.288 
L 213.84 142.776 
L 213.344 142.776 
L 214.336 143.28 
L 214.832 143.28 
L 214.832 144.792 
L 214.832 143.784 
L 215.824 143.784 
L 215.824 145.296 
L 215.824 144.288 
L 216.816 144.288 
L 216.816 145.8 
L 216.816 144.792 
L 217.312 144.792 
L 217.808 146.304 
L 218.8 146.808 
L 219.296 146.808 
L 219.296 145.8 
L 219.792 145.8 
L 220.288 147.312 
L 220.288 146.304 
L 220.784 146.304 
L 220.784 147.312 
L 221.28 146.808 
L 222.272 146.808 
L 221.776 147.816 
L 222.768 148.32 
L 222.768 147.312 
L 223.76 147.312 
L 223.264 148.32 
L 224.256 148.824 
L 224.256 147.816 
L 225.248 147.816 
L 224.752 148.824 
L 225.744 149.328 
L 225.744 148.32 
L 226.736 148.32 
L 226.24 149.328 
L 227.232 149.832 
L 227.232 148.824 
L 228.72 148.824 
L 227.728 149.832 
L 228.224 149.832 
L 229.216 150.336 
L 229.216 149.328 
L 230.704 149.328 
L 229.712 150.336 
L 230.208 150.336 
L 231.2 150.84 
L 231.2 149.832 
L 233.184 149.832 
L 231.696 150.84 
L 232.688 150.84 
L 233.68 151.344 
L 233.68 150.336 
L 242.608 150.336 
L 243.104 149.832 
L 267.904 149.832 
L 234.176 151.344 
L 236.656 151.344 
L 244.096 151.344 
L 244.592 150.84 
L 266.912 150.84 
L 273.36 151.848 
L 274.848 151.848 
L 275.84 152.352 
L 275.84 151.344 
L 277.824 151.344 
L 276.336 152.352 
L 277.328 152.352 
L 278.32 152.856 
L 278.32 151.848 
L 279.808 151.848 
L 278.816 152.856 
L 279.312 152.856 
L 280.304 153.36 
L 280.304 152.352 
L 281.296 152.352 
L 280.8 153.36 
L 281.792 153.864 
L 281.792 152.856 
L 282.784 152.856 
L 282.288 153.864 
L 283.28 154.368 
L 283.28 153.36 
L 284.272 153.36 
L 284.272 154.872 
L 284.272 153.864 
L 284.768 153.864 
L 285.264 155.376 
L 286.256 155.88 
L 287.744 156.888 
L 303.12 241.056 
L 314.528 241.056 
L 315.024 240.552 
L 315.024 239.544 
L 315.52 239.04 
L 315.52 238.032 
L 315.024 237.528 
L 315.024 231.984 
L 314.528 231.48 
L 314.528 228.96 
L 314.528 228.96 
" style="fill:none;stroke:#ff0000;stroke-linecap:square;stroke-width:1.5;"/>
   </g>
   <g id="patch_3">
    <path d="M 57.6 307.584 
L 57.6 41.472 
" style="fill:none;stroke:#000000;stroke-linecap:square;stroke-linejoin:miter;stroke-width:0.8;"/>
   </g>
   <g id="patch_4">
    <path d="M 414.72 307.584 
L 414.72 41.472 
" style="fill:none;stroke:#000000;stroke-linecap:square;stroke-linejoin:miter;stroke-width:0.8;"/>
   </g>
   <g id="patch_5">
    <path d="M 57.6 307.584 
L 414.72 307.584 
" style="fill:none;stroke:#000000;stroke-linecap:square;stroke-linejoin:miter;stroke-width:0.8;"/>
   </g>
   <g id="patch_6">
    <path d="M 57.6 41.472 
L 414.72 41.472 
" style="fill:none;stroke:#000000;stroke-linecap:square;stroke-linejoin:miter;stroke-width:0.8;"/>
   </g>
  </g>
 </g>
 <defs>
  <clipPath id="p279fb558f7">
   <rect height="266.112" width="357.12" x="57.6" y="41.472"/>
  </clipPath>
 </defs>
</svg>
