<?xml version="1.0" encoding="utf-8" standalone="no"?>
<!DOCTYPE svg PUBLIC "-//W3C//DTD SVG 1.1//EN"
  "http://www.w3.org/Graphics/SVG/1.1/DTD/svg11.dtd">
<!-- Created with matplotlib (https://matplotlib.org/) -->
<svg height="345.6pt" version="1.1" viewBox="0 0 460.8 345.6" width="460.8pt" xmlns="http://www.w3.org/2000/svg" xmlns:xlink="http://www.w3.org/1999/xlink">
 <defs>
  <style type="text/css">
*{stroke-linecap:butt;stroke-linejoin:round;}
  </style>
 </defs>
 <g id="figure_1">
  <g id="patch_1">
   <path d="M 0 345.6 
L 460.8 345.6 
L 460.8 0 
L 0 0 
z
" style="fill:#ffffff;"/>
  </g>
  <g id="axes_1">
   <g id="patch_2">
    <path d="M 57.6 307.584 
L 414.72 307.584 
L 414.72 41.472 
L 57.6 41.472 
z
" style="fill:#ffffff;"/>
   </g>
   <g id="matplotlib.axis_1">
    <g id="xtick_1">
     <g id="line2d_1">
      <defs>
       <path d="M 0 0 
L 0 3.5 
" id="mdc26ba4c98" style="stroke:#000000;stroke-width:0.8;"/>
      </defs>
      <g>
       <use style="stroke:#000000;stroke-width:0.8;" x="87.357119" xlink:href="#mdc26ba4c98" y="307.584"/>
      </g>
     </g>
     <g id="text_1">
      <!-- 0 -->
      <defs>
       <path d="M 31.78125 66.40625 
Q 24.171875 66.40625 20.328125 58.90625 
Q 16.5 51.421875 16.5 36.375 
Q 16.5 21.390625 20.328125 13.890625 
Q 24.171875 6.390625 31.78125 6.390625 
Q 39.453125 6.390625 43.28125 13.890625 
Q 47.125 21.390625 47.125 36.375 
Q 47.125 51.421875 43.28125 58.90625 
Q 39.453125 66.40625 31.78125 66.40625 
z
M 31.78125 74.21875 
Q 44.046875 74.21875 50.515625 64.515625 
Q 56.984375 54.828125 56.984375 36.375 
Q 56.984375 17.96875 50.515625 8.265625 
Q 44.046875 -1.421875 31.78125 -1.421875 
Q 19.53125 -1.421875 13.0625 8.265625 
Q 6.59375 17.96875 6.59375 36.375 
Q 6.59375 54.828125 13.0625 64.515625 
Q 19.53125 74.21875 31.78125 74.21875 
z
" id="DejaVuSans-48"/>
      </defs>
      <g transform="translate(84.175869 322.182437)scale(0.1 -0.1)">
       <use xlink:href="#DejaVuSans-48"/>
      </g>
     </g>
    </g>
    <g id="xtick_2">
     <g id="line2d_2">
      <g>
       <use style="stroke:#000000;stroke-width:0.8;" x="146.878397" xlink:href="#mdc26ba4c98" y="307.584"/>
      </g>
     </g>
     <g id="text_2">
      <!-- 20 -->
      <defs>
       <path d="M 19.1875 8.296875 
L 53.609375 8.296875 
L 53.609375 0 
L 7.328125 0 
L 7.328125 8.296875 
Q 12.9375 14.109375 22.625 23.890625 
Q 32.328125 33.6875 34.8125 36.53125 
Q 39.546875 41.84375 41.421875 45.53125 
Q 43.3125 49.21875 43.3125 52.78125 
Q 43.3125 58.59375 39.234375 62.25 
Q 35.15625 65.921875 28.609375 65.921875 
Q 23.96875 65.921875 18.8125 64.3125 
Q 13.671875 62.703125 7.8125 59.421875 
L 7.8125 69.390625 
Q 13.765625 71.78125 18.9375 73 
Q 24.125 74.21875 28.421875 74.21875 
Q 39.75 74.21875 46.484375 68.546875 
Q 53.21875 62.890625 53.21875 53.421875 
Q 53.21875 48.921875 51.53125 44.890625 
Q 49.859375 40.875 45.40625 35.40625 
Q 44.1875 33.984375 37.640625 27.21875 
Q 31.109375 20.453125 19.1875 8.296875 
z
" id="DejaVuSans-50"/>
      </defs>
      <g transform="translate(140.515897 322.182437)scale(0.1 -0.1)">
       <use xlink:href="#DejaVuSans-50"/>
       <use x="63.623047" xlink:href="#DejaVuSans-48"/>
      </g>
     </g>
    </g>
    <g id="xtick_3">
     <g id="line2d_3">
      <g>
       <use style="stroke:#000000;stroke-width:0.8;" x="206.399675" xlink:href="#mdc26ba4c98" y="307.584"/>
      </g>
     </g>
     <g id="text_3">
      <!-- 40 -->
      <defs>
       <path d="M 37.796875 64.3125 
L 12.890625 25.390625 
L 37.796875 25.390625 
z
M 35.203125 72.90625 
L 47.609375 72.90625 
L 47.609375 25.390625 
L 58.015625 25.390625 
L 58.015625 17.1875 
L 47.609375 17.1875 
L 47.609375 0 
L 37.796875 0 
L 37.796875 17.1875 
L 4.890625 17.1875 
L 4.890625 26.703125 
z
" id="DejaVuSans-52"/>
      </defs>
      <g transform="translate(200.037175 322.182437)scale(0.1 -0.1)">
       <use xlink:href="#DejaVuSans-52"/>
       <use x="63.623047" xlink:href="#DejaVuSans-48"/>
      </g>
     </g>
    </g>
    <g id="xtick_4">
     <g id="line2d_4">
      <g>
       <use style="stroke:#000000;stroke-width:0.8;" x="265.920953" xlink:href="#mdc26ba4c98" y="307.584"/>
      </g>
     </g>
     <g id="text_4">
      <!-- 60 -->
      <defs>
       <path d="M 33.015625 40.375 
Q 26.375 40.375 22.484375 35.828125 
Q 18.609375 31.296875 18.609375 23.390625 
Q 18.609375 15.53125 22.484375 10.953125 
Q 26.375 6.390625 33.015625 6.390625 
Q 39.65625 6.390625 43.53125 10.953125 
Q 47.40625 15.53125 47.40625 23.390625 
Q 47.40625 31.296875 43.53125 35.828125 
Q 39.65625 40.375 33.015625 40.375 
z
M 52.59375 71.296875 
L 52.59375 62.3125 
Q 48.875 64.0625 45.09375 64.984375 
Q 41.3125 65.921875 37.59375 65.921875 
Q 27.828125 65.921875 22.671875 59.328125 
Q 17.53125 52.734375 16.796875 39.40625 
Q 19.671875 43.65625 24.015625 45.921875 
Q 28.375 48.1875 33.59375 48.1875 
Q 44.578125 48.1875 50.953125 41.515625 
Q 57.328125 34.859375 57.328125 23.390625 
Q 57.328125 12.15625 50.6875 5.359375 
Q 44.046875 -1.421875 33.015625 -1.421875 
Q 20.359375 -1.421875 13.671875 8.265625 
Q 6.984375 17.96875 6.984375 36.375 
Q 6.984375 53.65625 15.1875 63.9375 
Q 23.390625 74.21875 37.203125 74.21875 
Q 40.921875 74.21875 44.703125 73.484375 
Q 48.484375 72.75 52.59375 71.296875 
z
" id="DejaVuSans-54"/>
      </defs>
      <g transform="translate(259.558453 322.182437)scale(0.1 -0.1)">
       <use xlink:href="#DejaVuSans-54"/>
       <use x="63.623047" xlink:href="#DejaVuSans-48"/>
      </g>
     </g>
    </g>
    <g id="xtick_5">
     <g id="line2d_5">
      <g>
       <use style="stroke:#000000;stroke-width:0.8;" x="325.442231" xlink:href="#mdc26ba4c98" y="307.584"/>
      </g>
     </g>
     <g id="text_5">
      <!-- 80 -->
      <defs>
       <path d="M 31.78125 34.625 
Q 24.75 34.625 20.71875 30.859375 
Q 16.703125 27.09375 16.703125 20.515625 
Q 16.703125 13.921875 20.71875 10.15625 
Q 24.75 6.390625 31.78125 6.390625 
Q 38.8125 6.390625 42.859375 10.171875 
Q 46.921875 13.96875 46.921875 20.515625 
Q 46.921875 27.09375 42.890625 30.859375 
Q 38.875 34.625 31.78125 34.625 
z
M 21.921875 38.8125 
Q 15.578125 40.375 12.03125 44.71875 
Q 8.5 49.078125 8.5 55.328125 
Q 8.5 64.0625 14.71875 69.140625 
Q 20.953125 74.21875 31.78125 74.21875 
Q 42.671875 74.21875 48.875 69.140625 
Q 55.078125 64.0625 55.078125 55.328125 
Q 55.078125 49.078125 51.53125 44.71875 
Q 48 40.375 41.703125 38.8125 
Q 48.828125 37.15625 52.796875 32.3125 
Q 56.78125 27.484375 56.78125 20.515625 
Q 56.78125 9.90625 50.3125 4.234375 
Q 43.84375 -1.421875 31.78125 -1.421875 
Q 19.734375 -1.421875 13.25 4.234375 
Q 6.78125 9.90625 6.78125 20.515625 
Q 6.78125 27.484375 10.78125 32.3125 
Q 14.796875 37.15625 21.921875 38.8125 
z
M 18.3125 54.390625 
Q 18.3125 48.734375 21.84375 45.5625 
Q 25.390625 42.390625 31.78125 42.390625 
Q 38.140625 42.390625 41.71875 45.5625 
Q 45.3125 48.734375 45.3125 54.390625 
Q 45.3125 60.0625 41.71875 63.234375 
Q 38.140625 66.40625 31.78125 66.40625 
Q 25.390625 66.40625 21.84375 63.234375 
Q 18.3125 60.0625 18.3125 54.390625 
z
" id="DejaVuSans-56"/>
      </defs>
      <g transform="translate(319.079731 322.182437)scale(0.1 -0.1)">
       <use xlink:href="#DejaVuSans-56"/>
       <use x="63.623047" xlink:href="#DejaVuSans-48"/>
      </g>
     </g>
    </g>
    <g id="xtick_6">
     <g id="line2d_6">
      <g>
       <use style="stroke:#000000;stroke-width:0.8;" x="384.963509" xlink:href="#mdc26ba4c98" y="307.584"/>
      </g>
     </g>
     <g id="text_6">
      <!-- 100 -->
      <defs>
       <path d="M 12.40625 8.296875 
L 28.515625 8.296875 
L 28.515625 63.921875 
L 10.984375 60.40625 
L 10.984375 69.390625 
L 28.421875 72.90625 
L 38.28125 72.90625 
L 38.28125 8.296875 
L 54.390625 8.296875 
L 54.390625 0 
L 12.40625 0 
z
" id="DejaVuSans-49"/>
      </defs>
      <g transform="translate(375.419759 322.182437)scale(0.1 -0.1)">
       <use xlink:href="#DejaVuSans-49"/>
       <use x="63.623047" xlink:href="#DejaVuSans-48"/>
       <use x="127.246094" xlink:href="#DejaVuSans-48"/>
      </g>
     </g>
    </g>
   </g>
   <g id="matplotlib.axis_2">
    <g id="ytick_1">
     <g id="line2d_7">
      <defs>
       <path d="M 0 0 
L -3.5 0 
" id="m3c07f7dd73" style="stroke:#000000;stroke-width:0.8;"/>
      </defs>
      <g>
       <use style="stroke:#000000;stroke-width:0.8;" x="57.6" xlink:href="#m3c07f7dd73" y="285.403594"/>
      </g>
     </g>
     <g id="text_7">
      <!-- −25 -->
      <defs>
       <path d="M 10.59375 35.5 
L 73.1875 35.5 
L 73.1875 27.203125 
L 10.59375 27.203125 
z
" id="DejaVuSans-8722"/>
       <path d="M 10.796875 72.90625 
L 49.515625 72.90625 
L 49.515625 64.59375 
L 19.828125 64.59375 
L 19.828125 46.734375 
Q 21.96875 47.46875 24.109375 47.828125 
Q 26.265625 48.1875 28.421875 48.1875 
Q 40.625 48.1875 47.75 41.5 
Q 54.890625 34.8125 54.890625 23.390625 
Q 54.890625 11.625 47.5625 5.09375 
Q 40.234375 -1.421875 26.90625 -1.421875 
Q 22.3125 -1.421875 17.546875 -0.640625 
Q 12.796875 0.140625 7.71875 1.703125 
L 7.71875 11.625 
Q 12.109375 9.234375 16.796875 8.0625 
Q 21.484375 6.890625 26.703125 6.890625 
Q 35.15625 6.890625 40.078125 11.328125 
Q 45.015625 15.765625 45.015625 23.390625 
Q 45.015625 31 40.078125 35.4375 
Q 35.15625 39.890625 26.703125 39.890625 
Q 22.75 39.890625 18.8125 39.015625 
Q 14.890625 38.140625 10.796875 36.28125 
z
" id="DejaVuSans-53"/>
      </defs>
      <g transform="translate(29.495313 289.202812)scale(0.1 -0.1)">
       <use xlink:href="#DejaVuSans-8722"/>
       <use x="83.789062" xlink:href="#DejaVuSans-50"/>
       <use x="147.412109" xlink:href="#DejaVuSans-53"/>
      </g>
     </g>
    </g>
    <g id="ytick_2">
     <g id="line2d_8">
      <g>
       <use style="stroke:#000000;stroke-width:0.8;" x="57.6" xlink:href="#m3c07f7dd73" y="248.447271"/>
      </g>
     </g>
     <g id="text_8">
      <!-- 0 -->
      <g transform="translate(44.2375 252.24649)scale(0.1 -0.1)">
       <use xlink:href="#DejaVuSans-48"/>
      </g>
     </g>
    </g>
    <g id="ytick_3">
     <g id="line2d_9">
      <g>
       <use style="stroke:#000000;stroke-width:0.8;" x="57.6" xlink:href="#m3c07f7dd73" y="211.490948"/>
      </g>
     </g>
     <g id="text_9">
      <!-- 25 -->
      <g transform="translate(37.875 215.290167)scale(0.1 -0.1)">
       <use xlink:href="#DejaVuSans-50"/>
       <use x="63.623047" xlink:href="#DejaVuSans-53"/>
      </g>
     </g>
    </g>
    <g id="ytick_4">
     <g id="line2d_10">
      <g>
       <use style="stroke:#000000;stroke-width:0.8;" x="57.6" xlink:href="#m3c07f7dd73" y="174.534625"/>
      </g>
     </g>
     <g id="text_10">
      <!-- 50 -->
      <g transform="translate(37.875 178.333844)scale(0.1 -0.1)">
       <use xlink:href="#DejaVuSans-53"/>
       <use x="63.623047" xlink:href="#DejaVuSans-48"/>
      </g>
     </g>
    </g>
    <g id="ytick_5">
     <g id="line2d_11">
      <g>
       <use style="stroke:#000000;stroke-width:0.8;" x="57.6" xlink:href="#m3c07f7dd73" y="137.578303"/>
      </g>
     </g>
     <g id="text_11">
      <!-- 75 -->
      <defs>
       <path d="M 8.203125 72.90625 
L 55.078125 72.90625 
L 55.078125 68.703125 
L 28.609375 0 
L 18.3125 0 
L 43.21875 64.59375 
L 8.203125 64.59375 
z
" id="DejaVuSans-55"/>
      </defs>
      <g transform="translate(37.875 141.377522)scale(0.1 -0.1)">
       <use xlink:href="#DejaVuSans-55"/>
       <use x="63.623047" xlink:href="#DejaVuSans-53"/>
      </g>
     </g>
    </g>
    <g id="ytick_6">
     <g id="line2d_12">
      <g>
       <use style="stroke:#000000;stroke-width:0.8;" x="57.6" xlink:href="#m3c07f7dd73" y="100.62198"/>
      </g>
     </g>
     <g id="text_12">
      <!-- 100 -->
      <g transform="translate(31.5125 104.421199)scale(0.1 -0.1)">
       <use xlink:href="#DejaVuSans-49"/>
       <use x="63.623047" xlink:href="#DejaVuSans-48"/>
       <use x="127.246094" xlink:href="#DejaVuSans-48"/>
      </g>
     </g>
    </g>
    <g id="ytick_7">
     <g id="line2d_13">
      <g>
       <use style="stroke:#000000;stroke-width:0.8;" x="57.6" xlink:href="#m3c07f7dd73" y="63.665657"/>
      </g>
     </g>
     <g id="text_13">
      <!-- 125 -->
      <g transform="translate(31.5125 67.464876)scale(0.1 -0.1)">
       <use xlink:href="#DejaVuSans-49"/>
       <use x="63.623047" xlink:href="#DejaVuSans-50"/>
       <use x="127.246094" xlink:href="#DejaVuSans-53"/>
      </g>
     </g>
    </g>
   </g>
   <g id="line2d_14">
    <path clip-path="url(#p94d7df3d2d)" d="M 87.357119 248.447271 
L 87.28446 248.367474 
L 87.229211 248.336904 
L 87.31865 248.262669 
L 86.819045 247.866958 
L 86.874204 247.811947 
L 86.643996 247.773221 
L 86.774503 247.685641 
L 86.581628 247.507169 
L 86.391439 247.514694 
L 86.540521 247.407943 
L 86.191004 247.106014 
L 86.248393 247.100183 
L 86.234501 246.964508 
L 85.964505 246.888229 
L 86.046743 246.822844 
L 85.868132 246.624374 
L 85.766204 246.583512 
L 85.822664 246.574485 
L 85.755537 246.337885 
L 85.590422 246.258115 
L 85.581568 246.078578 
L 85.568608 245.963463 
L 85.343784 245.94673 
L 85.518345 245.876315 
L 85.335378 245.681322 
L 85.194563 245.72239 
L 85.328909 245.571015 
L 85.177737 245.518706 
L 85.244313 245.437677 
L 85.239906 245.356583 
L 85.038999 245.298013 
L 85.207554 245.263754 
L 85.037015 245.066901 
L 84.92086 245.039269 
L 84.941511 244.994993 
L 85.029409 244.938157 
L 84.902966 244.867871 
L 85.006474 244.860628 
L 84.664383 244.229541 
L 84.737708 244.203702 
L 84.62988 244.036716 
L 84.467785 244.038065 
L 84.656032 243.973331 
L 84.649509 243.755431 
L 84.468236 243.738844 
L 84.58707 243.633828 
L 84.483195 243.502358 
L 84.449749 243.360893 
L 84.306528 243.339877 
L 84.445329 243.292431 
L 84.35017 243.045941 
L 84.260511 243.014152 
L 84.324809 242.933859 
L 84.479826 242.868661 
L 84.213073 242.660001 
L 84.301629 242.63285 
L 84.365392 242.567333 
L 84.1911 242.268061 
L 84.389805 242.191442 
L 84.273741 241.982144 
L 84.097996 241.92998 
L 84.322287 241.921718 
L 84.333366 241.723072 
L 84.171366 241.713522 
L 84.256879 241.657903 
L 84.290687 241.475933 
L 84.379195 241.35138 
L 84.131211 241.214495 
L 84.284775 241.191441 
L 84.385686 241.001803 
L 84.213615 240.975759 
L 84.241348 240.885559 
L 84.442546 240.585329 
L 84.228429 240.517136 
L 84.399325 240.456612 
L 84.395341 240.268579 
L 84.265896 240.264666 
L 84.452181 240.202669 
L 84.272328 240.045268 
L 84.444428 240.055075 
L 84.573339 239.820392 
L 84.337716 239.76824 
L 84.554393 239.730372 
L 84.598909 239.575739 
L 84.482521 239.385048 
L 84.543113 239.347668 
L 84.467158 239.2634 
L 84.564029 239.291819 
L 84.660439 239.111674 
L 84.574764 238.957447 
L 84.692196 238.971123 
L 84.788757 238.6726 
L 84.662115 238.643961 
L 84.722463 238.585193 
L 84.930605 238.469949 
L 84.975534 238.034261 
L 85.162111 237.916385 
L 84.881194 237.7783 
L 85.177231 237.800813 
L 85.34627 237.514826 
L 85.132284 237.437532 
L 85.170382 237.457666 
L 85.411794 237.376088 
L 85.318076 237.173194 
L 85.437584 237.009221 
L 85.430401 236.94327 
L 85.29073 236.922693 
L 85.540194 236.961307 
L 85.730727 236.723605 
L 85.520815 236.616602 
L 85.635729 236.571513 
L 85.835663 236.395184 
L 85.868369 236.100433 
L 86.116802 236.084586 
L 86.197559 235.852638 
L 86.05106 235.728018 
L 86.047251 235.803274 
L 86.31455 235.564659 
L 86.284799 235.523337 
L 86.476617 235.369655 
L 86.472823 235.236131 
L 86.291883 235.246026 
L 86.629889 235.218097 
L 86.866386 235.079817 
L 86.674231 234.875256 
L 86.636115 234.943444 
L 86.896419 234.834191 
L 87.080758 234.687098 
L 86.92222 234.637322 
L 87.11782 234.593418 
L 87.105381 234.365464 
L 87.519383 234.214535 
L 87.42164 233.96293 
L 87.479582 233.949185 
L 87.788938 233.854742 
L 87.793798 233.761465 
L 87.986995 233.685921 
L 87.820236 233.530196 
L 87.935374 233.515973 
L 88.186136 233.508157 
L 88.526867 232.930246 
L 88.793732 232.85139 
L 88.919682 232.683934 
L 88.655219 232.575258 
L 88.705614 232.571959 
L 89.014838 232.609604 
L 89.285276 232.394795 
L 89.188442 232.192383 
L 89.194489 232.233278 
L 89.898818 231.861348 
L 89.919819 231.562732 
L 89.722589 231.528602 
L 90.039575 231.55788 
L 90.338499 231.344981 
L 90.238901 231.249704 
L 90.424298 231.032671 
L 91.032267 230.818979 
L 90.915743 230.650372 
L 90.980841 230.581033 
L 90.846097 230.556216 
L 91.116575 230.632463 
L 91.521663 230.35755 
L 91.531081 230.146504 
L 91.559096 230.090395 
L 91.828665 229.992261 
L 91.714219 229.870665 
L 91.839899 229.929447 
L 92.381734 229.784812 
L 92.334115 229.466624 
L 92.078988 229.475551 
L 92.480639 229.618932 
L 93.001574 229.339956 
L 92.999058 229.087669 
L 92.867303 229.105274 
L 93.235757 228.980669 
L 93.46765 228.885447 
L 94.018035 228.515527 
L 93.878463 228.43373 
L 93.955995 228.39648 
L 94.153338 228.428082 
L 94.469031 228.255562 
L 94.712552 228.25248 
L 94.96407 227.9773 
L 94.829199 227.944682 
L 95.002933 227.801989 
L 94.806934 227.848529 
L 95.456543 227.789855 
L 95.805615 227.571144 
L 95.59346 227.372316 
L 95.976402 227.362278 
L 96.710329 226.869559 
L 96.859973 226.813157 
L 97.110777 226.598495 
L 96.784698 226.594479 
L 97.353654 226.589571 
L 98.051433 226.454417 
L 97.89009 225.992923 
L 97.643967 226.040602 
L 98.224282 226.157753 
L 98.79299 225.791201 
L 98.497655 225.578854 
L 98.686708 225.613815 
L 99.106618 225.374674 
L 99.013232 225.310044 
L 99.356997 225.341421 
L 100.052107 225.217347 
L 100.075856 224.760912 
L 100.432517 224.824553 
L 101.430856 224.288961 
L 101.768696 224.003524 
L 101.601767 223.996084 
L 101.764408 223.854668 
L 101.972748 223.964764 
L 102.369165 223.891661 
L 102.804844 223.678058 
L 102.513922 223.445289 
L 102.724999 223.350462 
L 103.034842 223.385841 
L 104.029712 223.003648 
L 104.366901 222.927016 
L 104.846201 222.61999 
L 104.611489 222.520248 
L 104.817184 222.437623 
L 104.91673 222.560749 
L 106.117509 222.492517 
L 106.442411 222.075518 
L 106.466321 221.786333 
L 106.110159 221.710197 
L 106.83247 221.778943 
L 107.497225 221.519176 
L 107.455117 221.306433 
L 108.689747 221.041843 
L 108.476744 220.904103 
L 108.691434 221.036451 
L 110.033882 220.804364 
L 110.069794 220.333577 
L 110.602875 220.171206 
L 110.490393 219.943432 
L 111.031836 220.101408 
L 111.70019 219.938602 
L 112.229737 219.931739 
L 113.154231 219.486713 
L 113.306569 219.102249 
L 113.561324 219.104631 
L 113.53976 218.723724 
L 113.95839 219.016671 
L 114.78541 218.911254 
L 115.572407 218.626552 
L 115.958941 218.030054 
L 116.616137 218.379244 
L 117.67442 217.708165 
L 117.450238 217.789695 
L 118.974835 217.593101 
L 120.091455 216.961951 
L 119.8477 216.653389 
L 119.547156 216.463188 
L 119.935976 217.056681 
L 121.874256 216.974607 
L 122.729787 216.444049 
L 122.471279 215.802355 
L 122.485822 215.890271 
L 123.59677 215.940835 
L 124.513459 215.458559 
L 124.929787 215.522737 
L 126.12761 215.372042 
L 127.357175 214.648321 
L 126.315052 214.316542 
L 126.493841 214.707126 
L 127.094711 214.797606 
L 129.566572 214.658364 
L 129.882136 214.220556 
L 131.328207 213.799417 
L 130.968989 213.666035 
L 132.011749 213.799692 
L 132.642312 214.028575 
L 134.949707 213.490409 
L 135.659248 213.404063 
L 136.206001 212.760989 
L 137.426234 211.831256 
L 136.290277 211.305981 
L 137.314531 211.886986 
L 138.608892 211.970929 
L 142.06416 211.979133 
L 144.123711 210.659896 
L 144.762714 211.095496 
L 145.192318 211.199783 
L 147.225879 212.179326 
L 149.71914 210.765718 
L 152.904433 210.535443 
L 153.751348 209.980813 
L 155.851534 210.525214 
L 162.430338 208.318208 
L 163.347739 207.233123 
L 161.478476 205.68407 
L 163.147093 206.205732 
L 166.745208 203.249341 
L 179.423164 206.410453 
L 179.845691 205.293057 
L 177.044756 203.362837 
L 173.182243 201.548042 
L 183.910331 201.830458 
L 200.728577 200.220614 
L 203.690535 202.256372 
L 220.459676 205.973963 
L 228.616685 218.207705 
L 237.944336 216.249452 
L 213.392776 226.539251 
L 212.349039 216.916622 
L 368.187783 142.450674 
L 336.219572 124.376716 
L 339.37216 123.73708 
L 331.521772 132.91841 
L 314.368884 134.170264 
L 304.295799 138.295229 
L 308.887974 142.831012 
L 295.208416 142.552761 
L 299.116827 141.620842 
L 296.645324 146.775843 
L 290.251534 145.345602 
L 284.08436 146.268379 
L 289.849147 146.060457 
L 281.478708 145.337476 
L 277.522898 147.63414 
L 270.158435 148.727119 
L 270.571974 153.250944 
L 273.435479 152.991709 
L 270.391602 153.873376 
L 272.974484 156.045207 
L 269.862539 156.22173 
L 270.830688 156.382009 
L 270.36126 155.075013 
L 267.733684 155.01911 
L 265.654874 155.992697 
L 264.855548 157.230816 
L 266.49629 157.652051 
L 268.190719 156.823561 
L 266.055317 157.024746 
L 263.207215 157.548385 
L 262.534203 159.081473 
L 261.40649 158.942773 
L 262.50277 159.747422 
L 262.2568 158.600005 
L 260.879463 159.457937 
L 258.965566 159.322941 
L 258.85611 159.980066 
L 257.258082 160.119862 
L 257.677 160.488777 
L 256.752323 160.037587 
L 255.819644 159.916547 
L 254.735192 160.699109 
L 253.509845 160.80038 
L 252.711162 161.25395 
L 252.488656 161.248802 
L 252.123566 161.719685 
L 252.429609 161.387583 
L 250.859172 161.160599 
L 250.26222 161.302694 
L 249.281104 161.759106 
L 249.235215 161.983252 
L 249.478148 162.193672 
L 249.057809 161.736438 
L 247.714346 161.515634 
L 247.04242 161.72053 
L 246.241019 162.182526 
L 246.258134 162.406647 
L 246.166074 162.359526 
L 245.117222 162.298128 
L 244.42589 162.613185 
L 244.518403 162.617116 
L 243.168 162.513502 
L 242.011786 162.802121 
L 242.156221 163.23143 
L 242.373705 163.183306 
L 242.095983 163.225549 
L 240.928861 163.027142 
L 239.93792 163.499494 
L 240.163203 163.672343 
L 240.061521 163.433987 
L 239.708888 163.597032 
L 239.467653 163.499042 
L 239.222703 163.56407 
L 238.431514 163.532701 
L 237.601624 163.608044 
L 237.635557 163.731688 
L 237.167227 163.606374 
L 237.175835 163.819662 
L 236.598027 163.713269 
L 236.211041 163.82722 
L 235.699967 163.849737 
L 234.964786 164.088321 
L 235.114379 164.303288 
L 235.200714 164.014487 
L 234.648617 163.968405 
L 234.243765 163.811856 
L 233.514723 164.069636 
L 233.585131 164.246419 
L 233.586949 164.233265 
L 233.246351 163.948981 
L 232.772839 164.084531 
L 232.471156 163.934584 
L 232.078526 164.153601 
L 232.004395 163.946565 
L 231.105133 164.153396 
L 231.038853 164.378413 
L 231.26959 164.151509 
L 230.041668 163.943481 
L 229.162214 164.268198 
L 229.38548 164.493264 
L 229.216816 164.307344 
L 228.171863 164.258235 
L 227.940062 164.429487 
L 227.839248 164.364779 
L 227.067392 164.543403 
L 227.134946 164.487122 
L 226.151211 164.360571 
L 225.637085 164.557279 
L 225.849667 164.702181 
L 225.540551 164.624239 
L 225.618772 164.628383 
L 224.945618 164.523349 
L 224.778684 164.690495 
L 224.594758 164.632482 
L 223.908853 164.729336 
L 223.926962 164.836069 
L 223.781506 164.827875 
L 223.807476 164.756476 
L 223.188742 164.587886 
L 222.462275 164.852302 
L 222.536665 164.953376 
L 222.313539 164.786099 
L 221.775335 164.720817 
L 221.635413 164.922029 
L 221.592723 164.800668 
L 221.286397 164.888352 
L 221.101846 164.814952 
L 220.809637 164.957142 
L 220.836346 164.867957 
L 220.412107 164.699037 
L 219.723592 164.844327 
L 219.605225 164.993602 
L 219.681341 164.860297 
L 219.022073 164.722111 
L 218.757381 164.815828 
L 218.517667 164.756123 
L 218.313136 164.905816 
L 218.275824 164.807282 
L 217.966798 164.875448 
L 218.007114 164.81951 
L 215.914751 164.676273 
L 215.39841 164.827718 
L 215.491626 164.689719 
L 214.737247 164.660996 
L 213.80766 164.695169 
L 213.865509 164.722137 
L 213.651251 164.607519 
L 213.043506 164.604181 
L 212.893827 164.780816 
L 213.022727 164.636876 
L 212.632643 164.505206 
L 211.977245 164.572889 
L 212.086708 164.714598 
L 211.997867 164.544757 
L 211.798252 164.580425 
L 211.576513 164.500954 
L 211.433715 164.569807 
L 211.265242 164.46673 
L 210.692228 164.638556 
L 210.796923 164.540332 
L 210.023348 164.433213 
L 209.909258 164.503975 
L 209.758113 164.411894 
L 209.303033 164.430285 
L 209.224253 164.328888 
L 208.68177 164.380625 
L 208.608558 164.463329 
L 208.766136 164.363246 
L 208.346725 164.210136 
L 207.289372 164.235776 
L 207.24864 164.134041 
L 206.710997 164.180325 
L 206.586763 164.230971 
L 206.686744 164.208931 
L 206.344991 164.012261 
L 205.492817 163.994788 
L 205.371226 163.915213 
L 204.742505 163.903904 
L 204.400041 163.820377 
L 203.850825 163.766837 
L 203.832312 163.844139 
L 203.762776 163.758009 
L 203.704571 163.760072 
L 203.546239 163.597343 
L 202.936723 163.572713 
L 202.717624 163.505955 
L 202.336846 163.499699 
L 201.992648 163.489055 
L 201.990018 163.505832 
L 201.973685 163.472843 
L 201.862725 163.317406 
L 201.20696 163.433985 
L 201.228182 163.275902 
L 200.760928 163.244475 
L 200.326418 163.102095 
L 199.904376 163.026621 
L 199.721815 163.093131 
L 199.844136 163.048545 
L 199.296822 162.891814 
L 199.238875 162.935625 
L 198.98068 162.879897 
L 198.839886 162.855061 
L 198.913946 162.879078 
L 198.806647 162.726709 
L 197.772965 162.601437 
L 197.696841 162.497708 
L 197.379913 162.511199 
L 197.38555 162.403909 
L 196.984336 162.293703 
L 196.752261 162.388479 
L 196.781093 162.332843 
L 196.784889 162.248841 
L 194.7347 161.809213 
L 194.822538 161.774169 
L 194.564635 161.59321 
L 193.83232 161.46995 
L 193.886659 161.451597 
L 193.653466 161.335782 
L 193.451861 161.373811 
L 193.505259 161.273698 
L 193.053096 161.173825 
L 192.961093 161.237104 
L 192.957821 161.175856 
L 192.890501 161.078017 
L 192.582766 161.007886 
L 191.935378 160.770688 
L 191.762152 160.726444 
L 191.40833 160.535474 
L 191.137052 160.532986 
L 191.212695 160.49109 
L 191.181727 160.357537 
L 190.436646 160.178836 
L 190.473067 160.166124 
L 189.745615 159.863025 
L 189.585148 159.776934 
L 189.262261 159.623894 
L 189.118609 159.603957 
L 189.086796 159.49095 
L 188.750049 159.421357 
L 188.404885 159.184002 
L 188.247398 159.115184 
L 188.090566 159.184592 
L 188.227119 159.123915 
L 188.165908 158.992828 
L 187.633745 158.85047 
L 185.911732 157.781479 
L 185.931009 157.746655 
L 185.774527 157.602028 
L 185.554373 157.655537 
L 185.662857 157.54987 
L 185.370594 157.415802 
L 185.245333 157.369929 
L 185.000654 157.102929 
L 184.765472 157.111565 
L 184.916381 157.028803 
L 184.105478 156.52258 
L 184.124336 156.455784 
L 183.719303 156.253544 
L 183.75094 156.284908 
L 183.835692 156.131296 
L 183.113353 155.662876 
L 183.189527 155.649943 
L 183.193848 155.57834 
L 183.064474 155.460858 
L 182.829706 155.459524 
L 182.969482 155.374413 
L 182.694616 155.232761 
L 182.694616 155.232761 
" style="fill:none;stroke:#0000ff;stroke-linecap:square;stroke-opacity:0.5;stroke-width:1.5;"/>
   </g>
   <g id="line2d_15">
    <path clip-path="url(#p94d7df3d2d)" d="M 267.031301 241.056 
L 264.100737 240.98791 
L 261.154129 240.774031 
L 258.264995 240.403945 
L 255.478621 239.873607 
L 252.87642 239.197512 
L 250.395738 238.356657 
L 248.162408 237.3947 
L 246.132914 236.298702 
L 244.362236 235.104248 
L 242.8599 233.828252 
L 240.306609 233.438511 
L 234.380325 233.103745 
L 228.536784 232.567067 
L 222.787567 231.773614 
L 217.276852 230.675343 
L 214.637132 229.994445 
L 212.110692 229.22432 
L 209.701102 228.364671 
L 207.410005 227.416722 
L 205.232105 226.381545 
L 201.325188 224.160607 
L 197.806019 221.773538 
L 192.899782 218.079142 
L 186.782015 213.003366 
L 177.920032 205.298143 
L 175.008647 202.712977 
L 172.802244 201.877005 
L 170.265758 201.078944 
L 168.082118 200.083457 
L 166.319562 198.886273 
L 165.171929 197.542093 
L 164.736965 196.083105 
L 165.208489 194.629434 
L 166.383672 193.277705 
L 162.17326 191.224863 
L 160.309191 190.107651 
L 158.590001 188.884574 
L 157.099472 187.61214 
L 155.811777 186.271141 
L 154.759361 184.89752 
L 153.923863 183.468549 
L 153.327172 182.021989 
L 152.96487 180.565673 
L 152.83108 179.072429 
L 152.930125 177.591401 
L 153.251413 176.150719 
L 153.813502 174.688866 
L 154.596845 173.274245 
L 155.613764 171.884014 
L 156.866125 170.526935 
L 158.323497 169.237559 
L 159.973952 168.021483 
L 161.843962 166.862404 
L 163.88979 165.791348 
L 164.782887 164.573372 
L 164.872812 163.085666 
L 165.482753 161.652857 
L 166.586814 160.268026 
L 168.124788 159.007387 
L 170.049586 157.893861 
L 172.370449 156.930634 
L 171.103287 156.16369 
L 168.706369 155.298102 
L 166.520572 154.3179 
L 164.520563 153.216344 
L 162.760194 152.028376 
L 161.22712 150.765977 
L 159.894916 149.423456 
L 158.792981 148.052258 
L 157.889559 146.643995 
L 157.174412 145.209894 
L 156.637301 143.761182 
L 156.263631 142.287116 
L 154.620424 141.326169 
L 152.072082 140.554605 
L 149.939127 139.537685 
L 148.306158 138.313455 
L 147.257774 136.919959 
L 146.88 135.463747 
L 147.160393 134.00508 
L 148.100786 132.594103 
L 149.622255 131.340469 
L 151.673812 130.271889 
L 154.153298 129.449023 
L 156.935505 128.919294 
L 159.840926 128.712196 
L 171.774684 128.708785 
L 174.39827 128.490234 
L 175.349827 127.082847 
L 176.582233 125.756808 
L 178.121564 124.490554 
L 180.003594 123.323141 
L 182.165245 122.302955 
L 184.563324 121.450108 
L 187.174539 120.774017 
L 189.994414 120.280097 
L 192.942662 119.981213 
L 194.755426 118.83646 
L 196.74982 117.742832 
L 198.91732 116.735855 
L 200.911273 115.67812 
L 201.995888 114.300502 
L 202.748215 112.866249 
L 203.213903 111.40093 
L 203.41237 109.938967 
L 204.092414 108.534416 
L 206.745612 108 
L 209.070436 108.818057 
L 209.344263 110.261093 
L 209.106389 111.735857 
L 208.634058 113.204101 
L 209.932661 113.530879 
L 212.737183 113.092182 
L 215.659088 112.763207 
L 218.61836 112.552728 
L 224.548793 112.464836 
L 230.498122 112.769565 
L 236.268955 113.44844 
L 241.800322 114.489184 
L 247.086458 115.896054 
L 251.881381 117.598604 
L 254.126834 118.569372 
L 256.241821 119.609034 
L 258.219261 120.714072 
L 260.052076 121.88097 
L 261.733185 123.106212 
L 263.255508 124.386281 
L 264.597172 125.701897 
L 265.76997 127.064242 
L 266.756382 128.453144 
L 267.564605 129.881087 
L 268.175395 131.309556 
L 268.608031 132.787036 
L 268.844147 134.256546 
L 268.891113 135.730459 
L 268.74798 137.212352 
L 268.418052 138.668426 
L 267.88493 140.148015 
L 267.18318 141.559407 
L 266.285038 142.968239 
L 265.184378 144.368443 
L 263.939124 145.69155 
L 262.496921 146.997116 
L 260.892474 148.249573 
L 259.154189 149.431838 
L 257.248177 150.568246 
L 255.201078 151.641036 
L 253.019973 152.64669 
L 250.711942 153.581692 
L 245.773584 155.217027 
L 240.449489 156.524782 
L 234.801156 157.483626 
L 228.996019 158.065954 
L 223.065942 158.273374 
L 181.369661 158.303652 
L 178.488882 158.630308 
L 175.85147 159.305145 
L 173.616607 160.292491 
L 171.966977 161.50599 
L 170.971681 162.883499 
L 170.695532 164.36753 
L 171.166354 165.811526 
L 172.331644 167.17209 
L 174.15211 168.352756 
L 176.453088 169.254116 
L 179.167074 169.852203 
L 182.129795 170.09553 
L 202.942518 170.099867 
L 205.855441 167.584611 
L 207.564403 166.380601 
L 209.471601 165.256376 
L 211.592769 164.20531 
L 213.891308 163.249055 
L 216.289018 162.414725 
L 218.899266 161.664781 
L 221.5758 161.043837 
L 224.371588 160.537316 
L 227.274506 160.151241 
L 230.192422 159.896797 
L 233.148242 159.768696 
L 236.103679 159.766738 
L 239.081231 159.89223 
L 242.033235 160.14724 
L 244.89333 160.524915 
L 247.698153 161.029366 
L 250.383552 161.648881 
L 252.93732 162.377396 
L 255.388171 163.224318 
L 257.67723 164.17143 
L 259.791634 165.212346 
L 261.718522 166.340676 
L 263.445033 167.550031 
L 264.958303 168.834022 
L 266.225266 170.162405 
L 267.26165 171.550639 
L 268.043484 172.966933 
L 268.579397 174.429392 
L 268.855166 175.905109 
L 268.873933 177.381328 
L 268.641811 178.83566 
L 268.1465 180.305002 
L 267.403408 181.729103 
L 266.404548 183.126233 
L 265.173181 184.464469 
L 263.694152 185.75947 
L 261.999888 186.980825 
L 260.137593 188.103182 
L 258.054601 189.159625 
L 255.794738 190.123367 
L 253.370865 190.988018 
L 250.795843 191.747191 
L 248.130416 192.38432 
L 245.343638 192.907341 
L 242.499394 193.304195 
L 239.56138 193.579306 
L 236.595758 193.725441 
L 233.639145 193.744245 
L 230.643744 193.634297 
L 227.726271 193.398339 
L 224.844968 193.034205 
L 222.016576 192.541128 
L 219.307303 191.931034 
L 216.729101 191.210267 
L 214.251042 190.36924 
L 211.97376 189.444431 
L 209.826871 188.408806 
L 206.138 190.66069 
L 204.029334 191.672041 
L 201.671775 192.602361 
L 199.163085 193.403045 
L 196.521759 194.067385 
L 193.766295 194.588674 
L 190.860592 194.965732 
L 187.93106 195.177779 
L 184.971251 195.226821 
L 182.011106 195.110884 
L 179.046291 194.826566 
L 176.203219 194.388855 
L 173.49784 193.81095 
L 171.50592 194.185765 
L 170.715801 195.627608 
L 171.100679 197.061275 
L 172.796153 198.269398 
L 175.168272 199.160651 
L 177.84025 199.789636 
L 179.749838 200.875408 
L 190.024585 209.870406 
L 197.600045 216.229106 
L 200.843419 218.728701 
L 204.215803 221.152994 
L 207.921819 223.474822 
L 209.94208 224.540712 
L 212.165466 225.552889 
L 214.526694 226.46228 
L 217.002712 227.259741 
L 219.608315 227.956193 
L 225.118034 229.057084 
L 230.872066 229.815618 
L 236.761077 230.303783 
L 242.670685 230.581204 
L 251.58441 230.707516 
L 257.548052 230.601891 
L 263.476074 230.306847 
L 269.330864 229.808708 
L 275.109916 229.090147 
L 280.765865 228.137348 
L 286.186887 226.954398 
L 288.832251 226.266679 
L 289.249807 224.99132 
L 288.782975 223.514591 
L 288.168539 222.0809 
L 287.37655 220.651235 
L 286.964306 219.240186 
L 289.461419 219.196772 
L 290.448209 220.597739 
L 291.191787 222.022976 
L 291.783117 223.466988 
L 292.229352 224.92853 
L 294.241556 224.593032 
L 298.939036 222.788351 
L 303.283185 220.740517 
L 307.165009 218.491989 
L 308.918044 217.302031 
L 309.690985 216.067092 
L 308.164348 214.783991 
L 304.638716 212.414418 
L 306.314985 211.489823 
L 308.496597 212.469296 
L 310.252628 213.643335 
L 311.832757 214.897479 
L 313.234719 213.599539 
L 314.484846 212.264376 
L 315.596561 210.907012 
L 316.58795 209.502274 
L 317.434541 208.080928 
L 318.135989 206.646261 
L 318.691951 205.20156 
L 319.102085 203.750111 
L 319.369832 202.266091 
L 319.485137 200.781958 
L 319.341983 197.837247 
L 318.796993 194.89239 
L 317.846555 191.96135 
L 316.523885 189.092004 
L 314.848875 186.248888 
L 312.893468 183.465121 
L 310.774601 180.710681 
L 311.667785 179.369596 
L 314.447311 179.015398 
L 316.549317 179.993881 
L 318.702297 182.74262 
L 320.635361 185.53691 
L 322.289367 188.371989 
L 323.626197 191.258805 
L 324.608106 194.185175 
L 325.210623 197.111073 
L 325.44 200.078884 
L 325.400039 201.553494 
L 325.222824 203.027494 
L 324.907555 204.500229 
L 324.460896 205.950915 
L 323.88013 207.394718 
L 323.155901 208.846464 
L 322.317476 210.250449 
L 321.34911 211.639506 
L 320.25109 213.010931 
L 317.66724 215.690068 
L 314.807667 218.247541 
L 315.625428 219.665356 
L 316.188488 221.107935 
L 316.477938 222.581076 
L 316.485122 224.045161 
L 316.240645 225.52294 
L 315.73097 226.983539 
L 314.935723 228.411732 
L 313.833603 229.791176 
L 312.443101 231.071882 
L 310.692754 232.288044 
L 308.663436 233.360834 
L 306.345766 234.292351 
L 303.789129 235.065716 
L 301.099581 235.665496 
L 298.278506 236.110896 
L 295.358856 236.411221 
L 292.372122 236.577126 
L 289.410703 236.619928 
L 286.940783 237.088142 
L 284.851821 238.138763 
L 282.460127 239.027883 
L 279.880237 239.740504 
L 277.112026 240.293883 
L 274.220969 240.689035 
L 271.320945 240.93184 
L 268.364978 241.044821 
L 268.734185 239.55787 
L 271.700824 239.416557 
L 274.611863 239.124312 
L 277.455972 238.656833 
L 280.148063 237.998628 
L 282.561256 237.161809 
L 283.471406 236.320479 
L 280.602909 235.953216 
L 277.80442 235.414942 
L 275.20568 234.711792 
L 272.85295 233.84077 
L 270.771736 232.768084 
L 253.161026 233.653743 
L 247.177961 233.629286 
L 246.985733 234.384618 
L 248.771796 235.562965 
L 250.827487 236.61741 
L 253.158534 237.54502 
L 255.689062 238.300986 
L 258.4262 238.885151 
L 261.278286 239.284372 
L 264.227381 239.510998 
L 289.880308 235.142851 
L 292.825374 235.078945 
L 295.79803 234.880151 
L 298.659314 234.531899 
L 301.473722 233.998129 
L 304.077544 233.28083 
L 306.411528 232.38499 
L 308.457487 231.3124 
L 310.163269 230.088789 
L 311.473126 228.788103 
L 312.457065 227.387803 
L 313.109835 225.939696 
L 313.459155 224.464272 
L 313.531148 223.01053 
L 313.307049 221.531817 
L 312.774708 220.063938 
L 311.288317 220.503725 
L 307.371732 222.738909 
L 303.062596 224.786486 
L 298.429757 226.621181 
L 293.462402 228.253852 
L 292.644943 229.527808 
L 292.335709 230.995735 
L 291.733056 232.451498 
L 290.821569 233.852251 
L 286.323057 235.03304 
L 287.716396 233.729321 
L 288.712681 232.336922 
L 289.343541 230.891534 
L 289.654154 229.418645 
L 278.914082 231.54512 
L 276.060415 231.981796 
L 274.339969 232.50988 
L 276.680455 233.424878 
L 279.314251 234.134145 
L 282.095686 234.634696 
L 285.016907 234.955077 
L 187.221424 193.723034 
L 190.173783 193.526606 
L 193.046322 193.151111 
L 195.814709 192.604355 
L 198.454613 191.894146 
L 200.85875 191.060653 
L 203.09853 190.08909 
L 205.152053 188.986483 
L 206.935343 187.805723 
L 206.838908 186.613623 
L 205.184219 185.352419 
L 203.790999 184.057239 
L 202.621978 182.698969 
L 201.702062 181.304663 
L 201.024822 179.860386 
L 200.607043 178.39425 
L 200.449077 176.913444 
L 200.547536 175.453455 
L 200.906767 173.979243 
L 201.524413 172.526672 
L 201.082085 171.57812 
L 180.275918 171.487872 
L 177.392735 171.10756 
L 174.71708 170.442681 
L 172.380651 169.53306 
L 168.883706 167.452385 
L 166.732118 168.509718 
L 164.851019 169.648024 
L 163.213104 170.869073 
L 161.80373 172.182529 
L 160.67645 173.531334 
L 159.796222 174.950966 
L 159.188076 176.407332 
L 158.857355 177.862779 
L 158.79107 179.342872 
L 158.989562 180.811445 
L 159.465781 182.292715 
L 160.201886 183.71721 
L 161.204611 185.10404 
L 162.472234 186.441199 
L 164.001365 187.715655 
L 165.75181 188.892101 
L 167.782837 189.999892 
L 169.970096 190.96612 
L 172.402952 191.824421 
L 175.017596 192.544104 
L 177.740349 193.099449 
L 180.604925 193.493121 
L 183.591223 193.711195 
L 238.60681 192.152166 
L 241.545577 191.898007 
L 244.428553 191.504099 
L 247.192582 190.980527 
L 249.86472 190.32296 
L 252.384463 189.546205 
L 254.772814 188.642703 
L 256.94003 187.648191 
L 258.909889 186.556825 
L 260.693589 185.356585 
L 262.220282 184.092484 
L 263.504657 182.753861 
L 264.517586 181.370922 
L 265.267178 179.930039 
L 265.728475 178.487114 
L 265.916965 177.002931 
L 265.826138 175.531994 
L 265.450461 174.049966 
L 264.801682 172.614992 
L 263.876356 171.211637 
L 262.676068 169.849819 
L 261.253322 168.579926 
L 259.548533 167.349747 
L 257.619314 166.209212 
L 255.516228 165.181592 
L 253.225723 164.255764 
L 250.722304 163.427091 
L 248.099308 162.728972 
L 245.378788 162.163081 
L 242.534508 161.724464 
L 239.629117 161.423983 
L 236.681034 161.261805 
L 233.663887 161.238253 
L 230.688832 161.354907 
L 227.798987 161.606002 
L 224.916011 161.99991 
L 222.151981 162.523483 
L 219.479844 163.18105 
L 216.9601 163.957805 
L 214.57175 164.861307 
L 212.404534 165.855819 
L 210.405079 166.965249 
L 208.650975 168.147424 
L 207.124282 169.411526 
L 205.839907 170.750149 
L 204.826978 172.133088 
L 204.077385 173.573971 
L 203.610676 175.041312 
L 203.427599 176.501079 
L 203.522643 177.993442 
L 203.896982 179.450834 
L 204.561043 180.904707 
L 205.477045 182.282398 
L 206.677579 183.638452 
L 208.146392 184.941532 
L 209.825225 186.146746 
L 211.758506 187.287494 
L 213.876941 188.322428 
L 216.183857 189.254646 
L 218.664496 190.076378 
L 221.258123 190.768955 
L 223.991358 191.339862 
L 226.850183 191.781717 
L 229.768501 192.083067 
L 232.72768 192.244019 
L 296.195499 183.223893 
L 291.193231 179.544628 
L 277.991967 169.703777 
L 279.206991 168.613389 
L 281.322444 169.525216 
L 294.519469 179.35668 
L 295.681592 179.783249 
L 295.681592 167.961288 
L 297.629981 167.179146 
L 299.12579 167.521602 
L 296.952088 164.769099 
L 295.951061 163.387775 
L 294.285022 162.556647 
L 291.348643 162.708318 
L 288.398378 162.608581 
L 285.510834 162.271652 
L 282.766962 161.673552 
L 280.341254 160.831705 
L 278.297988 159.762483 
L 276.711321 158.518612 
L 275.599164 157.138226 
L 274.991426 155.707792 
L 274.863011 154.224525 
L 275.225537 152.750255 
L 276.066243 151.348997 
L 277.417765 150.019114 
L 279.214011 148.860764 
L 281.470685 147.890111 
L 284.053674 147.16855 
L 286.88433 146.698948 
L 289.729473 146.42559 
L 289.878824 143.49351 
L 290.31187 140.538036 
L 291.007815 137.587141 
L 291.93155 134.692483 
L 293.092491 131.776138 
L 294.456953 128.899353 
L 296.023181 126.045138 
L 297.789604 123.213553 
L 299.743502 120.435558 
L 301.957995 117.688799 
L 304.296205 116.890236 
L 306.952533 117.448057 
L 307.4372 118.823846 
L 305.277271 121.592407 
L 303.366496 124.385408 
L 301.653724 127.214366 
L 300.125711 130.095692 
L 298.822593 132.958164 
L 297.719583 135.877145 
L 296.855243 138.794613 
L 296.238632 141.742666 
L 295.90017 144.687929 
L 297.310946 145.634974 
L 300.062675 146.209457 
L 302.584382 146.970471 
L 304.869559 147.91831 
L 306.830533 149.024411 
L 308.423721 150.271364 
L 309.589716 151.618387 
L 310.316246 153.068266 
L 310.561622 154.525829 
L 310.346821 156.010107 
L 309.677629 157.448494 
L 308.573869 158.812815 
L 307.058094 160.080253 
L 305.155596 161.226481 
L 302.953331 162.203344 
L 302.23754 163.319112 
L 304.363632 166.089171 
L 307.851241 170.182617 
L 309.0538 171.523651 
L 310.769089 172.700429 
L 315.271266 174.617544 
L 315.897859 174.036897 
L 313.603018 163.767615 
L 314.930481 162.663343 
L 316.570165 163.669761 
L 319.458305 176.899773 
L 317.116367 177.345663 
L 299.041417 169.654028 
L 298.657656 170.706462 
L 298.657656 182.551123 
L 173.291033 181.920424 
L 170.520626 181.485276 
L 168.461926 180.407037 
L 167.702857 179.01558 
L 168.404651 177.583872 
L 170.359585 176.509991 
L 173.167887 176.023095 
L 176.081067 176.262935 
L 178.373855 177.161456 
L 179.54547 178.49912 
L 179.261867 179.97807 
L 177.6156 181.179947 
L 175.027545 181.847218 
L 234.577466 178.866251 
L 232.011742 178.13568 
L 230.475686 176.893738 
L 230.314912 175.43524 
L 231.59848 174.113699 
L 234.009587 173.256091 
L 236.947346 173.081154 
L 239.658575 173.616426 
L 241.533986 174.741065 
L 242.111903 176.181844 
L 241.212709 177.575853 
L 239.094564 178.585167 
L 236.259872 178.968972 
L 294.10642 161.070037 
L 296.873945 160.594391 
L 299.399116 159.815291 
L 301.533623 158.792058 
L 303.185212 157.552113 
L 304.188429 156.167959 
L 304.607202 154.69424 
L 304.332945 153.242388 
L 303.406763 151.851018 
L 301.857269 150.574654 
L 299.816878 149.507937 
L 297.332072 148.680272 
L 294.597229 148.16012 
L 291.647902 147.932983 
L 288.679632 148.017682 
L 285.775313 148.396783 
L 283.186151 149.08681 
L 281.014033 150.074991 
L 279.360807 151.311428 
L 278.31063 152.692152 
L 277.850314 154.14466 
L 277.976116 155.638229 
L 278.681754 157.060675 
L 279.97642 158.382684 
L 281.872722 159.531712 
L 284.250648 160.403557 
L 286.990586 160.960047 
L 289.911212 161.207053 
L 289.632927 158.058043 
L 286.786955 157.620503 
L 284.816576 156.539947 
L 283.853837 155.134715 
L 283.663788 153.66576 
L 284.741354 152.406669 
L 286.753011 153.147802 
L 286.70625 154.619324 
L 287.658216 156.011833 
L 290.211114 156.659703 
L 291.666822 155.489471 
L 292.347226 154.043336 
L 293.03993 151.143164 
L 295.52894 151.284985 
L 295.613304 152.747649 
L 295.287065 154.20895 
L 294.615878 155.660893 
L 295.417844 156.001696 
L 297.78419 155.348692 
L 298.246797 156.591683 
L 296.111812 157.593519 
L 293.265934 158.047451 
L 186.378816 155.317338 
L 189.338961 155.317338 
L 225.09552 155.284568 
L 230.936397 154.90636 
L 233.838849 154.553133 
L 236.682649 154.092563 
L 239.428411 153.53211 
L 242.094031 152.868862 
L 244.641683 152.11255 
L 247.062371 151.267643 
L 249.392249 150.318805 
L 251.528975 149.308532 
L 253.550362 148.200258 
L 255.366406 147.042858 
L 257.010147 145.819384 
L 258.472588 144.534305 
L 259.744734 143.192088 
L 260.817592 141.797201 
L 261.666663 140.384015 
L 262.296242 138.959493 
L 262.718149 137.498592 
L 262.924445 136.005256 
L 262.910391 134.524283 
L 262.683375 133.066229 
L 262.238998 131.609011 
L 261.571748 130.158797 
L 260.697232 128.751164 
L 259.599488 127.362486 
L 258.303557 126.027025 
L 256.818432 124.74925 
L 255.15311 123.533626 
L 253.316585 122.384624 
L 251.275435 121.285483 
L 249.120455 120.284713 
L 246.821439 119.364059 
L 244.336366 118.511837 
L 241.773786 117.766681 
L 239.094339 117.115135 
L 236.364922 116.571952 
L 233.540447 116.127084 
L 230.629368 115.784732 
L 227.703156 115.552887 
L 221.735322 115.412046 
L 218.772479 115.52032 
L 215.833618 115.763244 
L 212.958379 116.144061 
L 210.18787 116.659527 
L 207.499581 117.316536 
L 204.962684 118.099176 
L 202.602665 118.994588 
L 200.414861 120.00226 
L 198.466339 121.09233 
L 196.730447 122.293092 
L 194.021885 122.824391 
L 191.145502 123.10307 
L 188.381313 123.659893 
L 185.946398 124.489751 
L 183.876656 125.56935 
L 182.22954 126.791655 
L 180.910806 128.13234 
L 179.973633 129.524389 
L 181.249332 130.224932 
L 193.108325 130.415109 
L 204.98414 130.86204 
L 213.825733 131.417677 
L 222.595605 132.246334 
L 225.47265 132.614859 
L 227.768579 132.476174 
L 228.475502 131.048167 
L 228.718584 129.581337 
L 230.551043 128.717292 
L 231.678558 129.921515 
L 231.381451 131.394714 
L 230.677612 132.845102 
L 229.557448 134.205384 
L 227.984896 135.469452 
L 225.992614 136.566259 
L 223.645169 137.44137 
L 221.292815 137.005143 
L 222.92426 135.919673 
L 225.090568 134.902586 
L 224.727232 134.04413 
L 218.963745 133.36794 
L 210.109863 132.641803 
L 201.263813 132.158324 
L 189.385909 131.787605 
L 177.503103 131.665818 
L 159.598765 131.67978 
L 156.788032 132.086838 
L 154.489901 133.020002 
L 153.122744 134.321028 
L 152.875566 135.777163 
L 153.773834 137.195726 
L 155.665709 138.314593 
L 158.284523 138.979023 
L 160.974405 139.534716 
L 161.793352 140.904729 
L 162.052394 142.374654 
L 162.524913 143.850585 
L 163.187217 145.271395 
L 164.077101 146.701407 
L 165.17692 148.078828 
L 166.485483 149.383939 
L 168.071194 150.646652 
L 169.919328 151.819559 
L 172.013391 152.863746 
L 174.347035 153.745674 
L 176.973037 154.456302 
L 179.800707 154.95469 
L 182.694616 155.232761 
L 182.694616 155.232761 
" style="fill:none;stroke:#ff0000;stroke-linecap:square;stroke-width:1.5;"/>
   </g>
   <g id="patch_3">
    <path d="M 57.6 307.584 
L 57.6 41.472 
" style="fill:none;stroke:#000000;stroke-linecap:square;stroke-linejoin:miter;stroke-width:0.8;"/>
   </g>
   <g id="patch_4">
    <path d="M 414.72 307.584 
L 414.72 41.472 
" style="fill:none;stroke:#000000;stroke-linecap:square;stroke-linejoin:miter;stroke-width:0.8;"/>
   </g>
   <g id="patch_5">
    <path d="M 57.6 307.584 
L 414.72 307.584 
" style="fill:none;stroke:#000000;stroke-linecap:square;stroke-linejoin:miter;stroke-width:0.8;"/>
   </g>
   <g id="patch_6">
    <path d="M 57.6 41.472 
L 414.72 41.472 
" style="fill:none;stroke:#000000;stroke-linecap:square;stroke-linejoin:miter;stroke-width:0.8;"/>
   </g>
  </g>
 </g>
 <defs>
  <clipPath id="p94d7df3d2d">
   <rect height="266.112" width="357.12" x="57.6" y="41.472"/>
  </clipPath>
 </defs>
</svg>
