<?xml version="1.0" encoding="utf-8" standalone="no"?>
<!DOCTYPE svg PUBLIC "-//W3C//DTD SVG 1.1//EN"
  "http://www.w3.org/Graphics/SVG/1.1/DTD/svg11.dtd">
<!-- Created with matplotlib (https://matplotlib.org/) -->
<svg height="345.6pt" version="1.1" viewBox="0 0 460.8 345.6" width="460.8pt" xmlns="http://www.w3.org/2000/svg" xmlns:xlink="http://www.w3.org/1999/xlink">
 <defs>
  <style type="text/css">
*{stroke-linecap:butt;stroke-linejoin:round;}
  </style>
 </defs>
 <g id="figure_1">
  <g id="patch_1">
   <path d="M 0 345.6 
L 460.8 345.6 
L 460.8 0 
L 0 0 
z
" style="fill:#ffffff;"/>
  </g>
  <g id="axes_1">
   <g id="patch_2">
    <path d="M 57.6 307.584 
L 414.72 307.584 
L 414.72 41.472 
L 57.6 41.472 
z
" style="fill:#ffffff;"/>
   </g>
   <g id="matplotlib.axis_1">
    <g id="xtick_1">
     <g id="line2d_1">
      <defs>
       <path d="M 0 0 
L 0 3.5 
" id="m5721cdc9f1" style="stroke:#000000;stroke-width:0.8;"/>
      </defs>
      <g>
       <use style="stroke:#000000;stroke-width:0.8;" x="99.890526" xlink:href="#m5721cdc9f1" y="307.584"/>
      </g>
     </g>
     <g id="text_1">
      <!-- −50 -->
      <defs>
       <path d="M 10.59375 35.5 
L 73.1875 35.5 
L 73.1875 27.203125 
L 10.59375 27.203125 
z
" id="DejaVuSans-8722"/>
       <path d="M 10.796875 72.90625 
L 49.515625 72.90625 
L 49.515625 64.59375 
L 19.828125 64.59375 
L 19.828125 46.734375 
Q 21.96875 47.46875 24.109375 47.828125 
Q 26.265625 48.1875 28.421875 48.1875 
Q 40.625 48.1875 47.75 41.5 
Q 54.890625 34.8125 54.890625 23.390625 
Q 54.890625 11.625 47.5625 5.09375 
Q 40.234375 -1.421875 26.90625 -1.421875 
Q 22.3125 -1.421875 17.546875 -0.640625 
Q 12.796875 0.140625 7.71875 1.703125 
L 7.71875 11.625 
Q 12.109375 9.234375 16.796875 8.0625 
Q 21.484375 6.890625 26.703125 6.890625 
Q 35.15625 6.890625 40.078125 11.328125 
Q 45.015625 15.765625 45.015625 23.390625 
Q 45.015625 31 40.078125 35.4375 
Q 35.15625 39.890625 26.703125 39.890625 
Q 22.75 39.890625 18.8125 39.015625 
Q 14.890625 38.140625 10.796875 36.28125 
z
" id="DejaVuSans-53"/>
       <path d="M 31.78125 66.40625 
Q 24.171875 66.40625 20.328125 58.90625 
Q 16.5 51.421875 16.5 36.375 
Q 16.5 21.390625 20.328125 13.890625 
Q 24.171875 6.390625 31.78125 6.390625 
Q 39.453125 6.390625 43.28125 13.890625 
Q 47.125 21.390625 47.125 36.375 
Q 47.125 51.421875 43.28125 58.90625 
Q 39.453125 66.40625 31.78125 66.40625 
z
M 31.78125 74.21875 
Q 44.046875 74.21875 50.515625 64.515625 
Q 56.984375 54.828125 56.984375 36.375 
Q 56.984375 17.96875 50.515625 8.265625 
Q 44.046875 -1.421875 31.78125 -1.421875 
Q 19.53125 -1.421875 13.0625 8.265625 
Q 6.59375 17.96875 6.59375 36.375 
Q 6.59375 54.828125 13.0625 64.515625 
Q 19.53125 74.21875 31.78125 74.21875 
z
" id="DejaVuSans-48"/>
      </defs>
      <g transform="translate(89.338183 322.182437)scale(0.1 -0.1)">
       <use xlink:href="#DejaVuSans-8722"/>
       <use x="83.789062" xlink:href="#DejaVuSans-53"/>
       <use x="147.412109" xlink:href="#DejaVuSans-48"/>
      </g>
     </g>
    </g>
    <g id="xtick_2">
     <g id="line2d_2">
      <g>
       <use style="stroke:#000000;stroke-width:0.8;" x="146.88" xlink:href="#m5721cdc9f1" y="307.584"/>
      </g>
     </g>
     <g id="text_2">
      <!-- 0 -->
      <g transform="translate(143.69875 322.182437)scale(0.1 -0.1)">
       <use xlink:href="#DejaVuSans-48"/>
      </g>
     </g>
    </g>
    <g id="xtick_3">
     <g id="line2d_3">
      <g>
       <use style="stroke:#000000;stroke-width:0.8;" x="193.869474" xlink:href="#m5721cdc9f1" y="307.584"/>
      </g>
     </g>
     <g id="text_3">
      <!-- 50 -->
      <g transform="translate(187.506974 322.182437)scale(0.1 -0.1)">
       <use xlink:href="#DejaVuSans-53"/>
       <use x="63.623047" xlink:href="#DejaVuSans-48"/>
      </g>
     </g>
    </g>
    <g id="xtick_4">
     <g id="line2d_4">
      <g>
       <use style="stroke:#000000;stroke-width:0.8;" x="240.858947" xlink:href="#m5721cdc9f1" y="307.584"/>
      </g>
     </g>
     <g id="text_4">
      <!-- 100 -->
      <defs>
       <path d="M 12.40625 8.296875 
L 28.515625 8.296875 
L 28.515625 63.921875 
L 10.984375 60.40625 
L 10.984375 69.390625 
L 28.421875 72.90625 
L 38.28125 72.90625 
L 38.28125 8.296875 
L 54.390625 8.296875 
L 54.390625 0 
L 12.40625 0 
z
" id="DejaVuSans-49"/>
      </defs>
      <g transform="translate(231.315197 322.182437)scale(0.1 -0.1)">
       <use xlink:href="#DejaVuSans-49"/>
       <use x="63.623047" xlink:href="#DejaVuSans-48"/>
       <use x="127.246094" xlink:href="#DejaVuSans-48"/>
      </g>
     </g>
    </g>
    <g id="xtick_5">
     <g id="line2d_5">
      <g>
       <use style="stroke:#000000;stroke-width:0.8;" x="287.848421" xlink:href="#m5721cdc9f1" y="307.584"/>
      </g>
     </g>
     <g id="text_5">
      <!-- 150 -->
      <g transform="translate(278.304671 322.182437)scale(0.1 -0.1)">
       <use xlink:href="#DejaVuSans-49"/>
       <use x="63.623047" xlink:href="#DejaVuSans-53"/>
       <use x="127.246094" xlink:href="#DejaVuSans-48"/>
      </g>
     </g>
    </g>
    <g id="xtick_6">
     <g id="line2d_6">
      <g>
       <use style="stroke:#000000;stroke-width:0.8;" x="334.837895" xlink:href="#m5721cdc9f1" y="307.584"/>
      </g>
     </g>
     <g id="text_6">
      <!-- 200 -->
      <defs>
       <path d="M 19.1875 8.296875 
L 53.609375 8.296875 
L 53.609375 0 
L 7.328125 0 
L 7.328125 8.296875 
Q 12.9375 14.109375 22.625 23.890625 
Q 32.328125 33.6875 34.8125 36.53125 
Q 39.546875 41.84375 41.421875 45.53125 
Q 43.3125 49.21875 43.3125 52.78125 
Q 43.3125 58.59375 39.234375 62.25 
Q 35.15625 65.921875 28.609375 65.921875 
Q 23.96875 65.921875 18.8125 64.3125 
Q 13.671875 62.703125 7.8125 59.421875 
L 7.8125 69.390625 
Q 13.765625 71.78125 18.9375 73 
Q 24.125 74.21875 28.421875 74.21875 
Q 39.75 74.21875 46.484375 68.546875 
Q 53.21875 62.890625 53.21875 53.421875 
Q 53.21875 48.921875 51.53125 44.890625 
Q 49.859375 40.875 45.40625 35.40625 
Q 44.1875 33.984375 37.640625 27.21875 
Q 31.109375 20.453125 19.1875 8.296875 
z
" id="DejaVuSans-50"/>
      </defs>
      <g transform="translate(325.294145 322.182437)scale(0.1 -0.1)">
       <use xlink:href="#DejaVuSans-50"/>
       <use x="63.623047" xlink:href="#DejaVuSans-48"/>
       <use x="127.246094" xlink:href="#DejaVuSans-48"/>
      </g>
     </g>
    </g>
    <g id="xtick_7">
     <g id="line2d_7">
      <g>
       <use style="stroke:#000000;stroke-width:0.8;" x="381.827368" xlink:href="#m5721cdc9f1" y="307.584"/>
      </g>
     </g>
     <g id="text_7">
      <!-- 250 -->
      <g transform="translate(372.283618 322.182437)scale(0.1 -0.1)">
       <use xlink:href="#DejaVuSans-50"/>
       <use x="63.623047" xlink:href="#DejaVuSans-53"/>
       <use x="127.246094" xlink:href="#DejaVuSans-48"/>
      </g>
     </g>
    </g>
   </g>
   <g id="matplotlib.axis_2">
    <g id="ytick_1">
     <g id="line2d_8">
      <defs>
       <path d="M 0 0 
L -3.5 0 
" id="mb637659a92" style="stroke:#000000;stroke-width:0.8;"/>
      </defs>
      <g>
       <use style="stroke:#000000;stroke-width:0.8;" x="57.6" xlink:href="#mb637659a92" y="276.070737"/>
      </g>
     </g>
     <g id="text_8">
      <!-- −50 -->
      <g transform="translate(29.495313 279.869956)scale(0.1 -0.1)">
       <use xlink:href="#DejaVuSans-8722"/>
       <use x="83.789062" xlink:href="#DejaVuSans-53"/>
       <use x="147.412109" xlink:href="#DejaVuSans-48"/>
      </g>
     </g>
    </g>
    <g id="ytick_2">
     <g id="line2d_9">
      <g>
       <use style="stroke:#000000;stroke-width:0.8;" x="57.6" xlink:href="#mb637659a92" y="241.056"/>
      </g>
     </g>
     <g id="text_9">
      <!-- 0 -->
      <g transform="translate(44.2375 244.855219)scale(0.1 -0.1)">
       <use xlink:href="#DejaVuSans-48"/>
      </g>
     </g>
    </g>
    <g id="ytick_3">
     <g id="line2d_10">
      <g>
       <use style="stroke:#000000;stroke-width:0.8;" x="57.6" xlink:href="#mb637659a92" y="206.041263"/>
      </g>
     </g>
     <g id="text_10">
      <!-- 50 -->
      <g transform="translate(37.875 209.840482)scale(0.1 -0.1)">
       <use xlink:href="#DejaVuSans-53"/>
       <use x="63.623047" xlink:href="#DejaVuSans-48"/>
      </g>
     </g>
    </g>
    <g id="ytick_4">
     <g id="line2d_11">
      <g>
       <use style="stroke:#000000;stroke-width:0.8;" x="57.6" xlink:href="#mb637659a92" y="171.026526"/>
      </g>
     </g>
     <g id="text_11">
      <!-- 100 -->
      <g transform="translate(31.5125 174.825745)scale(0.1 -0.1)">
       <use xlink:href="#DejaVuSans-49"/>
       <use x="63.623047" xlink:href="#DejaVuSans-48"/>
       <use x="127.246094" xlink:href="#DejaVuSans-48"/>
      </g>
     </g>
    </g>
    <g id="ytick_5">
     <g id="line2d_12">
      <g>
       <use style="stroke:#000000;stroke-width:0.8;" x="57.6" xlink:href="#mb637659a92" y="136.011789"/>
      </g>
     </g>
     <g id="text_12">
      <!-- 150 -->
      <g transform="translate(31.5125 139.811008)scale(0.1 -0.1)">
       <use xlink:href="#DejaVuSans-49"/>
       <use x="63.623047" xlink:href="#DejaVuSans-53"/>
       <use x="127.246094" xlink:href="#DejaVuSans-48"/>
      </g>
     </g>
    </g>
    <g id="ytick_6">
     <g id="line2d_13">
      <g>
       <use style="stroke:#000000;stroke-width:0.8;" x="57.6" xlink:href="#mb637659a92" y="100.997053"/>
      </g>
     </g>
     <g id="text_13">
      <!-- 200 -->
      <g transform="translate(31.5125 104.796271)scale(0.1 -0.1)">
       <use xlink:href="#DejaVuSans-50"/>
       <use x="63.623047" xlink:href="#DejaVuSans-48"/>
       <use x="127.246094" xlink:href="#DejaVuSans-48"/>
      </g>
     </g>
    </g>
    <g id="ytick_7">
     <g id="line2d_14">
      <g>
       <use style="stroke:#000000;stroke-width:0.8;" x="57.6" xlink:href="#mb637659a92" y="65.982316"/>
      </g>
     </g>
     <g id="text_14">
      <!-- 250 -->
      <g transform="translate(31.5125 69.781535)scale(0.1 -0.1)">
       <use xlink:href="#DejaVuSans-50"/>
       <use x="63.623047" xlink:href="#DejaVuSans-53"/>
       <use x="127.246094" xlink:href="#DejaVuSans-48"/>
      </g>
     </g>
    </g>
   </g>
   <g id="line2d_15">
    <path clip-path="url(#p9cd1f8d128)" d="M 146.88 241.056 
L 146.997864 241.294458 
L 146.93275 241.256519 
L 147.797845 241.267241 
L 147.76879 241.369388 
L 147.792894 241.298118 
L 147.995086 241.522315 
L 148.205733 241.42232 
L 148.31595 241.563263 
L 148.291996 241.522955 
L 148.505488 241.569908 
L 148.38947 241.690295 
L 148.582594 241.605234 
L 148.678087 241.78913 
L 148.642943 241.725551 
L 149.398425 241.967396 
L 149.311799 241.931569 
L 149.654718 241.985005 
L 149.858278 242.093231 
L 149.791334 242.225906 
L 150.015207 242.150968 
L 150.028175 242.332701 
L 150.026445 242.299456 
L 152.010691 242.933504 
L 151.938545 242.920742 
L 152.177215 242.875409 
L 152.226939 243.020254 
L 152.234314 242.902014 
L 153.126108 243.326154 
L 153.098275 243.363119 
L 153.233425 243.296691 
L 153.367834 243.433674 
L 153.404173 243.361814 
L 154.74093 243.896057 
L 154.869681 244.095822 
L 154.884684 244.045425 
L 156.046462 244.504726 
L 156.144905 244.388948 
L 156.335529 244.530411 
L 156.312769 244.491521 
L 156.576612 244.52416 
L 156.749556 244.61393 
L 156.926469 244.737687 
L 160.034232 245.918506 
L 159.943691 245.975297 
L 160.380136 246.047839 
L 160.459364 246.228815 
L 160.443759 246.207845 
L 161.927241 246.748028 
L 162.084546 246.651157 
L 162.216671 246.775755 
L 162.190621 246.734991 
L 162.521188 246.714977 
L 162.632812 246.882707 
L 162.993201 246.988275 
L 163.171217 247.174453 
L 163.313369 247.093409 
L 163.774451 247.383958 
L 163.855513 247.288744 
L 164.054947 247.362521 
L 164.494063 247.442149 
L 164.604472 247.589469 
L 164.600404 247.587566 
L 164.855541 247.6476 
L 164.819836 247.788393 
L 165.00084 247.740386 
L 165.058407 247.85784 
L 165.126222 247.812599 
L 165.570595 247.983772 
L 165.520669 248.098699 
L 165.624671 248.090859 
L 165.886043 248.189041 
L 166.10662 248.212711 
L 166.256096 248.390442 
L 166.39532 248.559302 
L 166.467315 248.464873 
L 166.750367 248.597623 
L 166.694876 248.720562 
L 166.906083 248.685851 
L 166.981257 248.821946 
L 166.977686 248.803406 
L 167.569283 248.978288 
L 167.656619 249.122673 
L 168.066611 249.17712 
L 168.326781 249.204716 
L 168.322895 249.32367 
L 168.454874 249.211406 
L 169.083311 249.901805 
L 169.405293 249.876109 
L 169.476411 250.011269 
L 169.988343 250.103218 
L 169.981211 250.189916 
L 170.252302 250.175192 
L 170.297056 250.325573 
L 170.247889 250.284882 
L 170.530362 250.397972 
L 170.750803 250.555618 
L 170.959875 250.754989 
L 170.838048 250.84246 
L 171.013565 250.898083 
L 171.120894 251.081855 
L 171.251286 251.083045 
L 172.069017 251.554149 
L 173.061795 251.955272 
L 173.057539 252.027912 
L 173.207094 252.128555 
L 173.20373 252.300194 
L 173.250989 252.178329 
L 173.842387 252.633093 
L 174.761095 253.027433 
L 174.673553 253.146048 
L 174.733901 253.047708 
L 174.979677 253.196788 
L 174.903674 253.310689 
L 175.084584 253.380566 
L 175.191881 253.581826 
L 175.346675 253.572476 
L 175.56147 253.741677 
L 175.903457 253.804523 
L 176.156793 254.004904 
L 176.650002 254.4082 
L 176.618063 254.616096 
L 176.67123 254.620305 
L 176.967788 254.678467 
L 176.970661 255.094542 
L 178.408825 256.123591 
L 178.480768 256.133969 
L 178.83716 256.060643 
L 179.125192 256.242316 
L 179.230598 256.402935 
L 179.2279 256.484652 
L 179.363311 256.509643 
L 179.435098 256.869456 
L 179.320355 256.930408 
L 179.428255 256.99659 
L 179.475172 257.276029 
L 179.737094 257.348954 
L 180.283684 257.995253 
L 180.668158 258.000893 
L 181.13492 258.453507 
L 181.256926 259.25419 
L 181.485971 259.306882 
L 181.680961 259.58248 
L 181.865813 259.573328 
L 182.224088 259.921458 
L 182.19639 259.900678 
L 182.377316 260.344554 
L 182.623635 260.397164 
L 182.45466 260.512616 
L 182.813062 261.42894 
L 183.339849 261.957819 
L 183.284885 262.36076 
L 184.185657 263.162372 
L 184.351462 263.525309 
L 184.461805 263.340325 
L 184.709129 263.395557 
L 184.89559 263.697565 
L 185.247188 263.772659 
L 185.127786 263.923792 
L 185.128327 264.290959 
L 185.422972 264.473539 
L 185.574298 265.681178 
L 185.938807 265.986613 
L 185.778392 266.166914 
L 186.61166 266.910065 
L 186.888588 266.962204 
L 186.969777 267.107548 
L 187.188061 267.20157 
L 187.72095 267.119304 
L 187.95703 267.857658 
L 187.673644 268.165915 
L 187.646547 268.476298 
L 187.929933 269.110991 
L 187.780497 269.410487 
L 187.982956 270.144408 
L 188.765755 270.758098 
L 188.994952 271.275528 
L 189.376482 271.621383 
L 189.473586 271.90593 
L 190.015026 272.226476 
L 190.100272 272.517623 
L 190.495245 272.608406 
L 191.170839 273.415989 
L 191.079039 273.407708 
L 191.23531 273.682099 
L 191.156445 274.033907 
L 191.32173 274.489154 
L 191.634025 274.634175 
L 191.807436 275.091311 
L 192.318053 275.922503 
L 192.22963 276.027675 
L 193.467879 277.531606 
L 193.505407 277.952701 
L 194.002933 278.682139 
L 194.584589 279.260873 
L 194.963498 279.436653 
L 195.168889 279.272672 
L 195.811244 279.825117 
L 195.994842 280.428864 
L 196.462738 280.639692 
L 196.641349 281.277043 
L 196.403284 281.949721 
L 197.630875 283.806423 
L 198.13537 285.004738 
L 199.662089 285.314845 
L 200.376105 285.982992 
L 200.054147 286.632154 
L 201.466321 286.513524 
L 201.170517 287.016013 
L 201.159862 287.857236 
L 201.65404 287.559177 
L 202.037042 288.394823 
L 201.458744 289.360684 
L 201.252419 290.132279 
L 202.10944 290.582725 
L 202.177751 291.744298 
L 201.379472 293.659304 
L 201.38341 295.473114 
L 202.701828 296.614908 
L 202.655469 297.754481 
L 204.306213 298.705398 
L 205.339451 300.332308 
L 209.961634 302.460557 
L 211.133038 304.456451 
L 212.476527 304.712433 
L 214.765011 304.764373 
L 216.523804 306.099093 
L 216.904481 308.586172 
L 216.91966 308.429007 
L 219.040533 308.87829 
L 218.829699 311.166479 
L 219.494276 312.499778 
L 221.872668 313.7334 
L 224.300601 315.83244 
L 224.945595 321.612273 
L 220.686582 325.678334 
L 223.957934 329.368968 
L 231.573974 342.665266 
L 243.262579 346.6 
M 317.789238 346.6 
L 355.80638 320.518316 
L 316.554498 290.919622 
L 334.239101 292.187546 
L 315.928975 295.153329 
L 310.779143 292.562474 
L 312.794664 290.862382 
L 316.256749 290.287038 
L 314.140339 290.401983 
L 312.040417 288.151452 
L 313.944197 287.215416 
L 311.95149 286.029755 
L 311.528233 283.480329 
L 310.990657 281.177805 
L 311.116428 277.533657 
L 310.933285 277.341403 
L 309.542364 276.325547 
L 307.879343 273.961641 
L 308.489728 273.493271 
L 307.406634 273.104656 
L 306.499744 271.295248 
L 307.142274 270.762826 
L 305.30727 271.398601 
L 305.193019 270.101992 
L 305.766865 268.607761 
L 306.557639 267.971197 
L 306.518929 268.00866 
L 305.506832 266.710262 
L 306.20188 265.640426 
L 305.542949 264.540565 
L 304.673215 263.322387 
L 304.816598 262.649247 
L 303.696641 261.226483 
L 303.177188 260.865663 
L 302.352099 260.872501 
L 301.891827 260.079799 
L 301.012737 259.781893 
L 300.740949 259.494459 
L 299.40673 259.143887 
L 299.18811 258.33281 
L 298.450295 258.601811 
L 298.007288 258.283757 
L 298.491304 258.049084 
L 298.795007 257.73836 
L 298.272984 257.495927 
L 298.55492 257.164104 
L 299.07667 257.018914 
L 298.609983 256.217121 
L 298.751016 256.045559 
L 298.151814 255.507677 
L 298.422002 254.800807 
L 298.112061 254.49235 
L 296.799399 253.913892 
L 296.816404 253.609792 
L 296.553912 253.33382 
L 295.441249 253.626277 
L 295.592831 253.164965 
L 295.850313 253.191094 
L 295.246732 253.271538 
L 295.535213 253.054676 
L 296.17139 253.088315 
L 296.219111 252.824975 
L 295.952389 252.772285 
L 295.954549 252.310314 
L 296.465808 252.086242 
L 296.1255 251.598036 
L 296.129514 251.160054 
L 295.816011 250.946647 
L 295.419228 250.333918 
L 295.602678 250.308225 
L 295.039545 250.05431 
L 295.08293 249.766178 
L 295.020734 249.835107 
L 294.458362 249.462644 
L 294.796672 249.331542 
L 294.530034 249.370579 
L 294.495984 248.925994 
L 294.669673 248.933771 
L 294.359046 248.365385 
L 294.507228 248.08046 
L 294.408819 248.147006 
L 294.423658 247.69526 
L 293.820617 247.427452 
L 294.266495 247.324171 
L 293.836928 246.904481 
L 293.88544 247.140003 
L 293.621991 247.082051 
L 293.759165 246.956698 
L 293.376307 246.865516 
L 293.450087 246.685781 
L 293.715945 246.821173 
L 293.599258 246.674749 
L 293.950591 246.466435 
L 294.127833 246.006824 
L 294.265015 245.942563 
L 294.015529 245.862189 
L 293.933819 245.69128 
L 293.704603 245.577938 
L 293.745783 245.090751 
L 293.808564 245.346979 
L 293.422727 245.300156 
L 293.763948 245.144703 
L 293.691351 245.212605 
L 294.010424 245.303181 
L 294.066251 245.067872 
L 294.413915 245.082965 
L 294.258233 245.094994 
L 294.489478 244.748127 
L 294.712252 244.651281 
L 294.807173 244.174644 
L 294.609726 244.034944 
L 294.767228 243.76239 
L 294.443756 243.740002 
L 294.28399 243.365628 
L 294.081096 243.256511 
L 294.336744 243.25822 
L 294.103405 243.414434 
L 294.24822 243.129196 
L 294.429934 243.327944 
L 294.26373 243.239067 
L 294.627574 243.114413 
L 294.475193 242.848608 
L 294.820191 242.848855 
L 294.891556 242.674019 
L 295.110979 242.452026 
L 294.912791 242.472039 
L 294.977173 242.327006 
L 295.255518 242.326972 
L 295.05473 242.097845 
L 295.068183 241.88288 
L 294.853159 242.007879 
L 295.131112 241.79895 
L 294.955647 241.88948 
L 294.675197 241.74278 
L 294.985695 241.749154 
L 294.896291 241.827976 
L 294.967342 241.594336 
L 295.087154 241.729346 
L 295.085634 241.628206 
L 295.350624 241.601477 
L 295.180897 241.487263 
L 295.692756 241.227769 
L 295.731545 241.266755 
L 295.561491 241.057079 
L 295.82871 240.944965 
L 295.706899 241.054818 
L 295.767736 240.75316 
L 295.622729 240.677736 
L 295.845234 240.776855 
L 295.739846 240.675677 
L 296.062822 240.41052 
L 296.195591 240.637654 
L 296.196958 240.526715 
L 296.501563 240.403611 
L 296.382356 240.371671 
L 296.610709 240.140927 
L 296.581341 239.844627 
L 296.735026 239.798676 
L 296.5413 239.623381 
L 296.392067 239.542779 
L 296.494799 239.421163 
L 296.566699 239.678159 
L 296.446519 239.490351 
L 296.843503 239.260285 
L 297.180317 239.376378 
L 296.988818 239.407806 
L 297.650162 238.770448 
L 297.599316 238.509315 
L 297.878976 238.5328 
L 297.540716 238.567752 
L 297.860029 238.505359 
L 298.151542 238.382449 
L 298.154405 238.534611 
L 298.156433 238.332667 
L 298.442617 238.379781 
L 298.453714 238.295211 
L 298.822455 238.213103 
L 298.793224 238.201942 
L 298.833627 237.973968 
L 299.037774 237.999009 
L 298.931143 237.901318 
L 299.04994 237.763266 
L 298.916406 237.700382 
L 299.137619 237.688557 
L 299.068656 237.832877 
L 298.979594 237.592812 
L 299.525913 237.59109 
L 299.567533 237.384769 
L 299.806069 237.505749 
L 299.728258 237.363655 
L 300.170178 237.18037 
L 299.942197 237.005931 
L 300.161804 236.981526 
L 300.120869 237.03105 
L 300.304952 236.878896 
L 300.517053 236.953204 
L 300.36504 236.832661 
L 300.640254 236.711706 
L 300.667923 236.902446 
L 300.722947 236.72905 
L 300.975859 236.778703 
L 300.906582 236.696079 
L 301.537506 236.207808 
L 301.818338 236.158188 
L 301.80077 236.269758 
L 301.967855 236.09347 
L 302.408447 236.091442 
L 302.535606 235.834047 
L 302.750324 235.876011 
L 302.731006 235.755021 
L 302.999187 235.522168 
L 302.983773 235.565903 
L 302.896681 235.338953 
L 303.113035 235.407575 
L 303.115155 235.37597 
L 303.11656 235.286546 
L 303.282856 235.382128 
L 303.240088 235.282433 
L 303.867609 235.234814 
L 303.831715 235.112141 
L 304.175902 234.979132 
L 304.057129 235.018905 
L 304.246371 234.709479 
L 304.119086 234.689995 
L 304.348819 234.615756 
L 304.394258 234.752333 
L 304.333251 234.580233 
L 304.532755 234.658443 
L 304.528216 234.587332 
L 304.797052 234.484829 
L 304.887194 234.588843 
L 304.75603 234.500573 
L 305.036467 234.50223 
L 304.925688 234.511097 
L 305.103765 234.359126 
L 305.274426 234.497932 
L 305.1878 234.403445 
L 306.09159 234.052529 
L 306.272845 234.181076 
L 306.204838 234.037024 
L 306.400436 233.9979 
L 306.351567 234.004999 
L 306.558954 233.744075 
L 306.83179 233.758209 
L 306.626346 233.764101 
L 306.778616 233.59192 
L 306.811977 233.652828 
L 307.423617 233.568996 
L 306.76313 233.630858 
L 307.389696 233.595402 
L 307.59314 233.435733 
L 307.71507 233.484817 
L 307.663541 233.351282 
L 307.918428 233.374809 
L 307.802847 233.343771 
L 307.878908 233.20293 
L 307.813645 233.354325 
L 307.785795 233.185515 
L 308.666948 233.132825 
L 309.323104 233.056868 
L 309.226327 232.963555 
L 309.456907 232.854275 
L 309.510299 232.976582 
L 309.523181 232.834015 
L 309.758441 232.854736 
L 309.709441 232.920211 
L 310.054989 232.79973 
L 309.97819 232.790254 
L 310.253159 232.689058 
L 310.333578 232.798666 
L 310.235014 232.652114 
L 310.497035 232.600336 
L 310.456907 232.674824 
L 310.495263 232.56165 
L 310.657887 232.709337 
L 310.539783 232.678067 
L 310.811285 232.590113 
L 310.879654 232.691309 
L 310.871143 232.606358 
L 311.089745 232.633716 
L 311.028557 232.599732 
L 311.134489 232.503672 
L 311.219288 232.622319 
L 311.252033 232.499312 
L 311.41524 232.613822 
L 311.215201 232.619574 
L 311.435355 232.551003 
L 311.325283 232.620351 
L 311.544489 232.727447 
L 311.52219 232.663725 
L 311.712514 232.655723 
L 311.659298 232.787781 
L 311.845924 232.639904 
L 312.178382 232.709391 
L 312.154225 232.771821 
L 312.337527 232.601605 
L 312.493728 232.697355 
L 312.436546 232.673077 
L 312.85491 232.593107 
L 312.843335 232.596939 
L 312.929918 232.709033 
L 312.88809 232.669615 
L 313.208457 232.786966 
L 313.234129 232.927453 
L 313.260369 232.845484 
L 313.56661 232.911923 
L 313.764551 232.756713 
L 313.826861 232.868513 
L 313.68285 232.802821 
L 313.930586 232.78716 
L 313.979539 233.024519 
L 313.911112 232.968237 
L 314.228435 233.001841 
L 314.440328 233.122335 
L 314.359782 233.172817 
L 314.597493 233.134093 
L 314.588132 233.274915 
L 314.622922 233.198538 
L 314.737022 233.363054 
L 315.102316 233.352758 
L 315.102316 233.352758 
" style="fill:none;stroke:#0000ff;stroke-linecap:square;stroke-opacity:0.5;stroke-width:1.5;"/>
   </g>
   <g id="line2d_16">
    <path clip-path="url(#p9cd1f8d128)" d="M 165.675789 241.056 
L 165.675789 239.655411 
L 164.736 239.655411 
L 164.736 238.955116 
L 163.796211 238.955116 
L 163.796211 236.153937 
L 162.856421 236.153937 
L 162.856421 234.753347 
L 161.916632 234.753347 
L 161.916632 233.352758 
L 160.976842 233.352758 
L 160.976842 230.551579 
L 160.037053 229.851284 
L 160.037053 224.949221 
L 159.097263 224.248926 
L 159.097263 221.447747 
L 160.037053 220.747453 
L 159.097263 220.047158 
L 159.097263 213.044211 
L 160.037053 212.343916 
L 160.037053 206.741558 
L 160.976842 206.041263 
L 160.976842 202.539789 
L 161.916632 202.539789 
L 161.916632 200.438905 
L 146.88 196.237137 
L 147.819789 196.237137 
L 147.819789 194.836547 
L 148.759579 194.136253 
L 148.759579 182.231242 
L 149.699368 182.231242 
L 149.699368 181.530947 
L 150.639158 181.530947 
L 150.639158 180.830653 
L 151.578947 180.830653 
L 151.578947 180.130358 
L 152.518737 180.130358 
L 152.518737 179.430063 
L 146.88 186.433011 
L 147.819789 186.433011 
L 150.639158 192.735663 
L 150.639158 191.335074 
L 151.578947 191.335074 
L 151.578947 189.934484 
L 152.518737 189.934484 
L 152.518737 189.234189 
L 153.458526 189.234189 
L 153.458526 187.133305 
L 152.518737 185.732716 
L 154.398316 187.133305 
L 154.398316 185.732716 
L 155.338105 185.732716 
L 155.338105 185.032421 
L 154.398316 184.332126 
L 154.398316 181.530947 
L 155.338105 181.530947 
L 155.338105 177.329179 
L 156.277895 177.329179 
L 156.277895 175.928589 
L 157.217684 175.928589 
L 157.217684 175.228295 
L 158.157474 175.228295 
L 158.157474 173.827705 
L 159.097263 173.827705 
L 159.097263 168.225347 
L 160.037053 167.525053 
L 160.037053 166.824758 
L 160.976842 166.824758 
L 160.976842 163.323284 
L 146.88 143.014737 
L 148.759579 143.014737 
L 148.759579 142.314442 
L 150.639158 142.314442 
L 150.639158 141.614147 
L 151.578947 140.913853 
L 151.578947 138.812968 
L 152.518737 138.812968 
L 153.458526 138.112674 
L 152.518737 140.913853 
L 153.458526 141.614147 
L 155.338105 141.614147 
L 155.338105 139.513263 
L 154.398316 138.812968 
L 156.277895 141.614147 
L 160.037053 141.614147 
L 160.037053 140.913853 
L 161.916632 140.913853 
L 162.856421 140.213558 
L 163.796211 140.213558 
L 163.796211 139.513263 
L 164.736 139.513263 
L 164.736 138.812968 
L 166.615579 138.812968 
L 166.615579 137.412379 
L 167.555368 138.812968 
L 167.555368 139.513263 
L 169.434947 139.513263 
L 170.374737 138.112674 
L 170.374737 137.412379 
L 169.434947 137.412379 
L 169.434947 136.712084 
L 168.495158 136.712084 
L 168.495158 136.011789 
L 167.555368 136.011789 
L 167.555368 135.311495 
L 166.615579 135.311495 
L 166.615579 132.510316 
L 167.555368 131.810021 
L 167.555368 131.109726 
L 171.314526 138.112674 
L 172.254316 138.112674 
L 175.073684 140.913853 
L 170.374737 140.213558 
L 173.194105 140.213558 
L 173.194105 138.812968 
L 176.953263 138.812968 
L 176.953263 135.311495 
L 176.013474 135.311495 
L 176.013474 133.910905 
L 176.953263 133.910905 
L 176.953263 133.210611 
L 177.893053 133.910905 
L 179.772632 133.910905 
L 177.893053 136.011789 
L 179.772632 136.011789 
L 179.772632 134.6112 
L 180.712421 135.311495 
L 174.133895 140.213558 
L 176.013474 140.913853 
L 176.953263 140.213558 
L 177.893053 140.213558 
L 160.037053 169.625937 
L 156.277895 185.032421 
L 158.157474 185.032421 
L 158.157474 184.332126 
L 151.578947 192.735663 
L 151.578947 194.136253 
L 152.518737 194.136253 
L 152.518737 193.435958 
L 153.458526 192.735663 
L 153.458526 192.035368 
L 154.398316 192.035368 
L 154.398316 190.634779 
L 155.338105 189.934484 
L 155.338105 191.335074 
L 156.277895 191.335074 
L 162.856421 201.839495 
L 164.736 201.839495 
L 164.736 200.438905 
L 165.675789 199.738611 
L 164.736 199.038316 
L 164.736 195.536842 
L 163.796211 195.536842 
L 163.796211 194.836547 
L 160.037053 194.836547 
L 160.037053 194.136253 
L 159.097263 194.136253 
L 159.097263 192.735663 
L 158.157474 192.735663 
L 158.157474 190.634779 
L 159.097263 189.934484 
L 159.097263 187.8336 
L 158.157474 187.133305 
L 158.157474 185.732716 
L 160.976842 194.836547 
L 162.856421 194.836547 
L 163.796211 196.937432 
L 198.568421 206.741558 
L 199.508211 206.041263 
L 205.146947 206.041263 
L 205.146947 205.340968 
L 206.086737 206.041263 
L 207.026526 206.041263 
L 207.026526 205.340968 
L 207.966316 206.041263 
L 221.123368 206.041263 
L 222.063158 205.340968 
L 223.002947 205.340968 
L 223.002947 204.640674 
L 223.942737 203.940379 
L 224.882526 203.940379 
L 224.882526 203.240084 
L 225.822316 203.240084 
L 225.822316 202.539789 
L 226.762105 201.839495 
L 226.762105 198.338021 
L 227.701895 199.738611 
L 258.714947 205.340968 
L 254.016 204.640674 
L 254.016 203.940379 
L 251.196632 203.940379 
L 251.196632 203.240084 
L 250.256842 203.240084 
L 250.256842 202.539789 
L 248.377263 202.539789 
L 248.377263 201.839495 
L 247.437474 201.839495 
L 249.317053 202.539789 
L 252.136421 203.940379 
L 253.076211 203.940379 
L 254.955789 204.640674 
L 257.775158 204.640674 
L 259.654737 205.340968 
L 278.450526 205.340968 
L 278.450526 204.640674 
L 279.390316 205.340968 
L 282.209684 205.340968 
L 283.149474 204.640674 
L 285.968842 204.640674 
L 160.976842 228.450695 
L 312.282947 241.056 
L 312.282947 240.355705 
L 313.222737 240.355705 
L 314.162526 239.655411 
L 314.162526 238.254821 
L 315.102316 238.254821 
L 315.102316 236.854232 
L 316.042105 236.854232 
L 316.042105 233.352758 
L 316.981895 233.352758 
L 316.981895 231.952168 
L 317.921684 231.251874 
L 317.921684 218.646568 
L 316.981895 217.946274 
L 317.921684 217.245979 
L 317.921684 215.845389 
L 316.981895 215.145095 
L 316.981895 214.4448 
L 316.042105 213.744505 
L 316.042105 206.741558 
L 315.102316 206.041263 
L 315.102316 203.240084 
L 314.162526 202.539789 
L 314.162526 201.839495 
L 313.222737 201.839495 
L 313.222737 200.438905 
L 312.282947 200.438905 
L 310.403368 199.738611 
L 310.403368 199.038316 
L 308.523789 199.038316 
L 308.523789 196.237137 
L 310.403368 194.836547 
L 310.403368 193.435958 
L 312.282947 193.435958 
L 312.282947 192.735663 
L 311.343158 192.035368 
L 311.343158 190.634779 
L 313.222737 192.735663 
L 313.222737 189.934484 
L 314.162526 189.234189 
L 313.222737 188.533895 
L 313.222737 185.732716 
L 312.282947 185.032421 
L 312.282947 182.231242 
L 311.343158 182.231242 
L 311.343158 180.130358 
L 307.584 167.525053 
L 307.584 166.124463 
L 306.644211 166.124463 
L 306.644211 164.723874 
L 305.704421 164.023579 
L 305.704421 162.622989 
L 304.764632 162.622989 
L 304.764632 158.421221 
L 323.560421 157.720926 
L 325.44 157.720926 
L 303.824842 157.720926 
L 303.824842 154.219453 
L 304.764632 153.519158 
L 304.764632 143.014737 
L 305.704421 142.314442 
L 305.704421 136.712084 
L 306.644211 136.011789 
L 306.644211 135.311495 
L 305.704421 134.6112 
L 305.704421 132.510316 
L 306.644211 131.810021 
L 304.764632 130.409432 
L 304.764632 126.907958 
L 303.824842 126.907958 
L 303.824842 126.207663 
L 307.584 131.810021 
L 308.523789 131.109726 
L 307.584 130.409432 
L 307.584 129.709137 
L 306.644211 129.008842 
L 306.644211 126.207663 
L 307.584 126.207663 
L 307.584 124.106779 
L 308.523789 124.106779 
L 308.523789 123.406484 
L 307.584 122.005895 
L 307.584 121.3056 
L 306.644211 121.3056 
L 306.644211 118.504421 
L 305.704421 117.804126 
L 305.704421 116.403537 
L 306.644211 115.703242 
L 305.704421 115.002947 
L 305.704421 112.902063 
L 304.764632 112.201768 
L 304.764632 110.100884 
L 303.824842 109.400589 
L 303.824842 108 
L 308.523789 122.005895 
L 308.523789 124.807074 
L 316.981895 124.807074 
L 316.981895 121.3056 
L 318.861474 121.3056 
L 318.861474 120.605305 
L 317.921684 119.204716 
L 317.921684 115.002947 
L 318.861474 115.002947 
L 318.861474 114.302653 
L 319.801263 113.602358 
L 319.801263 111.501474 
L 322.620632 111.501474 
L 318.861474 119.204716 
L 319.801263 120.605305 
L 319.801263 119.905011 
L 320.741053 119.905011 
L 320.741053 119.204716 
L 322.620632 119.204716 
L 322.620632 118.504421 
L 323.560421 118.504421 
L 323.560421 117.804126 
L 325.44 117.804126 
L 325.44 117.103832 
L 324.500211 115.002947 
L 324.500211 112.902063 
L 323.560421 112.902063 
L 323.560421 112.201768 
L 322.620632 112.201768 
L 325.44 114.302653 
L 317.921684 124.807074 
L 325.44 124.807074 
L 309.463579 131.109726 
L 313.222737 131.109726 
L 314.162526 131.810021 
L 325.44 131.810021 
L 308.523789 136.712084 
L 306.644211 153.519158 
L 306.644211 152.818863 
L 306.644211 152.118568 
L 307.584 151.418274 
L 307.584 148.617095 
L 308.523789 147.9168 
L 308.523789 139.513263 
L 325.44 140.213558 
L 325.44 139.513263 
L 324.500211 139.513263 
L 324.500211 136.712084 
L 325.44 136.011789 
L 325.44 134.6112 
L 307.584 153.519158 
L 304.764632 157.020632 
L 305.704421 157.020632 
L 306.644211 156.320337 
L 308.523789 154.219453 
L 320.741053 154.219453 
L 307.584 157.020632 
L 320.741053 157.020632 
L 321.680842 154.919747 
L 325.44 154.919747 
L 301.945263 159.821811 
L 301.945263 158.421221 
L 301.005474 158.421221 
L 301.005474 157.020632 
L 300.065684 156.320337 
L 300.065684 153.519158 
L 301.005474 153.519158 
L 301.005474 147.9168 
L 301.945263 147.216505 
L 301.945263 136.011789 
L 302.885053 135.311495 
L 302.885053 131.109726 
L 287.848421 131.109726 
L 285.968842 130.409432 
L 285.968842 129.709137 
L 285.029053 129.709137 
L 285.029053 129.008842 
L 284.089263 129.008842 
L 284.089263 126.907958 
L 285.968842 126.907958 
L 285.968842 126.207663 
L 287.848421 126.207663 
L 287.848421 125.507368 
L 288.788211 125.507368 
L 288.788211 122.706189 
L 289.728 122.706189 
L 289.728 122.005895 
L 290.667789 122.706189 
L 292.547368 122.706189 
L 293.487158 122.005895 
L 294.426947 122.005895 
L 289.728 124.807074 
L 290.667789 125.507368 
L 291.607579 125.507368 
L 292.547368 126.207663 
L 293.487158 126.207663 
L 296.306526 124.106779 
L 296.306526 122.706189 
L 297.246316 122.005895 
L 299.125895 122.005895 
L 300.065684 121.3056 
L 302.885053 121.3056 
L 302.885053 115.703242 
L 301.945263 115.002947 
L 301.945263 114.302653 
L 303.824842 119.905011 
L 303.824842 120.605305 
L 301.005474 122.005895 
L 295.366737 122.706189 
L 297.246316 124.106779 
L 301.005474 124.106779 
L 295.366737 126.207663 
L 301.945263 126.207663 
L 301.945263 124.807074 
L 302.885053 124.106779 
L 303.824842 124.106779 
L 303.824842 122.706189 
L 302.885053 122.706189 
L 302.885053 126.207663 
L 283.149474 126.907958 
L 286.908632 130.409432 
L 288.788211 131.109726 
L 301.945263 131.109726 
L 302.885053 159.821811 
L 312.282947 180.130358 
L 322.620632 180.130358 
L 297.246316 181.530947 
L 297.246316 180.830653 
L 295.366737 180.830653 
L 295.366737 180.130358 
L 294.426947 180.130358 
L 291.607579 179.430063 
L 285.029053 178.729768 
L 285.968842 178.729768 
L 285.968842 178.029474 
L 286.908632 178.729768 
L 290.667789 178.729768 
L 292.547368 179.430063 
L 293.487158 179.430063 
L 296.306526 180.830653 
L 298.186105 181.530947 
L 299.125895 181.530947 
L 314.162526 184.332126 
L 323.560421 184.332126 
L 323.560421 180.830653 
L 325.44 180.830653 
L 324.500211 184.332126 
L 325.44 184.332126 
L 309.463579 199.038316 
L 311.343158 199.738611 
L 315.102316 233.352758 
L 315.102316 233.352758 
" style="fill:none;stroke:#ff0000;stroke-linecap:square;stroke-width:1.5;"/>
   </g>
   <g id="patch_3">
    <path d="M 57.6 307.584 
L 57.6 41.472 
" style="fill:none;stroke:#000000;stroke-linecap:square;stroke-linejoin:miter;stroke-width:0.8;"/>
   </g>
   <g id="patch_4">
    <path d="M 414.72 307.584 
L 414.72 41.472 
" style="fill:none;stroke:#000000;stroke-linecap:square;stroke-linejoin:miter;stroke-width:0.8;"/>
   </g>
   <g id="patch_5">
    <path d="M 57.6 307.584 
L 414.72 307.584 
" style="fill:none;stroke:#000000;stroke-linecap:square;stroke-linejoin:miter;stroke-width:0.8;"/>
   </g>
   <g id="patch_6">
    <path d="M 57.6 41.472 
L 414.72 41.472 
" style="fill:none;stroke:#000000;stroke-linecap:square;stroke-linejoin:miter;stroke-width:0.8;"/>
   </g>
  </g>
 </g>
 <defs>
  <clipPath id="p9cd1f8d128">
   <rect height="266.112" width="357.12" x="57.6" y="41.472"/>
  </clipPath>
 </defs>
</svg>
